<svg xmlns="http://www.w3.org/2000/svg" width="51.086" height="48.806" viewBox="0 0 51.086 48.806">
  <defs>
    <style>
      .cls-1 {
        fill: #ffb414;
      }

      .cls-2 {
        opacity: 0.2;
      }

      .cls-3 {
        opacity: 0.1;
      }
    </style>
  </defs>
  <g id="Group_793" data-name="Group 793" transform="translate(-316.616 -1073)">
    <path id="Path_2016" data-name="Path 2016" class="cls-1" d="M207.974,147.524c1.17,0,2.008-.055,2.083-.06l-.161-2.309c-.05,0-5.351.346-8.077-.753-2.168-.883-4.563-6.982-5.622-12.368-.673-3.413-.306-4.488-.025-4.829.06-.07.221-.266.833-.266h2.113c.612,1.842,1.591,3.694,3.067,3.694h4.262v-2.3h-4.091a8.773,8.773,0,0,1-1.265-2.851l-.236-.843h-3.85a3.2,3.2,0,0,0-2.62,1.114c-1,1.21-1.139,3.288-.457,6.741a43.7,43.7,0,0,0,2.445,8.122c1.39,3.273,2.931,5.276,4.578,5.943A21.047,21.047,0,0,0,207.974,147.524Z" transform="translate(123.11 949.912)"/>
    <path id="Path_2018" data-name="Path 2018" class="cls-2" d="M223.312,167.839c-.09,0-.914.06-2.083.06h-.607l-.5-2.319c1.682.05,3.012-.035,3.052-.04Z" transform="translate(109.855 929.536)"/>
    <path id="Path_2019" data-name="Path 2019" class="cls-1" d="M264.443,147.524c-1.17,0-2.008-.055-2.083-.06l.156-2.309c.055,0,5.356.346,8.076-.753,2.173-.883,4.563-6.982,5.627-12.368.668-3.413.3-4.488,0-4.829-.06-.07-.221-.266-.833-.266h-2.113c-.612,1.842-1.6,3.694-3.067,3.694h-4.267v-2.3h4.091a8.76,8.76,0,0,0,1.27-2.851l.236-.843h3.85a3.2,3.2,0,0,1,2.62,1.114c1,1.21,1.134,3.288.457,6.741a43.7,43.7,0,0,1-2.45,8.122c-1.385,3.273-2.926,5.276-4.573,5.943A20.851,20.851,0,0,1,264.443,147.524Z" transform="translate(88.818 949.911)"/>
    <path id="Path_2021" data-name="Path 2021" class="cls-2" d="M262.36,167.839c.09,0,.914.06,2.083.06h.607l.5-2.319c-1.682.05-3.012-.035-3.052-.04Z" transform="translate(88.818 929.536)"/>
    <path id="Path_2022" data-name="Path 2022" class="cls-1" d="M220.38,197.648v1.3h24.129v-1.3h-2.068l-1.536-2.209-7.022-2.8v-13.7h-2.871v13.7l-7.022,2.8-1.541,2.209Z" transform="translate(109.726 922.862)"/>
    <path id="Path_2024" data-name="Path 2024" class="cls-1" d="M215,121.56s1.129,18.668,4.071,23.828,9.221,5.6,10.687,5.6,7.74-.442,10.682-5.6,4.071-23.828,4.071-23.828Z" transform="translate(112.405 951.44)"/>
    <path id="Path_2026" data-name="Path 2026" class="cls-2" d="M244.493,214.731H224.5l.552-.793,18.4-.7Z" transform="translate(107.674 905.78)"/>
    <path id="Path_2027" data-name="Path 2027" class="cls-3" d="M239.325,133.3l1.586,3.218,3.544.512-2.565,2.5.607,3.534-3.172-1.666-3.172,1.666.607-3.534-2.57-2.5,3.549-.512Z" transform="translate(102.848 945.593)"/>
  </g>
</svg>
