<svg xmlns="http://www.w3.org/2000/svg" width="571.486" height="561.57" viewBox="0 0 571.486 561.57">
  <defs>
    <style>
      .cls-1, .cls-2 {
        fill: none;
        stroke-linecap: round;
        stroke-linejoin: round;
        stroke-width: 5px;
        stroke-dasharray: 10;
      }

      .cls-1 {
        stroke: #707070;
      }

      .cls-2 {
        stroke: #fff;
      }

      .cls-3 {
        fill: #f5f5f5;
      }

      .cls-4 {
        fill: #ebebeb;
      }

      .cls-15, .cls-16, .cls-17, .cls-18, .cls-5 {
        fill: #fff;
      }

      .cls-12, .cls-21, .cls-5 {
        opacity: 0.5;
      }

      .cls-21, .cls-6 {
        fill: #e0e0e0;
      }

      .cls-7 {
        fill: #37474f;
      }

      .cls-8 {
        fill: #455a64;
      }

      .cls-19, .cls-9 {
        fill: #263238;
      }

      .cls-10 {
        fill: #3eaa6d;
      }

      .cls-11 {
        opacity: 0.7;
      }

      .cls-13, .cls-17, .cls-20 {
        opacity: 0.6;
      }

      .cls-14 {
        fill: #f0f0f0;
      }

      .cls-15 {
        opacity: 0.1;
      }

      .cls-16 {
        opacity: 0.8;
      }

      .cls-19 {
        opacity: 0.79;
      }

      .cls-21 {
        mix-blend-mode: multiply;
        isolation: isolate;
      }

      .cls-22 {
        opacity: 0.2;
      }

      .cls-23 {
        opacity: 0.4;
      }

      .cls-24 {
        fill: #ffa8a7;
      }

      .cls-25 {
        fill: #f28f8f;
      }
    </style>
  </defs>
  <g id="Group_774" data-name="Group 774" transform="translate(-751.014 -215.221)">
    <path id="Path_535" data-name="Path 535" class="cls-1" d="M-2964,430.434V617.291h-188.283" transform="translate(4284 157)"/>
    <path id="Path_536" data-name="Path 536" class="cls-2" d="M-3152.283,430.434V617.291H-2964" transform="translate(1387.721 3370.004) rotate(90)"/>
    <g id="Nerd-amico_1_" data-name="Nerd-amico(1)" transform="translate(716.326 199.874)">
      <g id="freepik--Floor--inject-1--inject-36" transform="translate(34.688 281.205)">
        <path id="Path_539" data-name="Path 539" class="cls-3" d="M115,472.423c107.061,55.937,280.642,55.937,387.7,0s107.074-146.611,0-202.548-280.642-55.925-387.716,0S7.925,416.473,115,472.423Z" transform="translate(-34.688 -227.926)"/>
      </g>
      <g id="freepik--Shadows--inject-1--inject-36" transform="translate(228.638 364.782)">
        <path id="Path_540" data-name="Path 540" class="cls-4" d="M208.645,394.691c28.854,13.752,75.623,13.752,104.413,0s28.854-36.035,0-49.787-75.61-13.752-104.413,0S179.741,380.952,208.645,394.691Z" transform="translate(-187.005 -282.349)"/>
        <path id="Path_541" data-name="Path 541" class="cls-4" d="M451.4,371.869,348.263,431.4a6.1,6.1,0,0,1-5.513,0L213.825,356.933a1.681,1.681,0,0,1,0-3.183l103.14-59.528a6.1,6.1,0,0,1,5.514,0l128.963,74.464a1.681,1.681,0,0,1-.038,3.183Z" transform="translate(-179.986 -293.563)"/>
      </g>
      <g id="freepik--Pencil--inject-1--inject-36" transform="translate(465.013 33)">
        <path id="Path_542" data-name="Path 542" class="cls-3" d="M436.366,111.075v27.338s-11.231,5.259-31.833,5.259S372.7,138.4,372.7,138.4v-26.74l21.494-60.827c-.293,1.91.828,3.82,3.349,5.323a13.192,13.192,0,0,0,12.4.777,11.7,11.7,0,0,0,1.6-.777c2.674-1.541,3.82-3.654,3.3-5.666Z" transform="translate(-372.624 -28.219)"/>
        <path id="Path_543" data-name="Path 543" class="cls-5" d="M436.366,111.075v27.338s-11.231,5.259-31.833,5.259S372.7,138.4,372.7,138.4v-26.74l21.494-60.827c-.293,1.91.828,3.82,3.349,5.323a13.192,13.192,0,0,0,12.4.777,11.7,11.7,0,0,0,1.6-.777c2.674-1.541,3.82-3.654,3.3-5.666Z" transform="translate(-372.624 -28.219)"/>
        <path id="Path_544" data-name="Path 544" class="cls-3" d="M433.91,250.092A21.645,21.645,0,0,1,427.047,256c-12.453,7.194-32.635,7.194-45.076,0a21.646,21.646,0,0,1-6.876-5.908,12.314,12.314,0,0,1-2.445-6.583v14.2c.229,4.533,3.323,9.028,9.321,12.491,12.44,7.182,32.623,7.182,45.076,0,6.214-3.591,9.334-8.3,9.334-13.013V243a12.058,12.058,0,0,1-2.47,7.092Z" transform="translate(-372.638 24.399)"/>
        <path id="Path_545" data-name="Path 545" class="cls-4" d="M433.91,238.942a21.645,21.645,0,0,1-6.863,5.908c-.738.42-1.49.815-2.267,1.184-11.753,5.6-28.8,5.6-40.543,0-.777-.369-1.541-.764-2.267-1.184a21.646,21.646,0,0,1-6.876-5.908,12.275,12.275,0,0,1-2.445-6.57v14.185a12.313,12.313,0,0,0,2.445,6.583,21.645,21.645,0,0,0,6.876,5.908c12.44,7.194,32.623,7.194,45.076,0a21.646,21.646,0,0,0,6.863-5.908,12.058,12.058,0,0,0,2.47-7.092v-14.2a12.045,12.045,0,0,1-2.47,7.092Z" transform="translate(-372.638 21.352)"/>
        <path id="Path_546" data-name="Path 546" class="cls-3" d="M433.91,227.792a21.8,21.8,0,0,1-6.863,5.921c-.738.42-1.49.8-2.267,1.184-11.753,5.6-28.8,5.6-40.543,0-.777-.382-1.541-.764-2.267-1.184a21.862,21.862,0,0,1-6.876-5.921,12.275,12.275,0,0,1-2.445-6.57v14.2a12.274,12.274,0,0,0,2.445,6.57,21.645,21.645,0,0,0,6.876,5.908c.726.42,1.49.815,2.267,1.184,11.74,5.6,28.79,5.6,40.543,0,.777-.369,1.528-.764,2.267-1.184a21.645,21.645,0,0,0,6.863-5.908,12.046,12.046,0,0,0,2.47-7.092V220.7a12.021,12.021,0,0,1-2.47,7.092Z" transform="translate(-372.638 18.304)"/>
        <path id="Path_547" data-name="Path 547" class="cls-3" d="M372.65,98.49V254.626a12.275,12.275,0,0,0,2.445,6.57,21.863,21.863,0,0,0,6.876,5.921c.726.42,1.49.8,2.267,1.184a42.018,42.018,0,0,0,9.652,3.145l-5.768-164.552Z" transform="translate(-372.638 -15.099)"/>
        <path id="Path_548" data-name="Path 548" class="cls-3" d="M411.781,107.009,406,271.561a42.017,42.017,0,0,0,9.652-3.145c.777-.382,1.528-.764,2.267-1.184a21.8,21.8,0,0,0,6.863-5.921,12.02,12.02,0,0,0,2.47-7.092V98.07Z" transform="translate(-363.523 -15.214)"/>
        <path id="Path_549" data-name="Path 549" class="cls-6" d="M372.65,98.49V254.626a12.275,12.275,0,0,0,2.445,6.57,21.863,21.863,0,0,0,6.876,5.921c.726.42,1.49.8,2.267,1.184a42.018,42.018,0,0,0,9.652,3.145l-5.768-164.552Z" transform="translate(-372.638 -15.099)"/>
        <path id="Path_550" data-name="Path 550" class="cls-6" d="M411.781,107.009,406,271.561a42.017,42.017,0,0,0,9.652-3.145c.777-.382,1.528-.764,2.267-1.184a21.8,21.8,0,0,0,6.863-5.921,12.02,12.02,0,0,0,2.47-7.092V98.07Z" transform="translate(-363.523 -15.214)"/>
        <path id="Path_551" data-name="Path 551" class="cls-4" d="M384.8,105.09V268.076a45.646,45.646,0,0,0,5.768,1.579,53.353,53.353,0,0,0,10.62,1.057h0a54.327,54.327,0,0,0,10.62-1.057,45.659,45.659,0,0,0,5.768-1.579V105.09Z" transform="translate(-369.317 -13.295)"/>
        <path id="Path_552" data-name="Path 552" class="cls-6" d="M406.905,60.873a11.7,11.7,0,0,1-1.6.777,13.192,13.192,0,0,1-12.4-.777c-2.547-1.452-3.642-3.413-3.349-5.323l7.334-20.539A3.209,3.209,0,0,1,399.9,33h0a3.222,3.222,0,0,1,3.03,2.012l7.258,20.17h0C410.687,57.193,409.579,59.332,406.905,60.873Z" transform="translate(-368.032 -33)"/>
        <path id="Path_553" data-name="Path 553" class="cls-6" d="M427.049,267.153c-10.7,6.176-27.1,7.029-39.4,2.547q-1.031-.357-2.025-.8l-.917-.382c-.955-.433-1.872-.9-2.738-1.4-6-3.463-9.092-7.958-9.321-12.491v38.684c-.229,4.89,2.865,9.817,9.321,13.535.764.446,1.566.866,2.394,1.273.306.153.637.267.942.407.535.229,1.057.471,1.6.675s.853.306,1.273.446.9.331,1.375.471,1.044.293,1.566.433.8.229,1.21.318,1.21.267,1.821.382a7.384,7.384,0,0,1,1.031.2c.688.127,1.388.216,2.088.318l.828.115c.777.089,1.553.153,2.33.2h.611c.853.064,1.706.089,2.547.1h3.362c.968,0,1.935-.115,2.9-.2h0a43.777,43.777,0,0,0,16.26-4.66h0c.28-.153.573-.28.853-.446,6.214-3.591,9.333-8.3,9.333-13.013V254.14C436.383,258.851,433.263,263.563,427.049,267.153Z" transform="translate(-372.641 27.444)"/>
      </g>
      <g id="freepik--Backpack--inject-1--inject-36" transform="translate(103.743 215.084)">
        <path id="Path_554" data-name="Path 554" class="cls-7" d="M120.193,309.314c-3.68-.93-23.327-12.109-25.326-13.472s-5.946-4.177-5.946-9.028c0-4.291.446-44.757,3.96-64.3a45.381,45.381,0,0,1,20.182-29.8c12.224-7.576,24.512-13.064,34.864-8.76s19.8,12.211,23.875,21.761,6.863,28.675,7.156,36.073,0,32.763,0,35.017-.407,5.182-12.542,12.733-28.892,16.553-34.074,18.883a19.788,19.788,0,0,1-12.148.891Z" transform="translate(-88.92 -174.237)"/>
        <path id="Path_555" data-name="Path 555" class="cls-8" d="M112.2,199.735c-1.121.637-4.355-.955-4.839-1.757s-.611-7.742,1.808-11.575,17.508-10.9,21.239-10.378a10.4,10.4,0,0,1,6.94,4.431c.458.98.968,7.436,0,8.761s-4.418-.713-4.724-1.273,1.133-5.284-1.273-6.265c-2.216-.891-12.733,3.578-17.012,7.169-1.859,1.566-1.77,5.45-1.681,7.373S112.76,199.4,112.2,199.735Z" transform="translate(-83.957 -175.998)"/>
        <path id="Path_556" data-name="Path 556" class="cls-8" d="M109.021,240.427c2.165-21.023,6.061-33.3,26.625-42.453s28.548-1.362,31.464,5.654c3.82,9.83,6.456,27.911,6.736,35.055.293,7.4,0,32.763,0,35.017s-.407,5.182-12.542,12.733-28.892,16.553-34.074,18.883a19.788,19.788,0,0,1-12.148.93,16.175,16.175,0,0,1-2.368-.93C106.309,297.09,107.035,259.628,109.021,240.427Z" transform="translate(-83.809 -171.13)"/>
        <path id="Path_557" data-name="Path 557" class="cls-9" d="M159.6,191.657c-5.373-3.145-14.185-5.221-27.122.548-23.124,10.3-28.994,23.2-31.324,45.84-.42,4.151-1.044,9.092-1.273,14.4l-1.91-1.159c.267-5.73.828-10.632,1.273-15.063,2.547-22.805,9.384-35.411,31.477-45.254,12.237-5.45,20.271-4.737,25.594-2.05a40.071,40.071,0,0,1,3.285,2.738Z" transform="translate(-86.446 -173.026)"/>
        <path id="Path_558" data-name="Path 558" class="cls-8" d="M160.229,192.095c-5.361-3.145-14.185-5.221-27.109.548-23.136,10.3-29.006,23.2-31.337,45.84-.42,4.151-1.044,9.092-1.273,14.4l-1.91-1.159c.267-5.73.828-10.632,1.273-15.063,2.547-22.805,9.384-35.424,31.477-45.254,12.237-5.45,20.488-4.546,25.81-1.872a35.472,35.472,0,0,1,3.069,2.559Z" transform="translate(-86.274 -172.878)"/>
        <path id="Path_559" data-name="Path 559" class="cls-9" d="M144.641,207.69l-6.991-4a1.5,1.5,0,0,0-2.037.56l-7.169,12.466a1.5,1.5,0,0,0,.535,2.05l6.9,4.024a1.5,1.5,0,0,0,2.05-.535l7.258-12.542a1.464,1.464,0,0,0-.547-2.025Z" transform="translate(-78.173 -168.482)"/>
        <path id="Path_560" data-name="Path 560" class="cls-8" d="M136.88,221.1l6.889-11.88a.739.739,0,0,0-.28-1.019l-6.367-3.616a.751.751,0,0,0-1.019.28l-6.812,11.829a.751.751,0,0,0,.28,1.019l6.252,3.654a.751.751,0,0,0,1.057-.267Z" transform="translate(-77.912 -168.212)"/>
        <path id="Path_561" data-name="Path 561" class="cls-7" d="M136.532,214.6h0a1.388,1.388,0,0,0,.662-1.044v-5.692c0-.369-.293-.484-.662-.28h0a1.388,1.388,0,0,0-.662,1.044v5.692C135.87,214.687,136.163,214.8,136.532,214.6Z" transform="translate(-76.087 -167.393)"/>
        <path id="Path_562" data-name="Path 562" class="cls-7" d="M133.632,216.279h0a1.426,1.426,0,0,0,.662-1.057v-5.679c0-.369-.306-.5-.662-.28h0a1.362,1.362,0,0,0-.662,1.044V216C133.008,216.355,133.263,216.482,133.632,216.279Z" transform="translate(-76.88 -166.935)"/>
        <path id="Path_563" data-name="Path 563" class="cls-9" d="M116.565,244.38s3.463,2.852,5.959,13.6,4,24.282,1.273,25.912-6.66-1.783-7.64-2.954C114.145,278.531,114.642,252.988,116.565,244.38Z" transform="translate(-81.828 -157.308)"/>
        <path id="Path_564" data-name="Path 564" class="cls-7" d="M116.2,249.6s3.463,2.852,5.959,13.6,4,24.282,1.273,25.912l42.02-24.779c2.75-1.63,3.425-15.853.942-26.6-1.643-7.067-4.66-10.429-6.519-11.906a2.7,2.7,0,0,0-3.018-.191L116.2,249.6" transform="translate(-81.464 -162.532)"/>
        <path id="Path_565" data-name="Path 565" class="cls-9" d="M159.007,227.061c2.012.993,5.424,3.731,6.965,11a5.463,5.463,0,0,1-1.719,5.526c-1.4.993-31.477,18.094-35.462,20.475-3.438,2.05-5.221-.675-5.972-2.381h0c-1.273-3.031-2.368-5.386-3.311-7.194a15.076,15.076,0,0,0-3.3-5.284l40.072-22.029a2.9,2.9,0,0,1,2.725-.115Z" transform="translate(-81.461 -162.12)"/>
        <path id="Path_566" data-name="Path 566" class="cls-9" d="M101.255,239.826a36.926,36.926,0,0,1,1.133,6.685c0,.458-.624.7-.8.7a8.111,8.111,0,0,1-3.9-1.986,38.493,38.493,0,0,1,1.044-5.7Z" transform="translate(-86.523 -158.636)"/>
        <path id="Path_567" data-name="Path 567" class="cls-9" d="M102.554,238.872a2.432,2.432,0,1,0-2.432,2.432A2.432,2.432,0,0,0,102.554,238.872Z" transform="translate(-86.523 -159.478)"/>
        <path id="Path_568" data-name="Path 568" class="cls-9" d="M125.4,180.387c2.661-.255,5.17,0,5.806,2.661s.407,5.093,0,5.424a6.367,6.367,0,0,1-3.591-1.706c-.306-.573,1.133-5.284-1.273-6.265a2.37,2.37,0,0,0-.917-.115Z" transform="translate(-78.949 -174.82)"/>
        <path id="Path_569" data-name="Path 569" class="cls-7" d="M157.112,225.537a2.9,2.9,0,0,1,2.738-.115c2.012.993,5.424,3.731,6.965,11a5.475,5.475,0,0,1-1.719,5.526c-1.4.993-31.464,18.094-35.449,20.475-3.438,2.05-5.233-.675-5.985-2.381h0c-4.164-8.71-7.462-10.4-7.462-10.4Z" transform="translate(-81.464 -162.569)"/>
      </g>
      <g id="freepik--game-console--inject-1--inject-36" transform="translate(122.15 337.121)">
        <path id="Path_570" data-name="Path 570" class="cls-10" d="M150.558,356.695l-33.718-19.456a6.723,6.723,0,0,1-3.031-5.246v.382a6.7,6.7,0,0,1,3.031-5.246l67.8-39.142a6.66,6.66,0,0,1,6.048,0l33.718,19.469a6.647,6.647,0,0,1,3.031,5.233v-.382a6.7,6.7,0,0,1-3.018,5.246l-67.8,39.142A6.685,6.685,0,0,1,150.558,356.695Z" transform="translate(-100.523 -267.625)"/>
        <path id="Path_571" data-name="Path 571" class="cls-11" d="M150.558,356.695l-33.718-19.456a6.723,6.723,0,0,1-3.031-5.246v.382a6.7,6.7,0,0,1,3.031-5.246l67.8-39.142a6.66,6.66,0,0,1,6.048,0l33.718,19.469a6.647,6.647,0,0,1,3.031,5.233v-.382a6.7,6.7,0,0,1-3.018,5.246l-67.8,39.142A6.685,6.685,0,0,1,150.558,356.695Z" transform="translate(-100.523 -267.625)"/>
        <path id="Path_572" data-name="Path 572" class="cls-10" d="M153.536,301.91,116.8,323.124a6.7,6.7,0,0,0-3.03,5.246v-.382a6.723,6.723,0,0,0,3.031,5.246l33.718,19.456a6.2,6.2,0,0,0,3.031.726Z" transform="translate(-100.534 -263.621)"/>
        <path id="Path_573" data-name="Path 573" class="cls-11" d="M153.536,301.91,116.8,323.124a6.7,6.7,0,0,0-3.03,5.246v-.382a6.723,6.723,0,0,0,3.031,5.246l33.718,19.456a6.2,6.2,0,0,0,3.031.726Z" transform="translate(-100.534 -263.621)"/>
        <path id="Path_574" data-name="Path 574" class="cls-10" d="M116.451,330.63,150.156,350.1a6.774,6.774,0,0,0,6.061,0l67.8-39.155c1.681-.968,1.681-2.547,0-3.489L190.3,287.986a6.659,6.659,0,0,0-6.048,0l-67.8,39.142C114.77,328.1,114.77,329.662,116.451,330.63Z" transform="translate(-100.146 -267.625)"/>
        <path id="Path_575" data-name="Path 575" class="cls-12" d="M116.451,330.63,150.156,350.1a6.774,6.774,0,0,0,6.061,0l67.8-39.155c1.681-.968,1.681-2.547,0-3.489L190.3,287.986a6.659,6.659,0,0,0-6.048,0l-67.8,39.142C114.77,328.1,114.77,329.662,116.451,330.63Z" transform="translate(-100.146 -267.625)"/>
        <path id="Path_576" data-name="Path 576" class="cls-10" d="M116.18,320.538v3.234l34.991,20.208a3.514,3.514,0,0,0,3.5,0l69.078-39.893V300.75l-70.835,34.38Z" transform="translate(-99.876 -263.938)"/>
        <path id="Path_577" data-name="Path 577" class="cls-10" d="M150.548,347.909,116.831,328.44a6.672,6.672,0,0,1-3.031-5.246v-6.227a6.672,6.672,0,0,1,3.031-5.246l67.8-39.155a6.659,6.659,0,0,1,6.048,0L224.4,292.035a6.672,6.672,0,0,1,3.031,5.246v6.239a6.481,6.481,0,0,1-3.031,5.093l-67.8,39.257a6.659,6.659,0,0,1-6.048.038Z" transform="translate(-100.526 -271.84)"/>
        <path id="Path_578" data-name="Path 578" class="cls-13" d="M150.548,347.909,116.831,328.44a6.672,6.672,0,0,1-3.031-5.246v-6.227a6.672,6.672,0,0,1,3.031-5.246l67.8-39.155a6.659,6.659,0,0,1,6.048,0L224.4,292.035a6.672,6.672,0,0,1,3.031,5.246v6.239a6.481,6.481,0,0,1-3.031,5.093l-67.8,39.257a6.659,6.659,0,0,1-6.048.038Z" transform="translate(-100.526 -271.84)"/>
        <path id="Path_579" data-name="Path 579" class="cls-10" d="M153.536,286.5,116.8,307.714a6.672,6.672,0,0,0-3.031,5.246v6.227a6.672,6.672,0,0,0,3.031,5.246L150.518,343.9a6.112,6.112,0,0,0,3.018.726Z" transform="translate(-100.534 -267.833)"/>
        <path id="Path_580" data-name="Path 580" class="cls-11" d="M153.536,286.5,116.8,307.714a6.672,6.672,0,0,0-3.031,5.246v6.227a6.672,6.672,0,0,0,3.031,5.246L150.518,343.9a6.112,6.112,0,0,0,3.018.726Z" transform="translate(-100.534 -267.833)"/>
        <path id="Path_581" data-name="Path 581" class="cls-10" d="M116.451,315.21l33.705,19.469a6.685,6.685,0,0,0,6.061,0l67.8-39.142c1.681-.968,1.681-2.547,0-3.5L190.3,272.566a6.66,6.66,0,0,0-6.048,0l-67.8,39.155C114.77,312.688,114.77,314.255,116.451,315.21Z" transform="translate(-100.146 -271.84)"/>
        <path id="Path_582" data-name="Path 582" class="cls-12" d="M116.451,315.21l33.705,19.469a6.685,6.685,0,0,0,6.061,0l67.8-39.142c1.681-.968,1.681-2.547,0-3.5L190.3,272.566a6.66,6.66,0,0,0-6.048,0l-67.8,39.155C114.77,312.688,114.77,314.255,116.451,315.21Z" transform="translate(-100.146 -271.84)"/>
        <path id="Path_583" data-name="Path 583" class="cls-10" d="M153.711,294.1c-3.731,2.165-3.731,5.641,0,7.78a15.051,15.051,0,0,0,13.523,0c3.731-2.139,3.731-5.615,0-7.78A14.974,14.974,0,0,0,153.711,294.1Z" transform="translate(-90.382 -266.197)"/>
        <path id="Path_584" data-name="Path 584" class="cls-10" d="M196.6,295.573a2.623,2.623,0,0,0-1.184,2.063c0,.764.535,1.082,1.184.713a2.623,2.623,0,0,0,1.184-2.063C197.788,295.522,197.254,295.2,196.6,295.573Z" transform="translate(-78.217 -265.395)"/>
        <path id="Path_585" data-name="Path 585" class="cls-10" d="M196.6,299.163a2.623,2.623,0,0,0-1.184,2.063c0,.764.535,1.082,1.184.713a2.547,2.547,0,0,0,1.184-2.063C197.788,299.112,197.254,298.794,196.6,299.163Z" transform="translate(-78.217 -264.413)"/>
        <path id="Path_586" data-name="Path 586" class="cls-10" d="M139.276,371.161a.93.93,0,0,1-.446-.115l-32.674-18.985a5.577,5.577,0,0,1,0-9.652l23.951-13.828a.891.891,0,0,1,.891,1.541l-23.939,13.79a3.82,3.82,0,0,0,0,6.57l32.674,18.96a.879.879,0,0,1,.318,1.273A.866.866,0,0,1,139.276,371.161Z" transform="translate(-103.376 -256.357)"/>
        <path id="Path_587" data-name="Path 587" class="cls-10" d="M174.96,354.71l-7.08-28.421a7.64,7.64,0,0,0-.395-1.146l2.063-.293-4.495-2.547h0a5.908,5.908,0,0,0-6.086.267L129.49,339.634a15.4,15.4,0,0,0-6.94,12.071v34.176c0,2.725.662,4.6,2.025,5.246h0l4.227,2.445-1.019-2.7.229-.089c4.851-2.317,6.609-6.545,8.06-10.734l5.615-16.235c1.452-4.189,5.093-8.99,8.073-10.734s7.232,0,9.423,3.82l2.827,4.94a9.219,9.219,0,0,0,3.744,3.693h0l4.3,2.547-1.1-1.706a5.016,5.016,0,0,0,2.547-.688C174.451,363.929,176.03,359.039,174.96,354.71Z" transform="translate(-98.135 -258.242)"/>
        <path id="Path_588" data-name="Path 588" class="cls-11" d="M174.96,354.71l-7.08-28.421a7.64,7.64,0,0,0-.395-1.146l2.063-.293-4.495-2.547h0a5.908,5.908,0,0,0-6.086.267L129.49,339.634a15.4,15.4,0,0,0-6.94,12.071v34.176c0,2.725.662,4.6,2.025,5.246h0l4.227,2.445-1.019-2.7.229-.089c4.851-2.317,6.609-6.545,8.06-10.734l5.615-16.235c1.452-4.189,5.093-8.99,8.073-10.734s7.232,0,9.423,3.82l2.827,4.94a9.219,9.219,0,0,0,3.744,3.693h0l4.3,2.547-1.1-1.706a5.016,5.016,0,0,0,2.547-.688C174.451,363.929,176.03,359.039,174.96,354.71Z" transform="translate(-98.135 -258.242)"/>
        <path id="Path_589" data-name="Path 589" class="cls-10" d="M166.882,325.143l2.063-.293L164.45,322.3h0a5.908,5.908,0,0,0-6.086.267l-29.478,17.063a13.549,13.549,0,0,0-4.126,4.011l7.016,4.278,35.882-20.271-.344-1.362a7.641,7.641,0,0,0-.433-1.146Z" transform="translate(-97.531 -258.242)"/>
        <path id="Path_590" data-name="Path 590" class="cls-12" d="M166.882,325.143l2.063-.293L164.45,322.3h0a5.908,5.908,0,0,0-6.086.267l-29.478,17.063a13.549,13.549,0,0,0-4.126,4.011l7.016,4.278,35.882-20.271-.344-1.362a7.641,7.641,0,0,0-.433-1.146Z" transform="translate(-97.531 -258.242)"/>
        <path id="Path_591" data-name="Path 591" class="cls-10" d="M175.026,367.787c-3.018,1.744-7.258,0-9.461-3.82l-2.814-4.941c-2.2-3.82-6.367-5.564-9.435-3.82s-6.621,6.532-8.073,10.734l-5.6,16.222c-1.452,4.189-3.222,8.417-8.073,10.734-3.667,1.757-5.437-.458-5.437-4.89v-34.2a15.407,15.407,0,0,1,6.952-12.058l29.529-17.126a5.7,5.7,0,0,1,8.913,3.82l7.08,28.433C179.648,361.128,178.056,366.043,175.026,367.787Z" transform="translate(-97.156 -257.695)"/>
        <path id="Path_592" data-name="Path 592" class="cls-13" d="M175.026,367.787c-3.018,1.744-7.258,0-9.461-3.82l-2.814-4.941c-2.2-3.82-6.367-5.564-9.435-3.82s-6.621,6.532-8.073,10.734l-5.6,16.222c-1.452,4.189-3.222,8.417-8.073,10.734-3.667,1.757-5.437-.458-5.437-4.89v-34.2a15.407,15.407,0,0,1,6.952-12.058l29.529-17.126a5.7,5.7,0,0,1,8.913,3.82l7.08,28.433C179.648,361.128,178.056,366.043,175.026,367.787Z" transform="translate(-97.156 -257.695)"/>
        <path id="Path_593" data-name="Path 593" class="cls-9" d="M156.781,332.13l.739,4.189,3.272-2.088.726,4.189-3.26,2.1L159,344.71l-3.26,2.088L155,342.609l-3.26,2.1-.739-4.2,3.26-2.088-.739-4.189Z" transform="translate(-90.358 -255.361)"/>
        <path id="Path_594" data-name="Path 594" class="cls-10" d="M157.521,332.52l.739,4.189,3.26-2.088.739,4.189-3.26,2.1.739,4.189-3.26,2.088L155.738,343l-3.26,2.088-.739-4.189L155,338.81l-.739-4.189Z" transform="translate(-90.156 -255.254)"/>
        <path id="Path_595" data-name="Path 595" class="cls-9" d="M136.851,344.059a3.349,3.349,0,0,1-1.273,3.145c-.9.573-1.8.1-2-1.057A3.311,3.311,0,0,1,134.852,343C135.743,342.429,136.673,342.9,136.851,344.059Z" transform="translate(-95.131 -252.455)"/>
        <path id="Path_596" data-name="Path 596" class="cls-9" d="M138.011,350.638a3.311,3.311,0,0,1-1.273,3.145c-.9.573-1.8.1-2-1.044a3.3,3.3,0,0,1,1.273-3.145C136.9,349.008,137.807,349.479,138.011,350.638Z" transform="translate(-94.814 -250.656)"/>
        <path id="Path_597" data-name="Path 597" class="cls-9" d="M139.991,345.7a3.3,3.3,0,0,1-1.273,3.145c-.9.586-1.8.115-2-1.044a3.3,3.3,0,0,1,1.273-3.145C138.9,344.08,139.787,344.538,139.991,345.7Z" transform="translate(-94.273 -252.005)"/>
        <path id="Path_598" data-name="Path 598" class="cls-9" d="M134.871,348.987a3.3,3.3,0,0,1-1.273,3.145c-.9.586-1.8.115-2-1.044a3.311,3.311,0,0,1,1.273-3.145C133.776,347.37,134.667,347.828,134.871,348.987Z" transform="translate(-95.672 -251.106)"/>
        <path id="Path_599" data-name="Path 599" class="cls-9" d="M136.9,344.088a3.311,3.311,0,0,1-1.273,3.145c-.9.573-1.8.115-2-1.044a3.3,3.3,0,0,1,1.273-3.145C135.806,342.458,136.659,342.929,136.9,344.088Z" transform="translate(-95.117 -252.446)"/>
        <path id="Path_600" data-name="Path 600" class="cls-9" d="M138.061,350.667a3.3,3.3,0,0,1-1.273,3.145c-.9.586-1.8.115-2-1.044a3.3,3.3,0,0,1,1.273-3.145C136.966,349.05,137.857,349.508,138.061,350.667Z" transform="translate(-94.8 -250.647)"/>
        <path id="Path_601" data-name="Path 601" class="cls-9" d="M140.04,345.739a3.3,3.3,0,0,1-1.273,3.132c-.891.586-1.8.115-2-1.044a3.336,3.336,0,0,1,1.273-3.145C138.945,344.109,139.837,344.58,140.04,345.739Z" transform="translate(-94.259 -251.996)"/>
        <path id="Path_602" data-name="Path 602" class="cls-9" d="M134.92,349.029a3.311,3.311,0,0,1-1.273,3.145c-.891.573-1.8.1-2-1.057a3.349,3.349,0,0,1,1.273-3.145C133.825,347.4,134.716,347.87,134.92,349.029Z" transform="translate(-95.658 -251.097)"/>
        <path id="Path_603" data-name="Path 603" class="cls-9" d="M136.95,344.117a3.3,3.3,0,0,1-1.273,3.145c-.891.586-1.8.115-2-1.044a3.336,3.336,0,0,1,1.273-3.145C135.855,342.5,136.747,342.958,136.95,344.117Z" transform="translate(-95.103 -252.437)"/>
        <path id="Path_604" data-name="Path 604" class="cls-9" d="M138.11,350.709a3.3,3.3,0,0,1-1.273,3.132c-.891.586-1.8.115-2-1.044a3.336,3.336,0,0,1,1.273-3.145C137.015,349.079,137.907,349.55,138.11,350.709Z" transform="translate(-94.786 -250.638)"/>
        <path id="Path_605" data-name="Path 605" class="cls-9" d="M140.1,345.768a3.336,3.336,0,0,1-1.273,3.145c-.9.573-1.8.1-2-1.044a3.3,3.3,0,0,1,1.273-3.145C138.993,344.138,139.9,344.609,140.1,345.768Z" transform="translate(-94.243 -251.987)"/>
        <path id="Path_606" data-name="Path 606" class="cls-9" d="M134.981,349.058a3.336,3.336,0,0,1-1.273,3.145c-.9.573-1.8.115-2-1.044a3.3,3.3,0,0,1,1.273-3.145C133.873,347.428,134.777,347.9,134.981,349.058Z" transform="translate(-95.642 -251.088)"/>
        <path id="Path_607" data-name="Path 607" class="cls-9" d="M137.011,344.157a3.336,3.336,0,0,1-1.273,3.145c-.9.573-1.8.1-2-1.057a3.3,3.3,0,0,1,1.273-3.132C135.9,342.527,136.807,343.036,137.011,344.157Z" transform="translate(-95.087 -252.426)"/>
        <path id="Path_608" data-name="Path 608" class="cls-9" d="M138.171,350.738a3.336,3.336,0,0,1-1.273,3.145c-.9.573-1.8.115-2-1.044a3.3,3.3,0,0,1,1.273-3.145C137.063,349.108,137.967,349.579,138.171,350.738Z" transform="translate(-94.77 -250.629)"/>
        <path id="Path_609" data-name="Path 609" class="cls-9" d="M140.151,345.8a3.3,3.3,0,0,1-1.273,3.145c-.9.586-1.8.115-2-1.044a3.311,3.311,0,0,1,1.273-3.145C139.056,344.18,139.947,344.638,140.151,345.8Z" transform="translate(-94.229 -251.978)"/>
        <path id="Path_610" data-name="Path 610" class="cls-9" d="M135.031,349.087a3.3,3.3,0,0,1-1.273,3.145c-.9.586-1.8.115-2-1.044a3.311,3.311,0,0,1,1.273-3.145C133.936,347.47,134.827,347.928,135.031,349.087Z" transform="translate(-95.628 -251.078)"/>
        <path id="Path_611" data-name="Path 611" class="cls-9" d="M137.061,344.188a3.311,3.311,0,0,1-1.273,3.145c-.9.573-1.8.115-2-1.044a3.3,3.3,0,0,1,1.273-3.145C135.966,342.558,136.857,343.029,137.061,344.188Z" transform="translate(-95.074 -252.419)"/>
        <path id="Path_612" data-name="Path 612" class="cls-9" d="M138.221,350.767a3.3,3.3,0,0,1-1.273,3.145c-.9.586-1.8.115-2-1.044a3.311,3.311,0,0,1,1.273-3.145C137.126,349.15,138.017,349.608,138.221,350.767Z" transform="translate(-94.756 -250.619)"/>
        <path id="Path_613" data-name="Path 613" class="cls-9" d="M140.2,345.839a3.323,3.323,0,0,1-1.273,3.145c-.9.573-1.8.1-2-1.057a3.311,3.311,0,0,1,1.273-3.145C139.106,344.209,140,344.68,140.2,345.839Z" transform="translate(-94.215 -251.969)"/>
        <path id="Path_614" data-name="Path 614" class="cls-9" d="M135.08,349.128a3.311,3.311,0,0,1-1.273,3.145c-.891.573-1.8.1-2-1.057a3.323,3.323,0,0,1,1.273-3.132C133.985,347.5,134.877,347.969,135.08,349.128Z" transform="translate(-95.614 -251.069)"/>
        <path id="Path_615" data-name="Path 615" class="cls-9" d="M137.11,344.219a3.3,3.3,0,0,1-1.273,3.145c-.891.586-1.8.115-2-1.044a3.336,3.336,0,0,1,1.273-3.145C136.015,342.6,136.907,343.022,137.11,344.219Z" transform="translate(-95.059 -252.411)"/>
        <path id="Path_616" data-name="Path 616" class="cls-9" d="M138.27,350.809A3.323,3.323,0,0,1,137,353.954c-.891.573-1.8.1-2-1.057a3.336,3.336,0,0,1,1.273-3.145C137.175,349.179,138.067,349.65,138.27,350.809Z" transform="translate(-94.742 -250.61)"/>
        <path id="Path_617" data-name="Path 617" class="cls-9" d="M140.251,345.868a3.311,3.311,0,0,1-1.273,3.145c-.891.573-1.8.115-2-1.044a3.323,3.323,0,0,1,1.273-3.145C139.156,344.238,140.047,344.709,140.251,345.868Z" transform="translate(-94.201 -251.96)"/>
        <path id="Path_618" data-name="Path 618" class="cls-9" d="M135.141,349.157a3.336,3.336,0,0,1-1.273,3.145c-.9.573-1.8.115-2-1.044a3.3,3.3,0,0,1,1.273-3.145C134.033,347.527,134.937,348.036,135.141,349.157Z" transform="translate(-95.598 -251.059)"/>
        <path id="Path_619" data-name="Path 619" class="cls-9" d="M137.171,344.282a3.336,3.336,0,0,1-1.273,3.145c-.9.573-1.8.1-2-1.044a3.3,3.3,0,0,1,1.273-3.145C136.063,342.626,136.967,343.1,137.171,344.282Z" transform="translate(-95.044 -252.398)"/>
        <path id="Path_620" data-name="Path 620" class="cls-9" d="M138.331,350.838a3.336,3.336,0,0,1-1.273,3.145c-.9.573-1.8.115-2-1.044a3.3,3.3,0,0,1,1.273-3.145C137.223,349.208,138.127,349.679,138.331,350.838Z" transform="translate(-94.727 -250.601)"/>
        <path id="Path_621" data-name="Path 621" class="cls-9" d="M140.311,345.9a3.323,3.323,0,0,1-1.273,3.145c-.9.586-1.8.115-2-1.044a3.311,3.311,0,0,1,1.273-3.145C139.2,344.28,140.107,344.738,140.311,345.9Z" transform="translate(-94.185 -251.95)"/>
        <path id="Path_622" data-name="Path 622" class="cls-9" d="M135.191,349.187a3.3,3.3,0,0,1-1.273,3.145c-.9.586-1.8.115-2-1.044a3.311,3.311,0,0,1,1.273-3.145C134.1,347.57,134.987,348.028,135.191,349.187Z" transform="translate(-95.585 -251.051)"/>
        <path id="Path_623" data-name="Path 623" class="cls-9" d="M137.221,344.277a3.3,3.3,0,0,1-1.273,3.145c-.9.586-1.8.115-2-1.044a3.3,3.3,0,0,1,1.273-3.145C136.126,342.659,137.017,343.131,137.221,344.277Z" transform="translate(-95.03 -252.393)"/>
        <path id="Path_624" data-name="Path 624" class="cls-9" d="M138.381,350.867a3.3,3.3,0,0,1-1.273,3.145c-.9.586-1.8.115-2-1.044a3.31,3.31,0,0,1,1.273-3.145C137.286,349.25,138.177,349.708,138.381,350.867Z" transform="translate(-94.713 -250.592)"/>
        <path id="Path_625" data-name="Path 625" class="cls-9" d="M140.361,345.938a3.311,3.311,0,0,1-1.273,3.145c-.9.573-1.8.1-2-1.057a3.3,3.3,0,0,1,1.273-3.132C139.266,344.308,140.157,344.779,140.361,345.938Z" transform="translate(-94.171 -251.941)"/>
        <path id="Path_626" data-name="Path 626" class="cls-9" d="M135.241,349.289a3.311,3.311,0,0,1-1.273,3.145c-.891.573-1.8.1-2-1.044a3.3,3.3,0,0,1,1.273-3.145C134.146,347.6,135.037,348.016,135.241,349.289Z" transform="translate(-95.571 -251.038)"/>
        <path id="Path_627" data-name="Path 627" class="cls-9" d="M137.271,344.329A3.3,3.3,0,0,1,136,347.462c-.9.586-1.8.115-2-1.044a3.311,3.311,0,0,1,1.273-3.145C136.176,342.7,137.067,343.17,137.271,344.329Z" transform="translate(-95.016 -252.382)"/>
        <path id="Path_628" data-name="Path 628" class="cls-9" d="M138.431,350.908a3.311,3.311,0,0,1-1.273,3.145c-.891.573-1.8.1-2-1.057a3.3,3.3,0,0,1,1.273-3.132C137.336,349.278,138.227,349.749,138.431,350.908Z" transform="translate(-94.699 -250.582)"/>
        <path id="Path_629" data-name="Path 629" class="cls-9" d="M140.411,345.968a3.311,3.311,0,0,1-1.273,3.145c-.891.573-1.8.115-2-1.044a3.323,3.323,0,0,1,1.273-3.145C139.316,344.338,140.207,344.809,140.411,345.968Z" transform="translate(-94.158 -251.932)"/>
        <path id="Path_630" data-name="Path 630" class="cls-9" d="M135.291,349.282a3.3,3.3,0,0,1-1.273,3.145c-.891.586-1.783.115-2-1.044a3.323,3.323,0,0,1,1.273-3.145C134.2,347.626,135.087,348.1,135.291,349.282Z" transform="translate(-95.557 -251.031)"/>
        <path id="Path_631" data-name="Path 631" class="cls-9" d="M137.321,344.358a3.311,3.311,0,0,1-1.273,3.145c-.891.573-1.8.1-2-1.044a3.323,3.323,0,0,1,1.273-3.145C136.226,342.728,137.117,343.2,137.321,344.358Z" transform="translate(-95.002 -252.372)"/>
        <path id="Path_632" data-name="Path 632" class="cls-9" d="M138.478,350.938a3.311,3.311,0,0,1-1.273,3.145c-.891.573-1.783.115-1.986-1.044a3.3,3.3,0,0,1,1.273-3.145C137.383,349.308,138.275,349.779,138.478,350.938Z" transform="translate(-94.683 -250.574)"/>
        <path id="Path_633" data-name="Path 633" class="cls-9" d="M140.471,346a3.323,3.323,0,0,1-1.273,3.145c-.9.586-1.8.115-2-1.044a3.311,3.311,0,0,1,1.273-3.145C139.363,344.379,140.267,344.851,140.471,346Z" transform="translate(-94.141 -251.923)"/>
        <path id="Path_634" data-name="Path 634" class="cls-9" d="M135.351,349.276a3.323,3.323,0,0,1-1.273,3.132c-.9.586-1.8.115-2-1.044a3.311,3.311,0,0,1,1.273-3.145C134.243,347.671,135.147,348.143,135.351,349.276Z" transform="translate(-95.541 -251.025)"/>
        <path id="Path_635" data-name="Path 635" class="cls-9" d="M137.381,344.387a3.323,3.323,0,0,1-1.273,3.145c-.9.586-1.8.115-2-1.044a3.311,3.311,0,0,1,1.273-3.145C136.273,342.77,137.177,343.228,137.381,344.387Z" transform="translate(-94.986 -252.363)"/>
        <path id="Path_636" data-name="Path 636" class="cls-9" d="M138.541,350.967a3.323,3.323,0,0,1-1.273,3.145c-.9.586-1.8.115-2-1.044a3.311,3.311,0,0,1,1.273-3.145C137.484,349.349,138.337,349.82,138.541,350.967Z" transform="translate(-94.669 -250.564)"/>
        <path id="Path_637" data-name="Path 637" class="cls-9" d="M140.521,346.038a3.311,3.311,0,0,1-1.273,3.145c-.9.573-1.8.1-2-1.044a3.3,3.3,0,0,1,1.273-3.145C139.49,344.408,140.317,344.88,140.521,346.038Z" transform="translate(-94.128 -251.913)"/>
        <path id="Path_638" data-name="Path 638" class="cls-9" d="M135.4,349.328a3.311,3.311,0,0,1-1.273,3.145c-.9.573-1.8.1-2-1.044a3.3,3.3,0,0,1,1.273-3.145C134.306,347.7,135.2,348.17,135.4,349.328Z" transform="translate(-95.527 -251.014)"/>
        <path id="Path_639" data-name="Path 639" class="cls-9" d="M137.431,344.429a3.323,3.323,0,0,1-1.273,3.145c-.9.573-1.8.1-2-1.057a3.311,3.311,0,0,1,1.273-3.145C136.336,342.8,137.227,343.27,137.431,344.429Z" transform="translate(-94.972 -252.354)"/>
        <path id="Path_640" data-name="Path 640" class="cls-9" d="M138.591,351.008a3.311,3.311,0,0,1-1.273,3.145c-.9.573-1.8.1-2-1.044a3.3,3.3,0,0,1,1.273-3.145C137.471,349.378,138.387,349.849,138.591,351.008Z" transform="translate(-94.656 -250.555)"/>
        <path id="Path_641" data-name="Path 641" class="cls-9" d="M140.571,346.068a3.3,3.3,0,0,1-1.273,3.145c-.891.586-1.8.115-2-1.044a3.323,3.323,0,0,1,1.273-3.145C139.476,344.438,140.367,344.909,140.571,346.068Z" transform="translate(-94.114 -251.905)"/>
        <path id="Path_642" data-name="Path 642" class="cls-9" d="M135.45,349.357a3.3,3.3,0,0,1-1.273,3.145c-.891.586-1.8.115-2-1.044a3.336,3.336,0,0,1,1.273-3.145C134.355,347.74,135.247,348.2,135.45,349.357Z" transform="translate(-95.513 -251.005)"/>
        <path id="Path_643" data-name="Path 643" class="cls-9" d="M156.24,332.13l.942.5-3.26,2.1-.942-.5Z" transform="translate(-89.817 -255.361)"/>
        <path id="Path_644" data-name="Path 644" class="cls-9" d="M154.26,337.07l.942.5-3.26,2.088-.942-.5Z" transform="translate(-90.358 -254.01)"/>
        <path id="Path_645" data-name="Path 645" class="cls-9" d="M156.9,336.365l-.178-.98,2.508-1.6.93.5Z" transform="translate(-88.795 -254.91)"/>
        <path id="Path_646" data-name="Path 646" class="cls-9" d="M151,338.71l.942.5.739,4.189-.942-.484Z" transform="translate(-90.358 -253.562)"/>
        <path id="Path_647" data-name="Path 647" class="cls-9" d="M154.84,344.443l.942.5-.739-4.189-.764.5Z" transform="translate(-89.462 -253.004)"/>
        <path id="Path_648" data-name="Path 648" class="cls-10" d="M137.431,344.429a3.323,3.323,0,0,1-1.273,3.145c-.9.573-1.8.1-2-1.057a3.311,3.311,0,0,1,1.273-3.145C136.336,342.8,137.227,343.27,137.431,344.429Z" transform="translate(-94.972 -252.354)"/>
        <path id="Path_649" data-name="Path 649" class="cls-10" d="M138.591,351.008a3.311,3.311,0,0,1-1.273,3.145c-.9.573-1.8.1-2-1.044a3.3,3.3,0,0,1,1.273-3.145C137.471,349.378,138.387,349.849,138.591,351.008Z" transform="translate(-94.656 -250.555)"/>
        <path id="Path_650" data-name="Path 650" class="cls-10" d="M140.571,346.068a3.3,3.3,0,0,1-1.273,3.145c-.891.586-1.8.115-2-1.044a3.323,3.323,0,0,1,1.273-3.145C139.476,344.438,140.367,344.909,140.571,346.068Z" transform="translate(-94.114 -251.905)"/>
        <path id="Path_651" data-name="Path 651" class="cls-10" d="M135.45,349.357a3.3,3.3,0,0,1-1.273,3.145c-.891.586-1.8.115-2-1.044a3.336,3.336,0,0,1,1.273-3.145C134.355,347.74,135.247,348.2,135.45,349.357Z" transform="translate(-95.513 -251.005)"/>
      </g>
      <g id="freepik--Cloud--inject-1--inject-36" transform="translate(115.636 65.918)">
        <path id="Path_652" data-name="Path 652" class="cls-14" d="M178.556,66.286,164.868,74.18a14.515,14.515,0,0,0,.115-1.808v-3.96c0-7.054-4.953-9.919-11.052-6.367a21.188,21.188,0,0,0-6.6,6.367c-1.006-8.913-7.958-12.173-16.413-7.3-9.143,5.284-16.553,18.119-16.553,28.663v5.934a15.687,15.687,0,0,0,1.4,6.876L104.4,109.146a13.586,13.586,0,0,0-6.137,10.632c0,3.909,2.75,5.5,6.137,3.54l74.159-42.809a13.586,13.586,0,0,0,6.137-10.632C184.694,65.916,181.969,64.325,178.556,66.286Z" transform="translate(-98.26 -58.852)"/>
      </g>
      <g id="freepik--Character--inject-1--inject-36" transform="translate(214.625 101.571)">
        <path id="Path_653" data-name="Path 653" class="cls-6" d="M385.217,344.594l-2.547-1.439,1.808-.815s1.413.382,1.452.446a7.253,7.253,0,0,1-.1.98Z" transform="translate(-119.511 -17.019)"/>
        <path id="Path_654" data-name="Path 654" class="cls-10" d="M385.217,344.594l-2.547-1.439,1.808-.815s1.413.382,1.452.446a7.253,7.253,0,0,1-.1.98Z" transform="translate(-119.511 -17.019)"/>
        <path id="Path_655" data-name="Path 655" class="cls-15" d="M385.217,344.594l-2.547-1.439,1.808-.815s1.413.382,1.452.446a7.253,7.253,0,0,1-.1.98Z" transform="translate(-119.511 -17.019)"/>
        <path id="Path_656" data-name="Path 656" class="cls-10" d="M335.86,407.219a8.06,8.06,0,0,0,7.283,0l81.671-47.113-122.24-70.593-2.852-1.643-81.671,47.113c-2,1.159-2,3.056,0,4.2Z" transform="translate(-164.916 -31.908)"/>
        <path id="Path_657" data-name="Path 657" class="cls-16" d="M335.86,407.219a8.06,8.06,0,0,0,7.283,0l81.671-47.113-122.24-70.593-2.852-1.643-81.671,47.113c-2,1.159-2,3.056,0,4.2Z" transform="translate(-164.916 -31.908)"/>
        <path id="Path_658" data-name="Path 658" class="cls-6" d="M336.488,311.64l28.484,16.388,18.438-10.645,21.4,12.4V345.2c0,1.872-2.1,4.533-2.865,4.1a21.14,21.14,0,0,0-4.1,1.452,30.776,30.776,0,0,0-5.921,4.38l-65.449-37.78Z" transform="translate(-134.869 -25.41)"/>
        <path id="Path_659" data-name="Path 659" class="cls-10" d="M336.488,311.64l28.484,16.388,18.438-10.645,21.4,12.4V345.2c0,1.872-2.1,4.533-2.865,4.1a21.14,21.14,0,0,0-4.1,1.452,30.776,30.776,0,0,0-5.921,4.38l-65.449-37.78Z" transform="translate(-134.869 -25.41)"/>
        <path id="Path_660" data-name="Path 660" class="cls-15" d="M336.488,311.64l28.484,16.388,18.438-10.645,21.4,12.4V345.2c0,1.872-2.1,4.533-2.865,4.1a21.14,21.14,0,0,0-4.1,1.452,30.776,30.776,0,0,0-5.921,4.38l-65.449-37.78Z" transform="translate(-134.869 -25.41)"/>
        <path id="Path_661" data-name="Path 661" class="cls-10" d="M316.779,393.928l4.928-2.852,73.942-42.682a4.711,4.711,0,0,1,1.006-2.648,10.7,10.7,0,0,1,3.234-2.852,7.424,7.424,0,0,1,3.489-1.082,3.718,3.718,0,0,1,2.292.751,12.568,12.568,0,0,0,1.362-6.112h2.8c0,3.82-1.273,7.742-2.84,8.633l-1.413.828c-.8.458-1.439.484-1.439,0v-.751c0-.84-1.273-.8-2.852.115s-2.84,2.317-2.84,3.158v.764c0,.433-1.1,1.4-2.419,2.165l-71.51,41.294-7.742,4.457h0a7.64,7.64,0,0,1-3.629.853V394.73a7.271,7.271,0,0,0,3.629-.8Z" transform="translate(-138.513 -18.629)"/>
        <path id="Path_662" data-name="Path 662" class="cls-17" d="M316.779,393.928l4.928-2.852,73.942-42.682a4.711,4.711,0,0,1,1.006-2.648,10.7,10.7,0,0,1,3.234-2.852,7.424,7.424,0,0,1,3.489-1.082,3.718,3.718,0,0,1,2.292.751,12.568,12.568,0,0,0,1.362-6.112h2.8c0,3.82-1.273,7.742-2.84,8.633l-1.413.828c-.8.458-1.439.484-1.439,0v-.751c0-.84-1.273-.8-2.852.115s-2.84,2.317-2.84,3.158v.764c0,.433-1.1,1.4-2.419,2.165l-71.51,41.294-7.742,4.457h0a7.64,7.64,0,0,1-3.629.853V394.73a7.271,7.271,0,0,0,3.629-.8Z" transform="translate(-138.513 -18.629)"/>
        <path id="Path_663" data-name="Path 663" class="cls-10" d="M216.53,326.47v3.3a2.547,2.547,0,0,0,1.452,2.063h0l110.1,63.565,7.729,4.457h0a7.641,7.641,0,0,0,3.629.853v-3.234a7.271,7.271,0,0,1-3.642-.879l-4.915-2.84h0L217.982,328.545A2.547,2.547,0,0,1,216.53,326.47Z" transform="translate(-164.922 -21.357)"/>
        <path id="Path_664" data-name="Path 664" class="cls-15" d="M216.53,326.47v3.3a2.547,2.547,0,0,0,1.452,2.063h0l110.1,63.565,7.729,4.457h0a7.641,7.641,0,0,0,3.629.853v-3.234a7.271,7.271,0,0,1-3.642-.879l-4.915-2.84h0L217.982,328.545A2.547,2.547,0,0,1,216.53,326.47Z" transform="translate(-164.922 -21.357)"/>
        <path id="Path_665" data-name="Path 665" class="cls-18" d="M313.11,375.024v18.9a4.788,4.788,0,0,0,2.419-.573l8.913-5.17,68.238-39.4V329.07Z" transform="translate(-138.524 -20.646)"/>
        <path id="Path_666" data-name="Path 666" class="cls-14" d="M219.32,312.86v14.529a5.361,5.361,0,0,0,2.419,4.2l105.686,60.992,8.913,5.17a4.826,4.826,0,0,0,2.419.573V381.454Z" transform="translate(-164.159 -25.077)"/>
        <path id="Path_667" data-name="Path 667" class="cls-8" d="M375.64,350a4.787,4.787,0,0,1,1.031-2.648,10.822,10.822,0,0,1,3.234-2.84,7.245,7.245,0,0,1,3.476-1.1,3.82,3.82,0,0,1,2.3.751V324.5l-10.021,5.794Z" transform="translate(-121.433 -21.895)"/>
        <path id="Path_668" data-name="Path 668" class="cls-3" d="M379.651,343.242a10.187,10.187,0,0,0-2.98,2.674,4.788,4.788,0,0,0-1.031,2.648V329.77h4Z" transform="translate(-121.433 -20.455)"/>
        <path id="Path_669" data-name="Path 669" class="cls-10" d="M284.09,272.03l122.24,70.593v1.643c0,.9,1.273,1.273,2.84.331s2.852-2.037,2.852-3.6l.153-1.553L287.6,267.523l-.5-.293a1.681,1.681,0,0,0-.216.751v.764C286.917,269.688,285.656,271.152,284.09,272.03Z" transform="translate(-146.456 -37.549)"/>
        <path id="Path_670" data-name="Path 670" class="cls-17" d="M284.09,272.03l122.24,70.593v1.643c0,.9,1.273,1.273,2.84.331s2.852-2.037,2.852-3.6l.153-1.553L287.6,267.523l-.5-.293a1.681,1.681,0,0,0-.216.751v.764C286.917,269.688,285.656,271.152,284.09,272.03Z" transform="translate(-146.456 -37.549)"/>
        <path id="Path_671" data-name="Path 671" class="cls-10" d="M343.165,389l79.863-46.12c1.006-.522,1.936-.955,2.33-.751l-.522-.293L302.6,271.246l-1.426-.828a4.673,4.673,0,0,0-3.82.573l-79.239,45.763c-2,1.159-2,3.043,0,4.2L335.946,389a8.06,8.06,0,0,0,7.22,0Z" transform="translate(-164.899 -36.726)"/>
        <path id="Path_672" data-name="Path 672" class="cls-16" d="M343.165,389l79.863-46.12c1.006-.522,1.936-.955,2.33-.751l-.522-.293L302.6,271.246l-1.426-.828a4.673,4.673,0,0,0-3.82.573l-79.239,45.763c-2,1.159-2,3.043,0,4.2L335.946,389a8.06,8.06,0,0,0,7.22,0Z" transform="translate(-164.899 -36.726)"/>
        <path id="Path_673" data-name="Path 673" class="cls-10" d="M286.48,267.751l.5.293L411.546,340a1.007,1.007,0,0,1,.267-.344l.42-.242.9-.509,1.108-.649a1.133,1.133,0,0,1,1.413.127.637.637,0,0,1,.14.127,2.013,2.013,0,0,1,.369.522,3.567,3.567,0,0,1,.331.7,6.616,6.616,0,0,1,.242.8c.076.318.127.624.191.955a4.149,4.149,0,0,1,.064.573v-1.948a7.461,7.461,0,0,0-3.642-5.59L295.508,266.478a7.309,7.309,0,0,0-6.481-.471l-1.49.866h0l-.637.357h0a1.273,1.273,0,0,0-.42.522Z" transform="translate(-145.803 -38.032)"/>
        <path id="Path_674" data-name="Path 674" class="cls-16" d="M286.48,267.751l.5.293L411.546,340a1.007,1.007,0,0,1,.267-.344l.42-.242.9-.509,1.108-.649a1.133,1.133,0,0,1,1.413.127.637.637,0,0,1,.14.127,2.013,2.013,0,0,1,.369.522,3.567,3.567,0,0,1,.331.7,6.616,6.616,0,0,1,.242.8c.076.318.127.624.191.955a4.149,4.149,0,0,1,.064.573v-1.948a7.461,7.461,0,0,0-3.642-5.59L295.508,266.478a7.309,7.309,0,0,0-6.481-.471l-1.49.866h0l-.637.357h0a1.273,1.273,0,0,0-.42.522Z" transform="translate(-145.803 -38.032)"/>
        <path id="Path_675" data-name="Path 675" class="cls-10" d="M316.765,374.753h0l4.941-2.865,56.8-32.775,18.132-10.467c1.273-.764,2.343-1.031,2.407-.637h0v.815c0,.917,1.273.917,2.84,0a3.82,3.82,0,0,0,2.241-2.852v-.891a1.274,1.274,0,0,1,.42-1.07l.42-.242.9-.509,1.108-.649a1.133,1.133,0,0,1,1.413.127.635.635,0,0,1,.14.127,1.578,1.578,0,0,1,.242.331.623.623,0,0,1,.127.191,3.566,3.566,0,0,1,.331.7,6.611,6.611,0,0,1,.242.8c.076.318.127.624.191.955a4.153,4.153,0,0,1,.064.573v13.828h-2.8V327.106l-.076-.7a.114.114,0,0,0,0-.064c-.255,2.228-2.381,4.215-4.227,5.259a6.977,6.977,0,0,1-3.413,1.07,3.82,3.82,0,0,1-2.547-.93l-.255.14-.484.293-71.51,41.294-7.653,4.508h0a7.551,7.551,0,0,1-3.565.828v-3.234A7.513,7.513,0,0,0,316.765,374.753Z" transform="translate(-138.499 -22.464)"/>
        <path id="Path_676" data-name="Path 676" class="cls-17" d="M316.765,374.753h0l4.941-2.865,56.8-32.775,18.132-10.467c1.273-.764,2.343-1.031,2.407-.637h0v.815c0,.917,1.273.917,2.84,0a3.82,3.82,0,0,0,2.241-2.852v-.891a1.274,1.274,0,0,1,.42-1.07l.42-.242.9-.509,1.108-.649a1.133,1.133,0,0,1,1.413.127.635.635,0,0,1,.14.127,1.578,1.578,0,0,1,.242.331.623.623,0,0,1,.127.191,3.566,3.566,0,0,1,.331.7,6.611,6.611,0,0,1,.242.8c.076.318.127.624.191.955a4.153,4.153,0,0,1,.064.573v13.828h-2.8V327.106l-.076-.7a.114.114,0,0,0,0-.064c-.255,2.228-2.381,4.215-4.227,5.259a6.977,6.977,0,0,1-3.413,1.07,3.82,3.82,0,0,1-2.547-.93l-.255.14-.484.293-71.51,41.294-7.653,4.508h0a7.551,7.551,0,0,1-3.565.828v-3.234A7.513,7.513,0,0,0,316.765,374.753Z" transform="translate(-138.499 -22.464)"/>
        <path id="Path_677" data-name="Path 677" class="cls-10" d="M216.53,308.39v3.323a2.547,2.547,0,0,0,1.452,2.076h0l110.1,63.565,7.729,4.469h0a7.64,7.64,0,0,0,3.629.853v-3.234a7.41,7.41,0,0,1-3.642-.866l-4.915-2.839h0L217.982,310.529A2.547,2.547,0,0,1,216.53,308.39Z" transform="translate(-164.922 -26.299)"/>
        <path id="Path_678" data-name="Path 678" class="cls-15" d="M216.53,308.39v3.323a2.547,2.547,0,0,0,1.452,2.076h0l110.1,63.565,7.729,4.469h0a7.64,7.64,0,0,0,3.629.853v-3.234a7.41,7.41,0,0,1-3.642-.866l-4.915-2.839h0L217.982,310.529A2.547,2.547,0,0,1,216.53,308.39Z" transform="translate(-164.922 -26.299)"/>
        <path id="Path_679" data-name="Path 679" class="cls-9" d="M295.246,272.294a4.673,4.673,0,0,1,3.82-.573l1.426.828c1.566-.917,2.827-2.381,2.827-3.285V268.5a1.68,1.68,0,0,1,.216-.751,1.273,1.273,0,0,1,.446-.509h0l.637-.357h0l1.49-.866a7.309,7.309,0,0,1,6.481.471l117.847,68.047.127.076L347.4,382.628a5.335,5.335,0,0,1-4.851,0L223.94,313.474Z" transform="translate(-162.897 -38.029)"/>
        <path id="Path_680" data-name="Path 680" class="cls-10" d="M326.805,352.449l-3.145-1.808a5.093,5.093,0,0,1,2.636-.191C327.136,350.883,326.805,352.449,326.805,352.449Z" transform="translate(-135.64 -14.828)"/>
        <path id="Path_681" data-name="Path 681" class="cls-11" d="M326.805,352.449l-3.145-1.808a5.093,5.093,0,0,1,2.636-.191C327.136,350.883,326.805,352.449,326.805,352.449Z" transform="translate(-135.64 -14.828)"/>
        <path id="Path_682" data-name="Path 682" class="cls-10" d="M330.273,354.1a3.82,3.82,0,0,0-5.615,0c-3.069,2.814-3.222,5.6-4.495,5.564s-1.273-22.474-1.273-22.474L331,348.408Z" transform="translate(-136.944 -18.427)"/>
        <path id="Path_683" data-name="Path 683" class="cls-11" d="M330.273,354.1a3.82,3.82,0,0,0-5.615,0c-3.069,2.814-3.222,5.6-4.495,5.564s-1.273-22.474-1.273-22.474L331,348.408Z" transform="translate(-136.944 -18.427)"/>
        <path id="Path_684" data-name="Path 684" class="cls-10" d="M228.454,297.017l-.2-.115,1.935-1.121,83.378-48.132,121.488,78.615c2,1.159,2.356,2.84.789,3.731L433,331.639,355.073,376.7l-.56-.407Z" transform="translate(-161.718 -42.901)"/>
        <path id="Path_685" data-name="Path 685" class="cls-12" d="M228.454,297.017l-.2-.115,1.935-1.121,83.378-48.132,121.488,78.615c2,1.159,2.356,2.84.789,3.731L433,331.639,355.073,376.7l-.56-.407Z" transform="translate(-161.718 -42.901)"/>
        <path id="Path_686" data-name="Path 686" class="cls-8" d="M319.751,329.123l6.036-1.273v24.193c-3.642,1.553-5.959,3.005-6.367,6.048Z" transform="translate(-136.799 -20.98)"/>
        <path id="Path_687" data-name="Path 687" class="cls-14" d="M327.247,362.682l77.2-44.566a5.361,5.361,0,0,0,2.432-4.2V290.09l-77.953,45.394s-.93,3.374-3.693,4.431-.649,2.139-.649,2.139v20.373C326.967,362.084,327.247,362.682,327.247,362.682Z" transform="translate(-135.598 -31.301)"/>
        <path id="Path_688" data-name="Path 688" class="cls-10" d="M347.881,344.818c.8-.458,1.439-.484,1.439,0v.751c0,.84,1.273.8,2.852-.115s2.852-2.317,2.852-3.158v-.764c0-.433,1.082-1.4,2.407-2.165L231.83,267.4l-1.948,1.121a1.821,1.821,0,0,0-.484,1.044v.764c0,.84-1.273,2.254-2.84,3.158s-2.852.955-2.852.115v-.764c0-.433-.637-.395-1.426.064Z" transform="translate(-163.35 -37.503)"/>
        <path id="Path_689" data-name="Path 689" class="cls-13" d="M347.881,344.818c.8-.458,1.439-.484,1.439,0v.751c0,.84,1.273.8,2.852-.115s2.852-2.317,2.852-3.158v-.764c0-.433,1.082-1.4,2.407-2.165L231.83,267.4l-1.948,1.121a1.821,1.821,0,0,0-.484,1.044v.764c0,.84-1.273,2.254-2.84,3.158s-2.852.955-2.852.115v-.764c0-.433-.637-.395-1.426.064Z" transform="translate(-163.35 -37.503)"/>
        <path id="Path_690" data-name="Path 690" class="cls-10" d="M228.454,278.927l-.2-.115,1.935-1.121,83.378-48.132,121.488,70.16c2,1.159,2.356,2.827.789,3.731l-2.84,1.63-77.953,46.948Z" transform="translate(-161.718 -47.845)"/>
        <path id="Path_691" data-name="Path 691" class="cls-12" d="M228.454,278.927l-.2-.115,1.935-1.121,83.378-48.132,121.488,70.16c2,1.159,2.356,2.827.789,3.731l-2.84,1.63-77.953,46.948Z" transform="translate(-161.718 -47.845)"/>
        <path id="Path_692" data-name="Path 692" class="cls-10" d="M224.222,271.06l125.576,72.5L345.4,347,220.3,274.778a4.788,4.788,0,0,1,1.668-2.33Z" transform="translate(-163.891 -36.502)"/>
        <path id="Path_693" data-name="Path 693" class="cls-12" d="M224.222,271.06l125.576,72.5L345.4,347,220.3,274.778a4.788,4.788,0,0,1,1.668-2.33Z" transform="translate(-163.891 -36.502)"/>
        <path id="Path_694" data-name="Path 694" class="cls-10" d="M220.966,306.408a1.387,1.387,0,0,1-.216-.166.343.343,0,0,1-.14-.127,1.337,1.337,0,0,1-.255-.344.459.459,0,0,1-.127-.178,2.941,2.941,0,0,1-.318-.7,5.531,5.531,0,0,1-.255-.815c-.076-.306-.127-.611-.178-.942a2.957,2.957,0,0,1-.076-.573v-22.3a16.923,16.923,0,0,1,1.171-6.367l125.1,72.223.522,32.5L221.106,306.37Z" transform="translate(-164.138 -35.726)"/>
        <path id="Path_695" data-name="Path 695" class="cls-11" d="M220.966,306.408a1.387,1.387,0,0,1-.216-.166.343.343,0,0,1-.14-.127,1.337,1.337,0,0,1-.255-.344.459.459,0,0,1-.127-.178,2.941,2.941,0,0,1-.318-.7,5.531,5.531,0,0,1-.255-.815c-.076-.306-.127-.611-.178-.942a2.957,2.957,0,0,1-.076-.573v-22.3a16.923,16.923,0,0,1,1.171-6.367l125.1,72.223.522,32.5L221.106,306.37Z" transform="translate(-164.138 -35.726)"/>
        <path id="Path_696" data-name="Path 696" class="cls-19" d="M345.576,346.174h0s-98.53-46.107-107.494-50.335c-5.921-2.789-8.824,3.069-7.423,9.13,1.273,5.3,6.456,10.76,6.456,10.76h0l-16.108-9.308h0a1.387,1.387,0,0,1-.216-.166.344.344,0,0,1-.14-.127,1.336,1.336,0,0,1-.255-.344.459.459,0,0,1-.127-.178,2.942,2.942,0,0,1-.318-.7,5.531,5.531,0,0,1-.255-.815c-.076-.306-.127-.611-.178-.942a2.956,2.956,0,0,1-.076-.573V280.267a16.922,16.922,0,0,1,1.171-6.367Z" transform="translate(-164.127 -35.726)"/>
        <path id="Path_697" data-name="Path 697" class="cls-10" d="M317.59,349.078h2.8a12.733,12.733,0,0,1,1.35-6.112,3.82,3.82,0,0,0,2.3.751,7.246,7.246,0,0,0,3.476-1.1,10.645,10.645,0,0,0,3.234-2.84,1.823,1.823,0,0,0,.178-.255,4.6,4.6,0,0,0,.828-2.394L405.7,294.452l2.547-1.464,3.209-1.846a1.681,1.681,0,0,0,.98-1.439V286.43a1.719,1.719,0,0,1-.98,1.477h0l-8.493,4.89-71.5,41.294c-1.337.764-2.419,1.732-2.419,2.165v.764a2.3,2.3,0,0,1-.662,1.273,7.973,7.973,0,0,1-2.19,1.834c-1.579.917-2.852.955-2.852.115v-.751c0-.446-.624-.407-1.426,0l-1.413.828C318.863,341.336,317.59,345.22,317.59,349.078Z" transform="translate(-137.299 -32.301)"/>
        <path id="Path_698" data-name="Path 698" class="cls-10" d="M320.367,342.316v21.608l.064.7a.115.115,0,0,0,0,.064c.255-2.228,2.381-4.215,4.227-5.259a6.99,6.99,0,0,1,3.425-1.07,3.82,3.82,0,0,1,2.547.93l.242-.14.5-.293,71.5-41.294,4.113-2.368,1.171-.688,3.463-2a1.63,1.63,0,0,0,.764-1.337v3.272a1.6,1.6,0,0,1-.713,1.273h0c-.408.242-.84.471-1.273.739l-.8.471-1.375.789c-.306.191-.586.357-.853.5s-.42.255-.6.344l-1.057.624-56.8,32.775L330.77,362.421c-1.273.764-2.33,1.031-2.407.637a.756.756,0,0,1,0-.14v-.726c0-.917-1.273-.917-2.84,0a3.82,3.82,0,0,0-2.241,2.852v.891a1.273,1.273,0,0,1-.42,1.07l-.42.242-.891.509-1.108.649a1.133,1.133,0,0,1-1.413-.127.343.343,0,0,1-.14-.127,1.275,1.275,0,0,1-.255-.331h0a.909.909,0,0,1-.127-.178,2.943,2.943,0,0,1-.318-.7,4.925,4.925,0,0,1-.255-.8c-.076-.318-.127-.624-.178-.955a2.83,2.83,0,0,1-.076-.573c0-.153,0-.293,0-.471V342.316Z" transform="translate(-137.275 -25.539)"/>
        <g id="Group_57" data-name="Group 57" class="cls-20" transform="translate(180.291 254.129)">
          <path id="Path_699" data-name="Path 699" d="M317.59,349.078h2.8a12.733,12.733,0,0,1,1.35-6.112,3.82,3.82,0,0,0,2.3.751,7.246,7.246,0,0,0,3.476-1.1,10.645,10.645,0,0,0,3.234-2.84,1.823,1.823,0,0,0,.178-.255,4.6,4.6,0,0,0,.828-2.394L405.7,294.452l2.547-1.464,3.209-1.846a1.681,1.681,0,0,0,.98-1.439V286.43a1.719,1.719,0,0,1-.98,1.477h0l-8.493,4.89-71.5,41.294c-1.337.764-2.419,1.732-2.419,2.165v.764a2.3,2.3,0,0,1-.662,1.273,7.973,7.973,0,0,1-2.19,1.834c-1.579.917-2.852.955-2.852.115v-.751c0-.446-.624-.407-1.426,0l-1.413.828C318.863,341.336,317.59,345.22,317.59,349.078Z" transform="translate(-317.59 -286.43)"/>
          <path id="Path_700" data-name="Path 700" d="M320.367,342.316v21.608l.064.7a.115.115,0,0,0,0,.064c.255-2.228,2.381-4.215,4.227-5.259a6.99,6.99,0,0,1,3.425-1.07,3.82,3.82,0,0,1,2.547.93l.242-.14.5-.293,71.5-41.294,4.113-2.368,1.171-.688,3.463-2a1.63,1.63,0,0,0,.764-1.337v3.272a1.6,1.6,0,0,1-.713,1.273h0c-.408.242-.84.471-1.273.739l-.8.471-1.375.789c-.306.191-.586.357-.853.5s-.42.255-.6.344l-1.057.624-56.8,32.775L330.77,362.421c-1.273.764-2.33,1.031-2.407.637a.756.756,0,0,1,0-.14v-.726c0-.917-1.273-.917-2.84,0a3.82,3.82,0,0,0-2.241,2.852v.891a1.273,1.273,0,0,1-.42,1.07l-.42.242-.891.509-1.108.649a1.133,1.133,0,0,1-1.413-.127.343.343,0,0,1-.14-.127,1.275,1.275,0,0,1-.255-.331h0a.909.909,0,0,1-.127-.178,2.943,2.943,0,0,1-.318-.7,4.925,4.925,0,0,1-.255-.8c-.076-.318-.127-.624-.178-.955a2.83,2.83,0,0,1-.076-.573c0-.153,0-.293,0-.471V342.316Z" transform="translate(-317.565 -279.668)"/>
        </g>
        <path id="Path_701" data-name="Path 701" class="cls-9" d="M220.25,285.516l118.9,68.658,89.872-51.888a1.477,1.477,0,0,0,0-2.8L311.369,231.54l-78.946,45.611h0l-1.948,1.133a1.808,1.808,0,0,0-.471,1.031v.764c0,.84-1.273,2.254-2.84,3.158a1.18,1.18,0,0,1-.255.127l-2.623-1.515-1.273.713-.178.089h0l-.917.535a4.813,4.813,0,0,0-1.668,2.33Z" transform="translate(-163.905 -47.304)"/>
        <path id="Path_702" data-name="Path 702" class="cls-6" d="M379.768,288.077l-3.578-1.91,3.26-.777a2.432,2.432,0,0,1,.318,2.687Z" transform="translate(-121.282 -32.585)"/>
        <path id="Path_703" data-name="Path 703" class="cls-21" d="M379.768,288.077l-3.578-1.91,3.26-.777a2.432,2.432,0,0,1,.318,2.687Z" transform="translate(-121.282 -32.585)"/>
        <path id="Path_704" data-name="Path 704" class="cls-10" d="M330.143,352.057a8.035,8.035,0,0,0,7.271,0l81.671-47.113-122.24-77.278-2.865-1.655L212.322,279.8c-2,1.159-2,3.043,0,4.2Z" transform="translate(-166.482 -48.816)"/>
        <path id="Path_705" data-name="Path 705" class="cls-10" d="M330.747,249.77l61.705,41.816L359.232,266.12l18.438-10.645,21.443,12.415v22.143c0,1.885-2.1,4.546-2.865,4.113a21.137,21.137,0,0,0-4.1,1.452,30.778,30.778,0,0,0-5.921,4.38L320.79,255.5Z" transform="translate(-136.425 -42.321)"/>
        <path id="Path_706" data-name="Path 706" class="cls-22" d="M330.747,249.77l61.705,41.816L359.232,266.12l18.438-10.645,21.443,12.415v22.143c0,1.885-2.1,4.546-2.865,4.113a21.137,21.137,0,0,0-4.1,1.452,30.778,30.778,0,0,0-5.921,4.38L320.79,255.5Z" transform="translate(-136.425 -42.321)"/>
        <path id="Path_707" data-name="Path 707" class="cls-18" d="M307.38,313.16v25.568a4.979,4.979,0,0,0,2.432-.573l8.913-5.17,68.25-39.4V267.18Z" transform="translate(-140.09 -37.563)"/>
        <path id="Path_708" data-name="Path 708" class="cls-14" d="M213.59,251v21.226a5.386,5.386,0,0,0,2.419,4.2L321.7,337.421l8.913,5.17a4.965,4.965,0,0,0,2.419.573V319.581Z" transform="translate(-165.725 -41.985)"/>
        <path id="Path_709" data-name="Path 709" class="cls-8" d="M369.92,294.832a4.762,4.762,0,0,1,1.019-2.649,10.479,10.479,0,0,1,3.234-2.84,7.3,7.3,0,0,1,3.489-1.095,3.629,3.629,0,0,1,2.292.535V262.63l-10.021,5.794Z" transform="translate(-122.996 -38.806)"/>
        <path id="Path_710" data-name="Path 710" class="cls-3" d="M373.918,288.051a10.632,10.632,0,0,0-2.98,2.687,4.762,4.762,0,0,0-1.019,2.648V267.92h3.986Z" transform="translate(-122.996 -37.36)"/>
        <path id="Path_711" data-name="Path 711" class="cls-10" d="M278.37,210.19,400.609,280.8v1.63c0,.917,1.273,1.273,2.84.344s2.865-2.05,2.865-3.616l.153-1.553L281.9,205.683l-.509-.293a1.667,1.667,0,0,0-.2.764v.751C281.2,207.809,279.936,209.274,278.37,210.19Z" transform="translate(-148.019 -54.452)"/>
        <path id="Path_712" data-name="Path 712" class="cls-22" d="M278.37,210.19,400.609,280.8v1.63c0,.917,1.273,1.273,2.84.344s2.865-2.05,2.865-3.616l.153-1.553L281.9,205.683l-.509-.293a1.667,1.667,0,0,0-.2.764v.751C281.2,207.809,279.936,209.274,278.37,210.19Z" transform="translate(-148.019 -54.452)"/>
        <path id="Path_713" data-name="Path 713" class="cls-10" d="M337.414,327.133l79.914-46.107c1.019-.535,1.948-.968,2.33-.764l-.522-.28L296.9,209.375l-1.439-.815a4.558,4.558,0,0,0-3.82.573l-79.316,45.751c-2,1.159-2,3.056,0,4.2l117.846,68.047A8.035,8.035,0,0,0,337.414,327.133Z" transform="translate(-166.482 -53.637)"/>
        <path id="Path_714" data-name="Path 714" class="cls-10" d="M280.75,205.888l.509.293,124.6,71.918a1.006,1.006,0,0,1,.267-.344l.42-.229.891-.522,1.108-.649a1.146,1.146,0,0,1,1.413.127.661.661,0,0,1,.14.127,2.766,2.766,0,0,1,.382.522,3.536,3.536,0,0,1,.318.7,7.635,7.635,0,0,1,.255.815c.064.306.127.611.178.942a4.333,4.333,0,0,1,.076.586v-1.948a7.436,7.436,0,0,0-3.642-5.6L289.816,204.577a7.3,7.3,0,0,0-6.481-.458l-1.49.866h0l-.624.369h0A1.273,1.273,0,0,0,280.75,205.888Z" transform="translate(-147.369 -54.95)"/>
        <path id="Path_715" data-name="Path 715" class="cls-10" d="M311.019,337.341l4.928-2.852,73.942-42.695a4.8,4.8,0,0,1,1.019-2.649,10.671,10.671,0,0,1,3.234-2.84,7.372,7.372,0,0,1,3.476-1.082,3.68,3.68,0,0,1,2.3.751,12.822,12.822,0,0,0,1.35-6.125h2.8c0,3.82-1.273,7.742-2.84,8.646l-1.413.828c-.8.458-1.426.484-1.426,0v-.751c0-.84-1.273-.8-2.865.1s-2.839,2.33-2.839,3.171v.751c0,.433-1.082,1.4-2.419,2.177l-71.51,41.294-7.742,4.469h0a7.639,7.639,0,0,1-3.629.853v-3.234A7.372,7.372,0,0,0,311.019,337.341Z" transform="translate(-140.087 -34.1)"/>
        <path id="Path_716" data-name="Path 716" class="cls-23" d="M311.019,337.341l4.928-2.852,73.942-42.695a4.8,4.8,0,0,1,1.019-2.649,10.671,10.671,0,0,1,3.234-2.84,7.372,7.372,0,0,1,3.476-1.082,3.68,3.68,0,0,1,2.3.751,12.822,12.822,0,0,0,1.35-6.125h2.8c0,3.82-1.273,7.742-2.84,8.646l-1.413.828c-.8.458-1.426.484-1.426,0v-.751c0-.84-1.273-.8-2.865.1s-2.839,2.33-2.839,3.171v.751c0,.433-1.082,1.4-2.419,2.177l-71.51,41.294-7.742,4.469h0a7.639,7.639,0,0,1-3.629.853v-3.234A7.372,7.372,0,0,0,311.019,337.341Z" transform="translate(-140.087 -34.1)"/>
        <path id="Path_717" data-name="Path 717" class="cls-10" d="M310.991,312.883h0l4.928-2.852,56.8-32.775,18.209-10.492c1.273-.751,2.343-1.019,2.419-.624v.828c0,.9,1.273.9,2.84,0a3.82,3.82,0,0,0,2.241-2.865v-.891a1.273,1.273,0,0,1,.42-1.07l.42-.229.891-.522,1.108-.649a1.146,1.146,0,0,1,1.413.127.66.66,0,0,1,.14.127,1.72,1.72,0,0,1,.255.344,1.084,1.084,0,0,1,.127.178,3.541,3.541,0,0,1,.318.7,7.668,7.668,0,0,1,.255.815c.064.306.127.611.178.942a4.323,4.323,0,0,1,.076.586v20.5h-2.8V265.337l-.064-.7c-.255,2.228-2.381,4.215-4.24,5.259a6.888,6.888,0,0,1-3.413,1.07,3.82,3.82,0,0,1-2.547-.93l-.242.14-.5.293-71.51,41.294-7.742,4.469h0a7.564,7.564,0,0,1-3.578.828v-3.234a7.513,7.513,0,0,0,3.591-.942Z" transform="translate(-140.085 -39.374)"/>
        <path id="Path_718" data-name="Path 718" class="cls-23" d="M310.991,312.883h0l4.928-2.852,56.8-32.775,18.209-10.492c1.273-.751,2.343-1.019,2.419-.624v.828c0,.9,1.273.9,2.84,0a3.82,3.82,0,0,0,2.241-2.865v-.891a1.273,1.273,0,0,1,.42-1.07l.42-.229.891-.522,1.108-.649a1.146,1.146,0,0,1,1.413.127.66.66,0,0,1,.14.127,1.72,1.72,0,0,1,.255.344,1.084,1.084,0,0,1,.127.178,3.541,3.541,0,0,1,.318.7,7.668,7.668,0,0,1,.255.815c.064.306.127.611.178.942a4.323,4.323,0,0,1,.076.586v20.5h-2.8V265.337l-.064-.7c-.255,2.228-2.381,4.215-4.24,5.259a6.888,6.888,0,0,1-3.413,1.07,3.82,3.82,0,0,1-2.547-.93l-.242.14-.5.293-71.51,41.294-7.742,4.469h0a7.564,7.564,0,0,1-3.578.828v-3.234a7.513,7.513,0,0,0,3.591-.942Z" transform="translate(-140.085 -39.374)"/>
        <path id="Path_719" data-name="Path 719" class="cls-10" d="M210.81,246.52v3.285a2.547,2.547,0,0,0,1.439,2.076h0l110.117,63.565,7.729,4.469h0a7.64,7.64,0,0,0,3.616.853v-3.234a7.359,7.359,0,0,1-3.629-.866l-4.915-2.84h0L212.325,248.659A2.47,2.47,0,0,1,210.81,246.52Z" transform="translate(-166.485 -43.21)"/>
        <path id="Path_720" data-name="Path 720" class="cls-22" d="M210.81,246.52v3.285a2.547,2.547,0,0,0,1.439,2.076h0l110.117,63.565,7.729,4.469h0a7.64,7.64,0,0,0,3.616.853v-3.234a7.359,7.359,0,0,1-3.629-.866l-4.915-2.84h0L212.325,248.659A2.47,2.47,0,0,1,210.81,246.52Z" transform="translate(-166.485 -43.21)"/>
        <path id="Path_721" data-name="Path 721" class="cls-10" d="M210.81,269.86v3.285a2.547,2.547,0,0,0,1.439,2.076h0L322.417,338.8l7.729,4.469h0a7.64,7.64,0,0,0,3.616.853v-3.234a7.359,7.359,0,0,1-3.629-.866l-4.915-2.84h0L212.325,272a2.47,2.47,0,0,1-1.515-2.139Z" transform="translate(-166.485 -36.83)"/>
        <path id="Path_722" data-name="Path 722" class="cls-22" d="M210.81,269.86v3.285a2.547,2.547,0,0,0,1.439,2.076h0L322.417,338.8l7.729,4.469h0a7.64,7.64,0,0,0,3.616.853v-3.234a7.359,7.359,0,0,1-3.629-.866l-4.915-2.84h0L212.325,272a2.47,2.47,0,0,1-1.515-2.139Z" transform="translate(-166.485 -36.83)"/>
        <path id="Path_723" data-name="Path 723" class="cls-24" d="M253.259,179.13,241.57,199.962l17.037,9.066,12.4-18.463Z" transform="translate(-158.078 -61.629)"/>
        <path id="Path_724" data-name="Path 724" class="cls-10" d="M292.526,142.391c-6.494-1.108-16.324-1.4-22.716,9.563s-20.169,38.022-20.169,38.022,8.047,10.416,19.7,12.313l19.036-30.2Z" transform="translate(-155.872 -71.812)"/>
        <rect id="Rectangle_88" data-name="Rectangle 88" class="cls-24" width="14.541" height="24.894" transform="translate(106.769 325.703)"/>
        <path id="Path_725" data-name="Path 725" class="cls-24" d="M241.487,343.535l-14.541.5-.726-26.345,14.529-.5Z" transform="translate(-162.273 -23.894)"/>
        <path id="Path_726" data-name="Path 726" class="cls-9" d="M264.786,357v-2.076c-1.388.6-4.622,12.937-10.39,18.2-4.584,4.189-10.836,9.015-12.428,13.676-1.655,4.851,8.71,7.538,12.988,6.774,4.979-.879,13.612-4.38,15.777-7.64s3.183-8.035,4.94-10.416,5.819-5.093,6.774-7.806c.522-1.515-.1-4.826-.828-7.64-.675-2.547-1.413-5.4-2.292-5.157v1.579c-1.057,1.171-3.973,2.33-7.271,2.457C269.93,359.051,264.773,358.631,264.786,357Z" transform="translate(-158.017 -13.587)"/>
        <path id="Path_727" data-name="Path 727" class="cls-9" d="M234.091,334.924c-.751,0-1.362,1.1-3.031,2.89a31.63,31.63,0,0,1-8.557,6.15c-5.45,2.738-16.006,6.927-20.819,9.1-2.992,1.35-2.852,4.966.242,7.029s10.556,3.54,19.533,1.528c4.877-1.1,11.243-5.6,15.28-5.361s11.562.191,14.529-1.859,1.783-6.367.942-10.187c-.917-4.1-2.228-10.378-3.591-10.1V335.4c-1.744,2.649-10.645,3.731-14.49,1.783Z" transform="translate(-169.571 -19.268)"/>
        <path id="Path_728" data-name="Path 728" class="cls-8" d="M345.133,227.235c3.183,22.474-1.108,26.74-22.462,48.31-11.46,11.575-29.987,28.548-29.987,28.548s.267,7.182.408,23.276c.14,14.172-5.781,60.292-5.781,60.292s-9.652,4.062-16.273-.153c0,0-2.992-34.316-4.609-52.206-2.19-24.193-3.336-36.392-2.1-41.6,1.1-4.6,22.831-32.05,27.848-39.741l-46.2,26.842a157.664,157.664,0,0,1,1.35,20.513c-.509,19.24-2.878,57.669-2.878,57.669s-10.569,4.724-15.815.649c0,0-13.306-84.04-13.306-90.941,0-10.48,45.509-41.765,54.129-49.049,4.915-4.151,10.39-8.646,10.39-8.646Z" transform="translate(-165.25 -52.918)"/>
        <path id="Path_729" data-name="Path 729" class="cls-7" d="M285.6,247.983A33.4,33.4,0,0,1,275.04,232.92a75.791,75.791,0,0,0,1.643,11.46c1.273,4.991-37.283,30.433-37.283,30.433Z" transform="translate(-158.671 -46.927)"/>
        <circle id="Ellipse_27" data-name="Ellipse 27" class="cls-9" cx="20.641" cy="20.641" r="20.641" transform="matrix(0.228, -0.974, 0.974, 0.228, 107.698, 41.062)"/>
        <path id="Path_730" data-name="Path 730" class="cls-9" d="M327.644,154.784s5.093,4.177,5.093,17.368v28.484l-.726,47.9c-10.187,11.091-56.026,6.889-67.372-17.3,0,0,.089-50.564.089-61.9s6.367-26.04,23.684-27.058l22.436,5.221Z" transform="translate(-151.772 -71.701)"/>
        <path id="Path_731" data-name="Path 731" class="cls-9" d="M309.969,118.54s-3.349,15.713-4.686,18.3a7.067,7.067,0,0,1-4.113,3.311L301.4,129.1Z" transform="translate(-141.787 -78.19)"/>
        <path id="Path_732" data-name="Path 732" class="cls-9" d="M305.242,100.87a7.729,7.729,0,0,1,6.367,2.254c2.75,2.814,1.21,11.625-2.216,20.259l-6.3.726Z" transform="translate(-141.263 -83.033)"/>
        <path id="Path_733" data-name="Path 733" class="cls-24" d="M311.294,126.193c1.273.751,3.069-1.668,4.622-3.3s6.647-3.82,9.181,1.49-2.241,12.644-6.239,13.9c-6.9,2.165-7.946-2.267-7.946-2.267l-.522,24.894c-5.946,6.647-26.282,5.093-22.449-.662v-7.64s-6.252.955-9.3.484c-5.093-.789-8.277-4.788-9.817-10.288-2.47-8.824-3.413-15.942-1.273-33.3,2.3-19.024,24.422-19.215,36.366-11.7S311.294,126.193,311.294,126.193Z" transform="translate(-151.3 -85.118)"/>
        <path id="Path_734" data-name="Path 734" class="cls-9" d="M289.581,125.553h-1.07a7.042,7.042,0,0,1,0-14.083h1.082a7.042,7.042,0,0,1,0,14.083Zm-1.07-12.9a5.857,5.857,0,0,0,0,11.715h1.082a5.857,5.857,0,0,0,0-11.715Z" transform="translate(-147.172 -80.123)"/>
        <path id="Path_735" data-name="Path 735" class="cls-9" d="M272.744,125.553h-1.082a7.042,7.042,0,0,1,0-14.083h1.082a7.042,7.042,0,0,1,0,14.083Zm-1.082-12.9a5.857,5.857,0,1,0,0,11.715h1.082a5.857,5.857,0,1,0,0-11.715Z" transform="translate(-151.778 -80.123)"/>
        <path id="Path_736" data-name="Path 736" class="cls-9" d="M283.227,116.567a4.66,4.66,0,0,0-3.718-1.9,3.82,3.82,0,0,0-3.247,1.273l-.942-.713a4.864,4.864,0,0,1,4.253-1.694,5.781,5.781,0,0,1,4.673,2.458Z" transform="translate(-148.853 -79.566)"/>
        <rect id="Rectangle_89" data-name="Rectangle 89" class="cls-9" width="14.974" height="1.184" transform="translate(148.801 36.95)"/>
        <path id="Path_737" data-name="Path 737" class="cls-9" d="M311.755,130.054c.637,0,3.043-4,4.622-5.424,2.177-1.986-.637-19.94-.637-19.94s2.1-4.469-2.1-9.079c-2.98-3.285-7.971-3.654-16.49-4.991-4.469-.7-11.243-1.961-15.713-2.789-5.323-.993-9.741-2.037-13.5,1.273a9.448,9.448,0,0,0-2.61,10.581,9.665,9.665,0,0,0,5.348,4.9s2.318,2.063,10.4,3.043,20.679-.178,22.4-.42c2.343-.318,2.84,1.948,4.113,8.162C308.7,120.784,309.654,130.015,311.755,130.054Z" transform="translate(-151.761 -86.852)"/>
        <path id="Path_738" data-name="Path 738" class="cls-9" d="M304.872,103.4l7.64-4.113a4.215,4.215,0,0,0-5.781-1.91,4.584,4.584,0,0,0-1.859,6.023Z" transform="translate(-140.905 -84.11)"/>
        <path id="Path_739" data-name="Path 739" class="cls-25" d="M283.323,142.015s11.333-2.279,15.28-4.38a13.064,13.064,0,0,0,5.475-5.424,17.826,17.826,0,0,1-3.107,6.367c-2.9,3.705-17.661,6.43-17.661,6.43Z" transform="translate(-146.669 -74.454)"/>
        <path id="Path_740" data-name="Path 740" class="cls-9" d="M285.46,117.4a2.279,2.279,0,1,0,2.267-2.368A2.317,2.317,0,0,0,285.46,117.4Z" transform="translate(-146.081 -79.15)"/>
        <path id="Path_741" data-name="Path 741" class="cls-9" d="M288.32,109.829l4.864,2.674a2.929,2.929,0,0,0-1.133-3.82,2.712,2.712,0,0,0-3.731,1.146Z" transform="translate(-145.3 -80.977)"/>
        <path id="Path_742" data-name="Path 742" class="cls-25" d="M285.242,129.2l-5.182,1.948a2.712,2.712,0,0,0,3.514,1.719,2.9,2.9,0,0,0,1.668-3.667Z" transform="translate(-147.557 -75.277)"/>
        <path id="Path_743" data-name="Path 743" class="cls-9" d="M269.214,112.046l4.431-3.4a2.674,2.674,0,0,0-3.82-.6,2.929,2.929,0,0,0-.611,4Z" transform="translate(-150.667 -81.208)"/>
        <path id="Path_744" data-name="Path 744" class="cls-9" d="M270.63,116.888a2.279,2.279,0,1,0,2.267-2.368A2.317,2.317,0,0,0,270.63,116.888Z" transform="translate(-150.135 -79.289)"/>
        <path id="Path_745" data-name="Path 745" class="cls-25" d="M281.241,114.95l-.255,13.765-8.137-1.8Z" transform="translate(-149.528 -79.171)"/>
        <path id="Path_746" data-name="Path 746" class="cls-10" d="M291.63,208.406v1.273a3.705,3.705,0,0,1-1.859,3.209l-35.36,20.373a3.706,3.706,0,0,1-3.705,0l-64.876-37.449a3.705,3.705,0,0,1-1.859-3.209v-.9l68.581,39.588Z" transform="translate(-173.821 -58.194)"/>
        <path id="Path_747" data-name="Path 747" class="cls-13" d="M291.63,208.406v1.273a3.705,3.705,0,0,1-1.859,3.209l-35.36,20.373a3.706,3.706,0,0,1-3.705,0l-64.876-37.449a3.705,3.705,0,0,1-1.859-3.209v-.9l68.581,39.588Z" transform="translate(-173.821 -58.194)"/>
        <path id="Path_748" data-name="Path 748" class="cls-10" d="M184,196.541l38.467-22.207a2.216,2.216,0,0,1,2.216,0l66.722,38.531a.5.5,0,0,1,0,.853l-38.824,22.411Z" transform="translate(-173.813 -63.021)"/>
        <path id="Path_749" data-name="Path 749" class="cls-12" d="M184,196.541l38.467-22.207a2.216,2.216,0,0,1,2.216,0l66.722,38.531a.5.5,0,0,1,0,.853l-38.824,22.411Z" transform="translate(-173.813 -63.021)"/>
        <path id="Path_750" data-name="Path 750" class="cls-9" d="M251.156,230.326,271.9,218.357,211.237,183.34,190.38,195.246Z" transform="translate(-172.069 -60.479)"/>
        <path id="Path_751" data-name="Path 751" class="cls-9" d="M252.346,196.388l-.382.216-10.174,5.87-18.081-10.441-.369-.216,10.543-6.087Z" transform="translate(-163.061 -59.825)"/>
        <path id="Path_752" data-name="Path 752" class="cls-9" d="M251.885,196.511l-10.174,5.87L223.63,191.94l10.174-5.87Z" transform="translate(-162.981 -59.732)"/>
        <path id="Path_753" data-name="Path 753" class="cls-11" d="M252.551,231.3v2.47a3.692,3.692,0,0,1-1.846-.5l-64.876-37.449a3.705,3.705,0,0,1-1.859-3.209v-.9Z" transform="translate(-173.821 -58.191)"/>
        <path id="Path_754" data-name="Path 754" class="cls-10" d="M253.673,241.833a4.355,4.355,0,0,1-3.82-.293L185.27,204.257a4.38,4.38,0,0,1-2.139-3.069l-7.067-42.173A4.494,4.494,0,0,1,176,158.3a4.418,4.418,0,0,1,1.273-3.132l67.117,38.76a3.272,3.272,0,0,1,1.643,2.279Z" transform="translate(-176 -68.178)"/>
        <path id="Path_755" data-name="Path 755" class="cls-12" d="M253.673,241.833a4.355,4.355,0,0,1-3.82-.293L185.27,204.257a4.38,4.38,0,0,1-2.139-3.069l-7.067-42.173A4.494,4.494,0,0,1,176,158.3a4.418,4.418,0,0,1,1.273-3.132l67.117,38.76a3.272,3.272,0,0,1,1.643,2.279Z" transform="translate(-176 -68.178)"/>
        <path id="Path_756" data-name="Path 756" class="cls-6" d="M254.44,241.43l-.433.255a4.452,4.452,0,0,1-.611.293l-7.64-45.623a3.272,3.272,0,0,0-1.579-2.279l-67.117-38.76a4.314,4.314,0,0,1,.891-.675l67.257,38.824a3.272,3.272,0,0,1,1.579,2.279Z" transform="translate(-175.71 -68.323)"/>
        <path id="Path_757" data-name="Path 757" class="cls-10" d="M210.879,194.66c-.471-2.814-3.387-6.57-6.507-8.366s-5.272-.98-4.788,1.846,3.387,6.57,6.507,8.379S211.363,197.487,210.879,194.66Z" transform="translate(-169.572 -59.931)"/>
        <path id="Path_758" data-name="Path 758" class="cls-24" d="M224.462,219.055a22.757,22.757,0,0,0-1.057-5.373c-.993-3.12-3.947-15.14-10.7-16.948a4.788,4.788,0,0,0-2.47-.076c-1.872.509-2.725,2.458-3.094,4.2a29.377,29.377,0,0,0,0,7.767,15.2,15.2,0,0,0-3.6-3.018,7.373,7.373,0,0,0-4.138-1.477,1.273,1.273,0,0,0-1.082.509,1.254,1.254,0,0,0,.382,1.4c.675.815,1.5,1.5,2.177,2.317a23.794,23.794,0,0,1,1.464,2.216c.853,1.375,1.808,2.674,2.763,3.986a27.886,27.886,0,0,0,6.8,7.029,25.633,25.633,0,0,0,10.187,4.062c4.928.611,9.716.535,12.822-.548Z" transform="translate(-169.925 -56.873)"/>
        <path id="Path_759" data-name="Path 759" class="cls-24" d="M330.1,152.469c-4.546-2.343-11.193,6.94-9.079,16.642s12.53,43.815,12.53,43.815-47.049,4.2-51.048,4.7c-2.789.331-5.908-1.082-8.493-1.935-3.514-1.171-7.067-1.986-10.53-3.26a4.469,4.469,0,0,0-1.923-.407,1.515,1.515,0,0,0-1.413,1.184,2.012,2.012,0,0,0,.293,1.133,14.859,14.859,0,0,0,4.851,5.654,21.648,21.648,0,0,1,2.852,2.012c.548.548,1.757,2.063,1.273,2.89l-18.692,10.76s4.3,3.744,19.889-.624A102.032,102.032,0,0,0,287,229.212s55.441,2.3,65.462-.726c3.54-1.082,4.813-3.591,2.419-15-2.738-13.217-10.594-37.321-12.377-43.688C338.592,156.009,337.663,156.327,330.1,152.469Z" transform="translate(-155.577 -69.017)"/>
        <path id="Path_760" data-name="Path 760" class="cls-10" d="M313.1,150.84s7.513,2.114,10.747,6.367S339.564,202.6,339.564,202.6a29.287,29.287,0,0,1-23.76,6.367s-10.034-28.459-11.1-36.061C302.8,161.128,308.558,151.859,313.1,150.84Z" transform="translate(-140.924 -69.362)"/>
        <path id="Path_761" data-name="Path 761" class="cls-10" d="M279.4,173.41c-.611-3.183,1.375-4.9,4.444-3.82a11.231,11.231,0,0,1,6.621,7.64C291.08,180.451,280,176.567,279.4,173.41Z" transform="translate(-147.767 -64.326)"/>
        <path id="Path_762" data-name="Path 762" class="cls-10" d="M302.378,182.529l-9.028-5.743c.458,2.445-2.84,2.1-5.806,1.07s-6.6-3.12-7.067-5.564l-7.869-.1c-.726,0-.739.942,0,1.719,1.948,2.177,6.481,6.036,16.006,9.359s13.179,2.292,14.554,1.273C303.613,184.159,303.206,183.051,302.378,182.529Z" transform="translate(-149.744 -63.526)"/>
      </g>
    </g>
  </g>
</svg>
