<svg xmlns="http://www.w3.org/2000/svg" width="1443.849" height="852.824" viewBox="0 0 1443.849 852.824">
  <defs>
    <style>
      .cls-1 {
        fill: #eaeaea;
      }

      .cls-2 {
        fill: #e0e0e0;
      }
    </style>
  </defs>
  <g id="Group_791" data-name="Group 791" transform="translate(0 14.633)">
    <path id="Path_534" data-name="Path 534" class="cls-1" d="M-4289,443.7s267.568,315.077,483.564,159.183,140.261-200.325,386.605-250.989,394.691-302.337,496.682-334.232,73.608-114.2,72.689-148.878-1439.541,0-1439.541,0Z" transform="translate(4289 192)"/>
    <path id="Path_533" data-name="Path 533" class="cls-2" d="M-4289,443.7s267.568,315.077,483.564,159.183,140.261-200.325,386.605-250.989,394.691-302.337,496.682-334.232,73.608-114.2,72.689-148.878-1439.541,0-1439.541,0Z" transform="translate(4289 162)"/>
    <path id="Path_532" data-name="Path 532" d="M-4289,443.7s267.568,315.077,483.564,159.183,140.261-200.325,386.605-250.989,394.691-302.337,496.682-334.232,73.608-114.2,72.689-148.878-1439.541,0-1439.541,0Z" transform="translate(4289 132)"/>
  </g>
</svg>
