<svg xmlns="http://www.w3.org/2000/svg" width="1558.921" height="853.5" viewBox="0 0 1558.921 853.5">
  <defs>
    <style>
      .cls-1 {
        fill: #eaeaea;
      }

      .cls-2 {
        fill: #e0e0e0;
      }

      .cls-3 {
        stroke: #707070;
      }
    </style>
  </defs>
  <g id="Group_797" data-name="Group 797" transform="translate(118.501 0.5)">
    <path id="Path_771" data-name="Path 771" class="cls-1" d="M-3833.079-132V472.718S-4107.724,748.154-4446.5,632.746s-349.683-238.076-584.873-210.323-358.622-33.854-359.621-51.711S-5292.733-132-5292.733-132Z" transform="translate(5273 192)"/>
    <path id="Path_770" data-name="Path 770" class="cls-2" d="M-3833.079-132V472.718S-4107.724,748.154-4446.5,632.746s-349.683-238.076-584.873-210.323-358.622-33.854-359.621-51.711S-5292.733-132-5292.733-132Z" transform="translate(5273 162)"/>
    <path id="Path_763" data-name="Path 763" class="cls-3" d="M-3833.079-132V472.718S-4107.724,748.154-4446.5,632.746s-349.683-238.076-584.873-210.323-358.622-33.854-359.621-51.711S-5292.733-132-5292.733-132Z" transform="translate(5273 132)"/>
  </g>
</svg>
