<svg xmlns="http://www.w3.org/2000/svg" xmlns:xlink="http://www.w3.org/1999/xlink" width="1440" height="765" viewBox="0 0 1440 765">
  <defs>
    <style>
      .cls-1 {
        fill: none;
      }

      .cls-1, .cls-5 {
        stroke: #707070;
      }

      .cls-2 {
        clip-path: url(#clip-path);
      }

      .cls-3 {
        fill: #eaeaea;
      }

      .cls-4 {
        fill: #e0e0e0;
      }
    </style>
    <clipPath id="clip-path">
      <rect id="Rectangle_1379" data-name="Rectangle 1379" class="cls-1" width="1440" height="765"/>
    </clipPath>
  </defs>
  <g id="Mask_Group_1" data-name="Mask Group 1" class="cls-2">
    <g id="Group_792" data-name="Group 792" transform="translate(-117.921)">
      <path id="Path_771" data-name="Path 771" class="cls-3" d="M-3833.079-132V398.367S-4107.724,639.938-4446.5,538.72s-349.683-208.8-584.873-184.464-358.623-29.691-359.622-45.353,98.259-440.9,98.259-440.9Z" transform="translate(5391 192)"/>
      <path id="Path_770" data-name="Path 770" class="cls-4" d="M-3833.079-132V398.367S-4107.724,639.938-4446.5,538.72s-349.683-208.8-584.873-184.464-358.623-29.691-359.622-45.353,98.259-440.9,98.259-440.9Z" transform="translate(5391 162)"/>
      <path id="Path_763" data-name="Path 763" class="cls-5" d="M-3833.079-132V398.367S-4107.724,639.938-4446.5,538.72s-349.683-208.8-584.873-184.464-358.623-29.691-359.622-45.353,98.259-440.9,98.259-440.9Z" transform="translate(5391 132)"/>
    </g>
  </g>
</svg>
