<svg xmlns="http://www.w3.org/2000/svg" width="97" height="97" viewBox="0 0 97 97">
  <defs>
    <style>
      .cls-1 {
        fill: #fff;
      }
    </style>
  </defs>
  <g id="Group_776" data-name="Group 776" transform="translate(-671 -1619)">
    <circle id="Ellipse_23" data-name="Ellipse 23" cx="48.5" cy="48.5" r="48.5" transform="translate(671 1619)"/>
    <g id="medal_3_" data-name="medal(3)" transform="translate(656.538 1645)">
      <path id="Path_274" data-name="Path 274" class="cls-1" d="M141.5,66.642a.656.656,0,0,0,.774-.513,12.181,12.181,0,0,0,.244-2.431,12.046,12.046,0,1,0-1.334,5.527.656.656,0,1,0-1.166-.6,10.757,10.757,0,1,1,1.188-4.924,10.859,10.859,0,0,1-.218,2.167A.658.658,0,0,0,141.5,66.642Z" transform="translate(-67.532 -47.119)"/>
      <path id="Path_275" data-name="Path 275" class="cls-1" d="M186.812,106.138a.657.657,0,0,0-.531-.448l-4.275-.614-1.9-3.889a.66.66,0,0,0-1.178,0l-1.9,3.889-4.276.614a.663.663,0,0,0-.364,1.123l3.1,3.018-.739,4.268a.661.661,0,0,0,.953.694l3.819-2.024,3.819,2.024a.661.661,0,0,0,.953-.694l-.739-4.268,3.1-3.018a.659.659,0,0,0,.167-.675Zm-4.428,2.991a.659.659,0,0,0-.189.585l.57,3.291-2.944-1.56a.655.655,0,0,0-.613,0L176.262,113l.57-3.291a.659.659,0,0,0-.189-.585l-2.389-2.326,3.3-.474a.656.656,0,0,0,.5-.361l1.468-3,1.468,3a.656.656,0,0,0,.5.361l3.3.474Z" transform="translate(-116.551 -92.006)"/>
      <path id="Path_276" data-name="Path 276" class="cls-1" d="M81.372,39.112,74.96,27.973a16.554,16.554,0,0,0-20.01-25.9.658.658,0,0,0,.637,1.151A15.281,15.281,0,1,1,53.17,4.9a.657.657,0,0,0-.845-1.007,16.6,16.6,0,0,0-1.346,24.1l-1.816,3.155A.657.657,0,0,0,50.3,31.8l1.651-2.868a16.492,16.492,0,0,0,7.028,3.738l-5.661,9.834-1.448-4.571a.656.656,0,0,0-.766-.443l-4.671,1.028,2.336-4.059a.657.657,0,1,0-1.136-.658l-3.08,5.35a.662.662,0,0,0,.709.972L50.8,38.905l1.717,5.42a.66.66,0,0,0,1.193.13l6.623-11.506a16.513,16.513,0,0,0,5.28,0l3.978,6.911a.657.657,0,1,0,1.136-.658l-3.76-6.532a16.493,16.493,0,0,0,7.023-3.747l5.5,9.559-4.671-1.028a.656.656,0,0,0-.766.443l-1.448,4.571-.35-.608a.657.657,0,1,0-1.136.658l1.093,1.9a.66.66,0,0,0,1.193-.13l1.717-5.42,5.538,1.219A.662.662,0,0,0,81.372,39.112Z" transform="translate(0)"/>
    </g>
  </g>
</svg>
