<svg xmlns="http://www.w3.org/2000/svg" width="97" height="97" viewBox="0 0 97 97">
  <defs>
    <style>
      .cls-1 {
        fill: #fff;
      }
    </style>
  </defs>
  <g id="Group_775" data-name="Group 775" transform="translate(-243 -1619)">
    <circle id="Ellipse_22" data-name="Ellipse 22" cx="48.5" cy="48.5" r="48.5" transform="translate(243 1619)"/>
    <g id="XMLID_1487_" transform="translate(274 1645.197)">
      <g id="XMLID_1153_" transform="translate(0 0)">
        <path id="XMLID_1329_" class="cls-1" d="M94.053,25.067,87.3,14.486a3,3,0,0,0-.279-5.446l2.045-7.148a.883.883,0,0,0-.225-.867,3.492,3.492,0,0,0-4.933,0,1.711,1.711,0,0,1-1.218.5,1.713,1.713,0,0,1-1.22-.507l0,0a3.5,3.5,0,0,0-4.925-.008l-.025.025a1.726,1.726,0,0,1-2.432,0l-.006-.006a3.492,3.492,0,0,0-4.933,0,.883.883,0,0,0-.224.868l2.049,7.146a3,3,0,0,0-.284,5.448l-6.749,10.58A13.093,13.093,0,0,0,74.978,45.2h8.037A13.093,13.093,0,0,0,94.053,25.067ZM72.832,2.273l.006.006a3.5,3.5,0,0,0,4.925.008l.025-.025a1.726,1.726,0,0,1,2.434.006l0,0a3.492,3.492,0,0,0,4.933,0,1.726,1.726,0,0,1,2.047-.292L85.249,8.826h-12.5L70.786,1.981a1.725,1.725,0,0,1,2.046.292Zm20.115,35.28a11.18,11.18,0,0,1-9.933,5.882H74.978a11.327,11.327,0,0,1-9.55-17.419L72.564,14.83h2.459a.883.883,0,1,0,0-1.766H72.08a1.236,1.236,0,0,1,0-2.472H85.912a1.236,1.236,0,0,1,0,2.472H82.969a.883.883,0,0,0,0,1.766h2.459l7.136,11.187a11.18,11.18,0,0,1,.383,11.537Z" transform="translate(-61.857 0.001)"/>
        <path id="XMLID_1341_" class="cls-1" d="M214.326,245.793c-.222-.078-.448-.16-.674-.244v-4a3.628,3.628,0,0,1,1.015.474.883.883,0,0,0,1.062-1.41,5.392,5.392,0,0,0-2.078-.879v-.879a.883.883,0,1,0-1.766,0v.872a4.555,4.555,0,0,0-.455.111,3.536,3.536,0,0,0-2.424,2.773,3.118,3.118,0,0,0,1.021,3.073,8.5,8.5,0,0,0,1.858,1.056v5.12a3.529,3.529,0,0,1-1.936-.709.883.883,0,0,0-.967,1.478,5.211,5.211,0,0,0,2.9,1v.913a.883.883,0,1,0,1.766,0v-1a4.257,4.257,0,0,0,3.244-3.468A3.735,3.735,0,0,0,214.326,245.793Zm-3.208-1.5a1.376,1.376,0,0,1-.376-1.356,1.8,1.8,0,0,1,1.144-1.391v3.233A5.29,5.29,0,0,1,211.118,244.294Zm4.037,5.48a2.531,2.531,0,0,1-1.5,1.913v-4.259l.085.031A2,2,0,0,1,215.155,249.774Z" transform="translate(-195.629 -216.96)"/>
        <path id="XMLID_1343_" class="cls-1" d="M246.868,149.735a.883.883,0,1,0-.624-.259.89.89,0,0,0,.624.259Z" transform="translate(-229.728 -134.905)"/>
      </g>
    </g>
  </g>
</svg>
