<svg xmlns="http://www.w3.org/2000/svg" width="97" height="97" viewBox="0 0 97 97">
  <defs>
    <style>
      .cls-1 {
        fill: #fff;
      }
    </style>
  </defs>
  <g id="Group_779" data-name="Group 779" transform="translate(-432 -2078)">
    <circle id="Ellipse_25" data-name="Ellipse 25" cx="48.5" cy="48.5" r="48.5" transform="translate(432 2078)"/>
    <g id="open-book" transform="translate(457 2103)">
      <g id="Group_52" data-name="Group 52" transform="translate(0 0)">
        <g id="Group_51" data-name="Group 51">
          <path id="Path_285" data-name="Path 285" class="cls-1" d="M290.213,200.451a.768.768,0,0,0,1.033.335,65.778,65.778,0,0,1,6.789-3.021.768.768,0,0,0-.463-1.464,65.806,65.806,0,0,0-7.022,3.117A.768.768,0,0,0,290.213,200.451Z" transform="translate(-264.044 -178.619)"/>
          <path id="Path_286" data-name="Path 286" class="cls-1" d="M290.9,98.471a.766.766,0,0,0,.348-.084,65.776,65.776,0,0,1,6.789-3.021.768.768,0,0,0-.463-1.464,65.807,65.807,0,0,0-7.022,3.117.767.767,0,0,0,.349,1.451Z" transform="translate(-264.044 -85.427)"/>
          <path id="Path_287" data-name="Path 287" class="cls-1" d="M45.27,11.509a.767.767,0,0,0-.767.767V42.2a2.3,2.3,0,0,1-2.3,2.3H23.787V42.736a22.61,22.61,0,0,1,6.905-1.3,39.576,39.576,0,0,1,11.267,1.5.767.767,0,0,0,1.009-.728V8.44a.766.766,0,0,0-.6-.749s-.6-.134-1.63-.323a.767.767,0,0,0-.278,1.509c.392.072.72.136.974.186V41.18A43.331,43.331,0,0,0,30.692,39.9a24.1,24.1,0,0,0-7.643,1.47,17.974,17.974,0,0,0-6.935-1.47A51.7,51.7,0,0,0,4.605,41.212V9.034A50.5,50.5,0,0,1,16.114,7.673a16.635,16.635,0,0,1,6.138,1.264V39.13a.767.767,0,0,0,1.162.658A87.841,87.841,0,0,1,37.84,32.953a.767.767,0,0,0,.525-.728V.768A.768.768,0,0,0,37.327.049,81.618,81.618,0,0,0,24.915,6.255a.767.767,0,1,0,.813,1.3,82.006,82.006,0,0,1,11.1-5.667V31.676A85.984,85.984,0,0,0,23.787,37.8V8.44a.768.768,0,0,0-.424-.687,17.766,17.766,0,0,0-7.248-1.615A49.8,49.8,0,0,0,3.627,7.7a.767.767,0,0,0-.556.737V42.2a.767.767,0,0,0,.767.767.756.756,0,0,0,.21-.03,49.286,49.286,0,0,1,12.066-1.5A16.6,16.6,0,0,1,22.252,42.7v1.8H3.838a2.3,2.3,0,0,1-2.3-2.3V12.276a.767.767,0,0,0-1.534,0V42.2a3.841,3.841,0,0,0,3.836,3.836H42.2A3.841,3.841,0,0,0,46.037,42.2V12.276A.767.767,0,0,0,45.27,11.509Z" transform="translate(-0.002 0)"/>
          <path id="Path_288" data-name="Path 288" class="cls-1" d="M290.213,149.251a.768.768,0,0,0,1.033.335,65.774,65.774,0,0,1,6.789-3.021.768.768,0,0,0-.463-1.464,65.81,65.81,0,0,0-7.022,3.117A.768.768,0,0,0,290.213,149.251Z" transform="translate(-264.044 -132.023)"/>
          <path id="Path_289" data-name="Path 289" class="cls-1" d="M290.213,251.651a.768.768,0,0,0,1.033.335,65.773,65.773,0,0,1,6.789-3.021.768.768,0,0,0-.463-1.464,65.81,65.81,0,0,0-7.022,3.117A.768.768,0,0,0,290.213,251.651Z" transform="translate(-264.044 -225.216)"/>
          <path id="Path_290" data-name="Path 290" class="cls-1" d="M96.25,154.069a24.35,24.35,0,0,0-10.348.365.767.767,0,0,0,.2,1.508.781.781,0,0,0,.2-.026c.051-.015,5.235-1.378,9.6-.354a.767.767,0,1,0,.35-1.494Z" transform="translate(-77.661 -139.83)"/>
          <path id="Path_291" data-name="Path 291" class="cls-1" d="M96.25,205.273a24.364,24.364,0,0,0-10.348.365.767.767,0,0,0,.2,1.508.781.781,0,0,0,.2-.026c.051-.015,5.235-1.378,9.6-.354a.767.767,0,1,0,.35-1.494Z" transform="translate(-77.661 -186.43)"/>
          <path id="Path_292" data-name="Path 292" class="cls-1" d="M290.213,302.851a.768.768,0,0,0,1.033.335,65.771,65.771,0,0,1,6.789-3.021.768.768,0,0,0-.463-1.464,65.812,65.812,0,0,0-7.022,3.117A.768.768,0,0,0,290.213,302.851Z" transform="translate(-264.044 -271.813)"/>
          <path id="Path_293" data-name="Path 293" class="cls-1" d="M96.25,256.471a24.352,24.352,0,0,0-10.348.365.768.768,0,0,0,.2,1.509.777.777,0,0,0,.2-.027c.051-.015,5.235-1.378,9.6-.354a.767.767,0,1,0,.35-1.494Z" transform="translate(-77.661 -233.025)"/>
          <path id="Path_294" data-name="Path 294" class="cls-1" d="M96.25,358.869a24.35,24.35,0,0,0-10.348.365.768.768,0,0,0,.2,1.509.778.778,0,0,0,.2-.027c.051-.015,5.235-1.378,9.6-.354a.767.767,0,1,0,.35-1.494Z" transform="translate(-77.661 -326.216)"/>
          <path id="Path_295" data-name="Path 295" class="cls-1" d="M96.25,307.668a24.336,24.336,0,0,0-10.348.365.768.768,0,0,0,.2,1.509.779.779,0,0,0,.2-.027c.051-.015,5.235-1.378,9.6-.354a.767.767,0,1,0,.35-1.494Z" transform="translate(-77.661 -279.618)"/>
        </g>
      </g>
    </g>
  </g>
</svg>
