<svg xmlns="http://www.w3.org/2000/svg" width="46" height="46" viewBox="0 0 46 46">
  <defs>
    <style>
      .cls-1 {
        fill: #3eaa6d;
      }

      .cls-2 {
        fill: #fff;
      }
    </style>
  </defs>
  <g id="Group_788" data-name="Group 788" transform="translate(-605 -202)">
    <circle id="Ellipse_1641" data-name="Ellipse 1641" class="cls-1" cx="23" cy="23" r="23" transform="translate(605 202)"/>
    <g id="crown_3_" data-name="crown(3)" transform="translate(618.158 216)">
      <path id="Path_4996" data-name="Path 4996" class="cls-2" d="M19.18,15.06a1.856,1.856,0,0,0,.133-.7,1.486,1.486,0,0,0-1.15-1.561L18.62,5.03A1.984,1.984,0,0,0,20.023,3,1.9,1.9,0,0,0,18.343.941,1.9,1.9,0,0,0,16.665,3a2.27,2.27,0,0,0,.59,1.565,3.854,3.854,0,0,1-.813.827,4.151,4.151,0,0,1-1.116-1,2.31,2.31,0,0,0,.481-1.441A1.9,1.9,0,0,0,14.129.886a1.9,1.9,0,0,0-1.678,2.06,2.3,2.3,0,0,0,.5,1.465,4.14,4.14,0,0,1-.962.967,3.971,3.971,0,0,1-1.122-1.531,2.177,2.177,0,0,0,.848-1.79A1.9,1.9,0,0,0,10.038,0,1.9,1.9,0,0,0,8.36,2.059a2.193,2.193,0,0,0,.807,1.76,4.1,4.1,0,0,1-.893,1.343,4.186,4.186,0,0,1-1.094-.991A2.31,2.31,0,0,0,7.662,2.73,1.9,1.9,0,0,0,5.984.67,1.9,1.9,0,0,0,4.3,2.73,2.306,2.306,0,0,0,4.8,4.185,6.163,6.163,0,0,1,3.513,5.341a3.847,3.847,0,0,1-.747-.776A2.268,2.268,0,0,0,3.357,3,1.9,1.9,0,0,0,1.678.941,1.9,1.9,0,0,0,0,3,1.984,1.984,0,0,0,1.4,5.03L1.859,12.8A1.487,1.487,0,0,0,.708,14.364a1.857,1.857,0,0,0,.133.7A1.587,1.587,0,0,0,0,16.533,1.448,1.448,0,0,0,1.278,18.1H18.745a1.448,1.448,0,0,0,1.278-1.569A1.587,1.587,0,0,0,19.18,15.06ZM18.343,1.91A1.007,1.007,0,0,1,19.234,3a1.007,1.007,0,0,1-.89,1.09A1.007,1.007,0,0,1,17.454,3,1.006,1.006,0,0,1,18.343,1.91Zm-4.215-.055a1.007,1.007,0,0,1,.889,1.092,1.007,1.007,0,0,1-.889,1.09,1.006,1.006,0,0,1-.889-1.09A1.007,1.007,0,0,1,14.129,1.855ZM13.64,4.916a1.382,1.382,0,0,0,1-.009,5.379,5.379,0,0,0,.921.979,3.673,3.673,0,0,1-1.852.235,3.482,3.482,0,0,1-.9-.244A5.466,5.466,0,0,0,13.64,4.916ZM9.149,2.059a1.006,1.006,0,0,1,.889-1.09,1.007,1.007,0,0,1,.889,1.09,1.007,1.007,0,0,1-.889,1.092A1.007,1.007,0,0,1,9.149,2.059Zm-3.165-.42A1.007,1.007,0,0,1,6.873,2.73a1.006,1.006,0,0,1-.889,1.09,1.007,1.007,0,0,1-.89-1.09A1.008,1.008,0,0,1,5.984,1.639ZM5.488,4.7A1.383,1.383,0,0,0,6.5,4.69a5.338,5.338,0,0,0,1,1.045A3.44,3.44,0,0,1,6.32,6.12a3.681,3.681,0,0,1-1.96-.275A6.574,6.574,0,0,0,5.488,4.7ZM.789,3a1.006,1.006,0,0,1,.889-1.09A1.007,1.007,0,0,1,2.569,3a1.007,1.007,0,0,1-.89,1.09A1.006,1.006,0,0,1,.789,3Zm1.2,10.764H8.231a.494.494,0,0,0,0-.968H2.649L2.206,5.25a4.608,4.608,0,0,0,1.658,1.4,4.353,4.353,0,0,0,2.544.429,4.157,4.157,0,0,0,2.129-.954l0,0,.016-.014a4.932,4.932,0,0,0,1.371-2c.036,0,.073,0,.11,0l.057,0a4.93,4.93,0,0,0,1.379,2c.092.079.188.153.286.223l.008.006a4.149,4.149,0,0,0,1.856.735,4.457,4.457,0,0,0,4.193-1.835l-.443,7.546H11.806a.494.494,0,0,0,0,.968h6.229a.614.614,0,0,1,0,1.2H1.988a.614.614,0,0,1,0-1.2Zm16.757,3.371H1.278a.613.613,0,0,1,0-1.2H18.745a.613.613,0,0,1,0,1.2Zm0,0"/>
      <path id="Path_4997" data-name="Path 4997" class="cls-2" d="M219.069,138.523c.842,0,1.5-.954,1.5-2.172s-.66-2.171-1.5-2.171-1.5.954-1.5,2.171S218.227,138.523,219.069,138.523Zm0-3.555c.337,0,.713.591.713,1.383s-.377,1.384-.713,1.384-.714-.592-.714-1.384S218.732,134.968,219.069,134.968Zm0,0" transform="translate(-209.058 -127.238)"/>
      <path id="Path_4998" data-name="Path 4998" class="cls-2" d="M246.316,266.473h-.008a.394.394,0,1,0,0,.789h.008a.394.394,0,1,0,0-.789Zm0,0" transform="translate(-236.297 -253.543)"/>
    </g>
  </g>
</svg>
