<svg xmlns="http://www.w3.org/2000/svg" width="255.279" height="255.279" viewBox="0 0 255.279 255.279">
  <defs>
    <style>
      .cls-1 {
        fill: #fff;
      }

      .cls-2 {
        fill: #e0e0e0;
      }

      .cls-3 {
        fill: #f0f0f0;
      }

      .cls-4 {
        fill: #f5f5f5;
      }

      .cls-10, .cls-11, .cls-15, .cls-16, .cls-5 {
        fill: #fafafa;
      }

      .cls-6 {
        fill: #e6e6e6;
      }

      .cls-7 {
        fill: #9f5b53;
      }

      .cls-8 {
        fill: #263238;
      }

      .cls-9 {
        fill: #3eaa6d;
      }

      .cls-10 {
        opacity: 0.6;
      }

      .cls-11 {
        opacity: 0.4;
      }

      .cls-12 {
        fill: #8a4743;
      }

      .cls-13 {
        opacity: 0.2;
      }

      .cls-14 {
        fill: #892b29;
      }

      .cls-15, .cls-18 {
        opacity: 0.3;
      }

      .cls-16 {
        opacity: 0.8;
      }

      .cls-17 {
        opacity: 0.5;
      }
    </style>
  </defs>
  <g id="Group_785" data-name="Group 785" transform="translate(-1118 -377)">
    <circle id="Ellipse_1303" data-name="Ellipse 1303" class="cls-1" cx="127.64" cy="127.64" r="127.64" transform="translate(1118 377)"/>
    <g id="Notebook-rafiki" transform="translate(1133.286 370.639)">
      <g id="freepik--background-complete--inject-67" transform="translate(0 48.361)">
        <rect id="Rectangle_1332" data-name="Rectangle 1332" class="cls-2" width="225.476" height="0.113" transform="translate(0 150.635)"/>
        <rect id="Rectangle_1333" data-name="Rectangle 1333" class="cls-2" width="43.192" height="0.113" transform="translate(23.292 156.317)"/>
        <rect id="Rectangle_1334" data-name="Rectangle 1334" class="cls-2" width="10.327" height="0.113" transform="translate(37.397 154.062)"/>
        <rect id="Rectangle_1335" data-name="Rectangle 1335" class="cls-2" width="20.464" height="0.113" transform="translate(103.047 154.396)"/>
        <rect id="Rectangle_1336" data-name="Rectangle 1336" class="cls-2" width="21.943" height="0.113" transform="translate(172.119 155.163)"/>
        <rect id="Rectangle_1337" data-name="Rectangle 1337" class="cls-2" width="7.856" height="0.113" transform="translate(70.849 156.317)"/>
        <rect id="Rectangle_1338" data-name="Rectangle 1338" class="cls-2" width="3.197" height="0.113" transform="translate(197.742 155.163)"/>
        <path id="Path_5981" data-name="Path 5981" class="cls-2" d="M127.855,182.529H40.78a2.575,2.575,0,0,1-2.57-2.575V57.552A2.575,2.575,0,0,1,40.78,55h87.074a2.575,2.575,0,0,1,2.575,2.575V179.954A2.575,2.575,0,0,1,127.855,182.529ZM40.78,55.09a2.462,2.462,0,0,0-2.458,2.462v122.4a2.462,2.462,0,0,0,2.458,2.462h87.074a2.467,2.467,0,0,0,2.462-2.462V57.552a2.467,2.467,0,0,0-2.462-2.462Z" transform="translate(-20.979 -52.006)"/>
        <path id="Path_5982" data-name="Path 5982" class="cls-2" d="M344.154,182.529H257.075a2.579,2.579,0,0,1-2.575-2.575V57.552A2.579,2.579,0,0,1,257.075,55h87.079a2.575,2.575,0,0,1,2.566,2.552v122.4A2.575,2.575,0,0,1,344.154,182.529ZM257.075,55.09a2.467,2.467,0,0,0-2.462,2.462v122.4a2.467,2.467,0,0,0,2.462,2.462h87.079a2.467,2.467,0,0,0,2.462-2.462V57.552a2.467,2.467,0,0,0-2.462-2.462Z" transform="translate(-139.733 -52.006)"/>
        <rect id="Rectangle_1339" data-name="Rectangle 1339" class="cls-2" width="61.456" height="71.611" transform="translate(129.31 11.395)"/>
        <rect id="Rectangle_1340" data-name="Rectangle 1340" class="cls-3" width="62.344" height="71.611" transform="translate(130.09 11.395)"/>
        <rect id="Rectangle_1341" data-name="Rectangle 1341" class="cls-2" width="61.456" height="4.013" transform="translate(129.31 83.006)"/>
        <rect id="Rectangle_1342" data-name="Rectangle 1342" class="cls-3" width="58.691" height="4.013" transform="translate(141.382 83.006)"/>
        <rect id="Rectangle_1343" data-name="Rectangle 1343" class="cls-4" width="65.537" height="57.668" transform="translate(190.098 14.43) rotate(90)"/>
        <path id="Path_5983" data-name="Path 5983" class="cls-5" d="M312.06,145.9,325.787,80.37H343.78L330.053,145.9Z" transform="translate(-171.336 -65.936)"/>
        <path id="Path_5984" data-name="Path 5984" class="cls-5" d="M358.42,145.9,372.142,80.37h8.126L366.546,145.9Z" transform="translate(-196.79 -65.936)"/>
        <rect id="Rectangle_1344" data-name="Rectangle 1344" class="cls-2" width="59.088" height="0.298" transform="translate(190.098 14.02) rotate(90)"/>
        <path id="Path_5985" data-name="Path 5985" class="cls-2" d="M282.86,71.171v25.5h6.764A37.984,37.984,0,0,0,304.506,72.5a2.706,2.706,0,0,0-2.661-3.157H284.709a1.835,1.835,0,0,0-1.849,1.831Z" transform="translate(-155.304 -59.88)"/>
        <path id="Path_5986" data-name="Path 5986" class="cls-2" d="M282.86,173.313V134.5h6.764s3.878,7.838,7.743,16.848a15.756,15.756,0,0,1-14.489,21.966Z" transform="translate(-155.304 -95.656)"/>
        <rect id="Rectangle_1345" data-name="Rectangle 1345" class="cls-3" width="7.653" height="2.056" rx="1.028" transform="translate(127.128 36.788)"/>
        <path id="Path_5987" data-name="Path 5987" class="cls-2" d="M404.6,71.171v25.5h-6.764A37.965,37.965,0,0,1,382.954,72.5a2.706,2.706,0,0,1,2.656-3.157h17.136a1.835,1.835,0,0,1,1.853,1.831Z" transform="translate(-210.24 -59.879)"/>
        <path id="Path_5988" data-name="Path 5988" class="cls-2" d="M411.8,173.313V134.5h-6.764s-3.878,7.838-7.747,16.848A15.783,15.783,0,0,0,411.8,173.313Z" transform="translate(-217.436 -95.656)"/>
        <rect id="Rectangle_1346" data-name="Rectangle 1346" class="cls-3" width="7.653" height="2.056" rx="1.028" transform="translate(194.775 38.844) rotate(180)"/>
        <path id="Path_5989" data-name="Path 5989" class="cls-2" d="M81.689,126.711a14.808,14.808,0,1,1,0-29.616l.9,0v29.614Z" transform="translate(-36.72 -75.118)"/>
        <circle id="Ellipse_1644" data-name="Ellipse 1644" class="cls-3" cx="14.805" cy="14.805" r="14.805" transform="translate(24.944 36.788) rotate(-45)"/>
        <circle id="Ellipse_1645" data-name="Ellipse 1645" class="cls-5" cx="11.166" cy="11.166" r="11.166" transform="translate(34.714 25.622)"/>
        <path id="Path_5990" data-name="Path 5990" class="cls-2" d="M105.331,124.228l-5.461-3.811,1.732-8.437,1.488.307-1.529,7.454,4.64,3.238Z" transform="translate(-54.834 -83.291)"/>
        <rect id="Rectangle_1347" data-name="Rectangle 1347" class="cls-2" width="19.35" height="62.727" transform="translate(97.996 87.908)"/>
        <path id="Path_5991" data-name="Path 5991" class="cls-3" d="M242.166,371.858h5.168V363.2H236.75Z" transform="translate(-129.987 -221.223)"/>
        <rect id="Rectangle_1348" data-name="Rectangle 1348" class="cls-2" width="19.35" height="62.727" transform="translate(23.531 87.908)"/>
        <rect id="Rectangle_1349" data-name="Rectangle 1349" class="cls-3" width="78.975" height="59.747" transform="translate(38.371 87.908)"/>
        <path id="Path_5992" data-name="Path 5992" class="cls-3" d="M90.258,371.858H85.09V363.2H95.674Z" transform="translate(-46.719 -221.223)"/>
        <rect id="Rectangle_1350" data-name="Rectangle 1350" class="cls-6" width="70.957" height="14.954" transform="translate(42.38 110.171)"/>
        <rect id="Rectangle_1351" data-name="Rectangle 1351" class="cls-6" width="70.957" height="14.954" transform="translate(42.38 128.318)"/>
        <path id="Path_5993" data-name="Path 5993" class="cls-3" d="M163.725,292.691H114.031a2.891,2.891,0,0,1-2.891-2.891h55.467A2.9,2.9,0,0,1,163.725,292.691Z" transform="translate(-61.021 -180.923)"/>
        <rect id="Rectangle_1352" data-name="Rectangle 1352" class="cls-6" width="70.957" height="14.954" transform="translate(42.38 92.025)"/>
        <path id="Path_5994" data-name="Path 5994" class="cls-3" d="M163.725,252.475H114.031a2.891,2.891,0,0,1-2.891-2.9h55.467a2.9,2.9,0,0,1-2.882,2.9Z" transform="translate(-61.021 -158.84)"/>
        <path id="Path_5995" data-name="Path 5995" class="cls-3" d="M163.725,332.935H114.031a2.9,2.9,0,0,1-2.891-2.9h55.467a2.9,2.9,0,0,1-2.882,2.9Z" transform="translate(-61.021 -203.017)"/>
        <path id="Path_5996" data-name="Path 5996" class="cls-2" d="M361.927,327.632H322.843L319.65,282.65h39.084Z" transform="translate(-175.503 -176.997)"/>
        <path id="Path_5997" data-name="Path 5997" class="cls-3" d="M367.835,327.632H325.523L322.33,282.65h42.313Z" transform="translate(-176.975 -176.997)"/>
        <path id="Path_5998" data-name="Path 5998" class="cls-5" d="M333.442,328.4,330.75,290.51h35.224l2.688,37.893Z" transform="translate(-181.598 -181.313)"/>
        <ellipse id="Ellipse_1646" data-name="Ellipse 1646" class="cls-3" cx="10.606" cy="11.387" rx="10.606" ry="11.387" transform="matrix(0.695, -0.719, 0.719, 0.695, 152.554, 127.88)"/>
        <path id="Path_5999" data-name="Path 5999" class="cls-2" d="M163.062,94.7a34.814,34.814,0,0,1,7.215,8.726,22.548,22.548,0,0,1,3.107,9.5c0-4.338,0-9-.036-13.4-.505-1.132-1.65-3.738-2.471-5.8-2.746-6.877-3.77-8.568-6.237-14.5-3.3-7.914-6.67-17.3-5.7-16.55,1.971,1.529,9.515,15.657,10.331,17.677a56.676,56.676,0,0,1,4.059,16.92c0-4.131-.032-7.923-.05-10.85-.05-9.547-.212-12.627-.289-13.578-.307-.487-.667-1.046-.879-1.353-1.772-2.561-2.453-4.744-4.122-8.568-2.367-5.411-4.406-15.03-3.811-14.548,2.48,2.02,4.437,6.363,7.008,11.9s1.835,8.712,2.345,13.438c.108.929.189,4.428.248,9.276.667-5.168,1.921-8.568,4.2-11.666a33.262,33.262,0,0,1,7.517-7.716c1.993-1.339-3.441,8-6.043,12.081-2.313,3.635-4.442,6.841-5.646,10,.063,6.575.095,14.881.095,22.642a45.475,45.475,0,0,1,2.868-10.259c1.56-3.535,3.959-8.951,5.862-10.787.451-.451-2,10.092-3.576,12.9s-2.733,5.438-3.725,7.03c-.234.37-1,1.8-1.439,2.62,0,9.47-.054,17.8-.135,20.645h-.41c.027-.735.032-5.547.023-11.914-.983-3.454-3.233-7.4-5.091-11C166.268,103.629,161.082,93.091,163.062,94.7Z" transform="translate(-87.172 -48.361)"/>
        <path id="Path_6000" data-name="Path 6000" class="cls-6" d="M177.383,229.189h11.824L190.1,217.6H176.49Z" transform="translate(-96.902 -141.282)"/>
        <path id="Path_6001" data-name="Path 6001" class="cls-6" d="M174,215.83H189.37l.442-3.91H173.56Z" transform="translate(-95.293 -138.163)"/>
      </g>
      <g id="freepik--Shadow--inject-67" transform="translate(25.303 209.152)">
        <ellipse id="Ellipse_1647" data-name="Ellipse 1647" class="cls-4" cx="87.435" cy="5.105" rx="87.435" ry="5.105"/>
      </g>
      <g id="freepik--Character--inject-67" transform="translate(46.394 79.525)">
        <path id="Path_6002" data-name="Path 6002" class="cls-7" d="M169.935,398.508h-3.305l-.329-7.648h3.305Z" transform="translate(-137.701 -267.573)"/>
        <path id="Path_6003" data-name="Path 6003" class="cls-7" d="M212.3,398.508H209l-1.66-7.648h3.305Z" transform="translate(-160.234 -267.573)"/>
        <path id="Path_6004" data-name="Path 6004" class="cls-8" d="M204.222,407h3.711a.289.289,0,0,1,.284.225l.654,2.936a.487.487,0,0,1-.487.586c-1.294-.023-1.926-.1-3.558-.1-1,0-3.071.108-4.46.108s-1.565-1.375-1-1.5a8.194,8.194,0,0,0,4.32-2.056.789.789,0,0,1,.537-.2Z" transform="translate(-155.69 -276.435)"/>
        <path id="Path_6005" data-name="Path 6005" class="cls-8" d="M157.366,407h3.608a.288.288,0,0,1,.284.225l.649,2.936a.478.478,0,0,1-.474.586c-1.3-.023-3.184-.1-4.821-.1-1.912,0-3.563.108-5.8.108-1.353,0-1.736-1.375-1.168-1.5,2.584-.568,4.694-.627,6.931-2a1.483,1.483,0,0,1,.794-.257Z" transform="translate(-128.414 -276.435)"/>
        <path id="Path_6006" data-name="Path 6006" class="cls-7" d="M135.554,166.263l-4.46-1.763s-5.127,10.476-6.764,11c-2.2.722-6.71,2.706-9.438,3.1a4.462,4.462,0,0,0-.789,2.3c3.761,1.227,11.774-.406,13.434-1.7C131.346,176.265,135.554,166.263,135.554,166.263Z" transform="translate(-109.033 -143.291)"/>
        <path id="Path_6007" data-name="Path 6007" class="cls-9" d="M150.816,160.281c1.114,2.958-4.51,11.662-4.51,11.662l-6.606-3.608a40.189,40.189,0,0,1,3.815-7.734C145.837,157.138,149.594,157.061,150.816,160.281Z" transform="translate(-123.096 -139.685)"/>
        <path id="Path_6008" data-name="Path 6008" class="cls-10" d="M150.816,160.281c1.114,2.958-4.51,11.662-4.51,11.662l-6.606-3.608a40.189,40.189,0,0,1,3.815-7.734C145.837,157.138,149.594,157.061,150.816,160.281Z" transform="translate(-123.096 -139.685)"/>
        <path id="Path_6009" data-name="Path 6009" class="cls-9" d="M156.109,163.713c-1.294-.613-2.746-.1-4.207,2.34a25.7,25.7,0,0,0-2.742,7.689L151.482,175S156.691,166.95,156.109,163.713Z" transform="translate(-128.29 -142.729)"/>
        <path id="Path_6010" data-name="Path 6010" class="cls-11" d="M156.109,163.713c-1.294-.613-2.746-.1-4.207,2.34a25.7,25.7,0,0,0-2.742,7.689L151.482,175S156.691,166.95,156.109,163.713Z" transform="translate(-128.29 -142.729)"/>
        <path id="Path_6011" data-name="Path 6011" class="cls-7" d="M111.078,193.833l-3.725-1.533-1.263,4.032a15.089,15.089,0,0,0,4.51,0Z" transform="translate(-104.642 -158.554)"/>
        <path id="Path_6012" data-name="Path 6012" class="cls-7" d="M102.88,192.09l.063,2.679,1.384,1.448,1.263-4.027Z" transform="translate(-102.88 -158.439)"/>
        <path id="Path_6013" data-name="Path 6013" class="cls-12" d="M166.31,390.86l.167,3.946h3.305l-.171-3.946Z" transform="translate(-137.706 -267.573)"/>
        <path id="Path_6014" data-name="Path 6014" class="cls-12" d="M210.645,390.86H207.34l.857,3.946H211.5Z" transform="translate(-160.234 -267.573)"/>
        <path id="Path_6015" data-name="Path 6015" class="cls-9" d="M153.467,156.878s-3.9,9.975-.194,28.559h17.668c.122-2.706-1.583-15.95,1.037-28.73a46.114,46.114,0,0,0-5.916-.749,65.189,65.189,0,0,0-7.513,0A33.04,33.04,0,0,0,153.467,156.878Z" transform="translate(-129.671 -138.541)"/>
        <path id="Path_6016" data-name="Path 6016" class="cls-10" d="M153.467,156.878s-3.9,9.975-.194,28.559h17.668c.122-2.706-1.583-15.95,1.037-28.73a46.114,46.114,0,0,0-5.916-.749,65.189,65.189,0,0,0-7.513,0A33.04,33.04,0,0,0,153.467,156.878Z" transform="translate(-129.671 -138.541)"/>
        <path id="Path_6017" data-name="Path 6017" class="cls-9" d="M188.1,162.378c-.293,2.1.37,7.134,2.372,12.951a84.657,84.657,0,0,1,1.222-14.836v-.027C190.53,160.349,188.384,160.407,188.1,162.378Z" transform="translate(-149.633 -141.056)"/>
        <path id="Path_6018" data-name="Path 6018" class="cls-11" d="M188.1,162.378c-.293,2.1.37,7.134,2.372,12.951a84.657,84.657,0,0,1,1.222-14.836v-.027C190.53,160.349,188.384,160.407,188.1,162.378Z" transform="translate(-149.633 -141.056)"/>
        <path id="Path_6019" data-name="Path 6019" class="cls-5" d="M164.052,156.089c.37-.05.753-.095,1.141-.131a65.2,65.2,0,0,1,7.513,0c.316,0,.631.036.947.063l-.108.271c-.05.122-1.254,3.021-6.313,3.021-.663,0-2.67,0-3.3-1.353a2.178,2.178,0,0,1,.122-1.871Z" transform="translate(-136.314 -138.541)"/>
        <path id="Path_6020" data-name="Path 6020" class="cls-7" d="M172.822,140.51c-.474,2.417-.708,5.411.983,7.026,0,0-.974,2.453-5.466,2.453-4.1,0-2.047-2.453-2.047-2.453,2.706-.64,2.552-3.973,2.083-5.862Z" transform="translate(-137.414 -130.119)"/>
        <path id="Path_6021" data-name="Path 6021" class="cls-12" d="M176.324,143.881l-3.184-1.321-.41.108a6.886,6.886,0,0,0,.5,1.614,5.862,5.862,0,0,0,3.378,2.706A8.262,8.262,0,0,1,176.324,143.881Z" transform="translate(-141.231 -131.245)"/>
        <path id="Path_6022" data-name="Path 6022" class="cls-12" d="M187.415,138.689a3.157,3.157,0,0,1-2.151,1.024c-1.091.05-1.393-.988-.9-1.889.451-.812,1.578-1.8,2.575-1.439a1.4,1.4,0,0,1,.478,2.3Z" transform="translate(-147.492 -127.811)"/>
        <path id="Path_6023" data-name="Path 6023" class="cls-8" d="M187.515,124.419c1.488.952,1.578,5.6-.649,6.273S184.71,122.606,187.515,124.419Z" transform="translate(-148.129 -121.148)"/>
        <path id="Path_6024" data-name="Path 6024" class="cls-7" d="M170.959,125.088c-.361,3.26-.735,5.15.609,7.084a4.354,4.354,0,0,0,7.58-.961c1.2-2.778,1.583-7.639-1.353-9.47a4.473,4.473,0,0,0-6.836,3.346Z" transform="translate(-140.073 -119.436)"/>
        <path id="Path_6025" data-name="Path 6025" class="cls-8" d="M168.628,125.121c.87.451,1.953-1.678,2.178-3.905,1.479,1.4,9.921,1.227,8.645-.8-1.975-3.157-9.163-3.833-10.286-1.754C167.113,118.749,166.648,124.134,168.628,125.121Z" transform="translate(-138.283 -117.468)"/>
        <path id="Path_6026" data-name="Path 6026" class="cls-7" d="M166.607,134.87a3.125,3.125,0,0,0,1.678,1.691c1.015.41,1.646-.451,1.47-1.484-.162-.9-.879-2.255-1.944-2.219a1.4,1.4,0,0,0-1.2,2.011Z" transform="translate(-137.791 -125.918)"/>
        <path id="Path_6027" data-name="Path 6027" class="cls-9" d="M154.936,221.46s-.451,24.7-.1,34.777c.374,10.48,4.036,44.793,4.036,44.793h5.6s.207-33.7.451-43.995c.271-11.22,1.628-35.576,1.628-35.576Z" transform="translate(-131.333 -174.565)"/>
        <path id="Path_6028" data-name="Path 6028" class="cls-9" d="M168.994,393.835c.027,0,0,1.831,0,1.831h-6.453l-.271-2.056Z" transform="translate(-135.488 -269.083)"/>
        <path id="Path_6029" data-name="Path 6029" class="cls-10" d="M168.994,393.835c.027,0,0,1.831,0,1.831h-6.453l-.271-2.056Z" transform="translate(-135.488 -269.083)"/>
        <path id="Path_6030" data-name="Path 6030" class="cls-9" d="M172.36,236c.1,12.257.843,19.7,2.358,25.7.194-5.862.559-13.578.9-20Z" transform="translate(-141.028 -182.548)"/>
        <path id="Path_6031" data-name="Path 6031" class="cls-13" d="M172.36,236c.1,12.257.843,19.7,2.358,25.7.194-5.862.559-13.578.9-20Z" transform="translate(-141.028 -182.548)"/>
        <path id="Path_6032" data-name="Path 6032" class="cls-9" d="M169.12,221.46s3.747,25.253,5.808,34.723c2.255,10.372,10.746,44.865,10.746,44.865h6.052s-5.6-33.668-6.886-43.923c-1.4-11.134-4.32-35.625-4.32-35.625Z" transform="translate(-139.249 -174.565)"/>
        <path id="Path_6033" data-name="Path 6033" class="cls-9" d="M210.8,394.113c.023,0,.3,1.691.3,1.691h-6.652l-.591-1.944Z" transform="translate(-158.323 -269.221)"/>
        <path id="Path_6034" data-name="Path 6034" class="cls-10" d="M210.8,394.113c.023,0,.3,1.691.3,1.691h-6.652l-.591-1.944Z" transform="translate(-158.323 -269.221)"/>
        <path id="Path_6035" data-name="Path 6035" class="cls-9" d="M201.376,301.822a.068.068,0,0,1-.059-.05c-.05-.307-5.1-30.705-6.255-39.918-1.254-10-3.9-32.171-3.923-32.4a.054.054,0,0,1,.05-.059.059.059,0,0,1,.063.05c.027.221,2.665,22.394,3.923,32.392,1.154,9.213,6.205,39.607,6.255,39.914a.054.054,0,0,1-.045.063Z" transform="translate(-151.339 -178.924)"/>
        <path id="Path_6036" data-name="Path 6036" class="cls-13" d="M201.376,301.822a.068.068,0,0,1-.059-.05c-.05-.307-5.1-30.705-6.255-39.918-1.254-10-3.9-32.171-3.923-32.4a.054.054,0,0,1,.05-.059.059.059,0,0,1,.063.05c.027.221,2.665,22.394,3.923,32.392,1.154,9.213,6.205,39.607,6.255,39.914a.054.054,0,0,1-.045.063Z" transform="translate(-151.339 -178.924)"/>
        <path id="Path_6037" data-name="Path 6037" class="cls-8" d="M181.865,133.36c-.05.262.054.5.225.528s.347-.158.392-.424-.054-.5-.225-.528S181.919,133.094,181.865,133.36Z" transform="translate(-146.24 -125.959)"/>
        <path id="Path_6038" data-name="Path 6038" class="cls-8" d="M188.447,134.48c-.045.262.054.5.225.528s.347-.158.4-.424-.059-.5-.23-.528S188.492,134.223,188.447,134.48Z" transform="translate(-149.854 -126.574)"/>
        <path id="Path_6039" data-name="Path 6039" class="cls-14" d="M185.788,134.94a9.656,9.656,0,0,0,.866,2.462,1.529,1.529,0,0,1-1.294,0Z" transform="translate(-148.166 -127.061)"/>
        <path id="Path_6040" data-name="Path 6040" class="cls-8" d="M181.344,140.188a.081.081,0,0,0,.09-.063.077.077,0,0,0-.063-.09,2.115,2.115,0,0,1-1.556-1.091.081.081,0,0,0-.1-.041.077.077,0,0,0-.041.1A2.255,2.255,0,0,0,181.344,140.188Z" transform="translate(-145.038 -129.233)"/>
        <path id="Path_6041" data-name="Path 6041" class="cls-8" d="M180.122,130.545a.158.158,0,0,0,.135-.041,1.254,1.254,0,0,1,1.073-.343.158.158,0,0,0,.189-.113.149.149,0,0,0-.113-.189,1.542,1.542,0,0,0-1.353.415.162.162,0,0,0,0,.225A.189.189,0,0,0,180.122,130.545Z" transform="translate(-145.228 -124.258)"/>
        <path id="Path_6042" data-name="Path 6042" class="cls-8" d="M190.537,131.724a.171.171,0,0,0,.068,0,.158.158,0,0,0,.095-.2,1.565,1.565,0,0,0-1.024-1,.158.158,0,0,0-.189.117.162.162,0,0,0,.117.189h0a1.231,1.231,0,0,1,.8.8A.144.144,0,0,0,190.537,131.724Z" transform="translate(-150.429 -124.634)"/>
        <path id="Path_6043" data-name="Path 6043" class="cls-7" d="M193.964,162.69,190,165.36s5.718,10.169,5.236,11.8c-.654,2.219-1.565,7.071-2.8,9.529a4.675,4.675,0,0,0,1.448,1.957c3.157-2.4,6.349-9.921,6.228-12.027C199.817,171.849,193.964,162.69,193.964,162.69Z" transform="translate(-150.713 -142.297)"/>
        <path id="Path_6044" data-name="Path 6044" class="cls-9" d="M191.045,157.676c3.125.451,6.706,11.274,6.706,11.274l-6.57,3.72a80.721,80.721,0,0,1-4.32-8.978C185.372,159.688,187.69,157.189,191.045,157.676Z" transform="translate(-148.737 -139.511)"/>
        <path id="Path_6045" data-name="Path 6045" class="cls-10" d="M191.045,157.676c3.125.451,6.706,11.274,6.706,11.274l-6.57,3.72a80.721,80.721,0,0,1-4.32-8.978C185.372,159.688,187.69,157.189,191.045,157.676Z" transform="translate(-148.737 -139.511)"/>
        <path id="Path_6046" data-name="Path 6046" class="cls-9" d="M207.1,407.232a.992.992,0,0,1-.636-.167.483.483,0,0,1-.162-.415.257.257,0,0,1,.135-.221c.361-.185,1.43.451,1.551.546a.072.072,0,0,1,.036.077.077.077,0,0,1-.059.063A3.721,3.721,0,0,1,207.1,407.232Zm-.487-.681a.208.208,0,0,0-.1,0c-.023,0-.045.032-.05.095a.325.325,0,0,0,.1.284,1.61,1.61,0,0,0,1.172.059,3.13,3.13,0,0,0-1.127-.437Z" transform="translate(-159.665 -276.103)"/>
        <path id="Path_6047" data-name="Path 6047" class="cls-9" d="M208.808,406.188h-.041c-.343-.189-1-.9-.933-1.281a.257.257,0,0,1,.253-.2.415.415,0,0,1,.334.1c.383.316.451,1.267.451,1.308a.1.1,0,0,1-.036.072Zm-.667-1.353H208.1c-.1,0-.113.059-.113.081-.045.216.379.762.717,1.024a1.876,1.876,0,0,0-.388-1.037.288.288,0,0,0-.2-.068Z" transform="translate(-160.502 -275.172)"/>
        <path id="Path_6048" data-name="Path 6048" class="cls-9" d="M162.844,407.238a1.276,1.276,0,0,1-.8-.2.451.451,0,0,1-.144-.383.244.244,0,0,1,.131-.207c.4-.225,1.727.451,1.876.528a.068.068,0,0,1,.041.081.072.072,0,0,1-.059.063A5.376,5.376,0,0,1,162.844,407.238Zm-.6-.685a.339.339,0,0,0-.149.027.1.1,0,0,0-.05.086.311.311,0,0,0,.095.253,2.151,2.151,0,0,0,1.479.09,4.274,4.274,0,0,0-1.362-.455Z" transform="translate(-135.281 -276.105)"/>
        <path id="Path_6049" data-name="Path 6049" class="cls-9" d="M164.885,406.186h-.032c-.4-.176-1.186-.9-1.127-1.267,0-.086.077-.194.293-.216a.545.545,0,0,1,.451.135,2.237,2.237,0,0,1,.514,1.272.081.081,0,0,1-.036.068A.059.059,0,0,1,164.885,406.186Zm-.8-1.353h-.05c-.14,0-.149.072-.153.09-.036.225.5.785.9,1.028a1.872,1.872,0,0,0-.451-1.019.419.419,0,0,0-.248-.1Z" transform="translate(-136.286 -275.17)"/>
        <path id="Path_6050" data-name="Path 6050" class="cls-7" d="M191.517,215.6l-3.157-.244,1.655,3.481s2.755.122,3.215-1.984Z" transform="translate(-149.813 -171.215)"/>
        <path id="Path_6051" data-name="Path 6051" class="cls-7" d="M182.73,216.947l1.65,3.075,2.557-1.186-1.655-3.477Z" transform="translate(-146.722 -171.215)"/>
        <path id="Path_6052" data-name="Path 6052" class="cls-9" d="M121.107,283.917H116.7L106.69,175.806l4.365-.406Z" transform="translate(-104.972 -149.275)"/>
        <path id="Path_6053" data-name="Path 6053" class="cls-15" d="M121.107,283.917H116.7L106.69,175.806l4.365-.406Z" transform="translate(-104.972 -149.275)"/>
        <path id="Path_6054" data-name="Path 6054" class="cls-9" d="M140.539,282.934h-4.4L126.05,174.016l4.365-.406Z" transform="translate(-115.601 -148.293)"/>
        <path id="Path_6055" data-name="Path 6055" class="cls-15" d="M140.539,282.934h-4.4L126.05,174.016l4.365-.406Z" transform="translate(-115.601 -148.293)"/>
        <path id="Path_6056" data-name="Path 6056" class="cls-9" d="M130.823,283.428h-4.4L116.37,174.911l4.365-.4Z" transform="translate(-110.287 -148.787)"/>
        <path id="Path_6057" data-name="Path 6057" class="cls-11" d="M130.823,283.428h-4.4L116.37,174.911l4.365-.4Z" transform="translate(-110.287 -148.787)"/>
        <path id="Path_6058" data-name="Path 6058" class="cls-9" d="M114.5,157.75l-3.928.365-3.883,8,13.1-1.213Z" transform="translate(-104.972 -139.585)"/>
        <path id="Path_6059" data-name="Path 6059" class="cls-16" d="M114.5,157.75l-3.928.365-3.883,8,13.1-1.213Z" transform="translate(-104.972 -139.585)"/>
        <path id="Path_6060" data-name="Path 6060" class="cls-9" d="M116.96,150.95l-1.66,3.432,3.928-.365Z" transform="translate(-109.699 -135.851)"/>
        <path id="Path_6061" data-name="Path 6061" class="cls-11" d="M116.96,150.95l-1.66,3.432,3.928-.365Z" transform="translate(-109.699 -135.851)"/>
      </g>
      <g id="freepik--Document--inject-67" transform="translate(86.19 88.973)">
        <path id="Path_6062" data-name="Path 6062" class="cls-9" d="M371.752,140.658l-5.123-.568h0a52.353,52.353,0,0,1-1,10.471l-1.768,8.852,5.118.568,1.768-8.852a52.306,52.306,0,0,0,1-10.471Z" transform="translate(-285.967 -139.337)"/>
        <path id="Path_6063" data-name="Path 6063" class="cls-11" d="M371.752,140.658l-5.123-.568h0a52.353,52.353,0,0,1-1,10.471l-1.768,8.852,5.118.568,1.768-8.852a52.306,52.306,0,0,0,1-10.471Z" transform="translate(-285.967 -139.337)"/>
        <path id="Path_6064" data-name="Path 6064" class="cls-9" d="M291.374,164.75H212.345L202.55,278.074h79.029Z" transform="translate(-197.4 -152.876)"/>
        <path id="Path_6065" data-name="Path 6065" class="cls-16" d="M291.374,164.75H212.345L202.55,278.074h79.029Z" transform="translate(-197.4 -152.876)"/>
        <path id="Path_6066" data-name="Path 6066" class="cls-9" d="M282.062,403.6H203.037l-.487,5.614h79.029Z" transform="translate(-197.4 -284.017)"/>
        <path id="Path_6067" data-name="Path 6067" class="cls-11" d="M282.062,403.6H203.037l-.487,5.614h79.029Z" transform="translate(-197.4 -284.017)"/>
        <path id="Path_6068" data-name="Path 6068" class="cls-5" d="M279.954,164.75H200.925L191.13,278.074h79.029Z" transform="translate(-191.13 -152.876)"/>
        <path id="Path_6069" data-name="Path 6069" class="cls-9" d="M270.642,403.6H191.617l-.487,5.614h79.029Z" transform="translate(-191.13 -284.017)"/>
        <path id="Path_6070" data-name="Path 6070" class="cls-10" d="M270.642,403.6H191.617l-.487,5.614h79.029Z" transform="translate(-191.13 -284.017)"/>
        <path id="Path_6071" data-name="Path 6071" class="cls-9" d="M291.755,177.129h-69.18a.1.1,0,0,1-.095-.095.1.1,0,0,1,.095-.095h69.18a.1.1,0,0,1,.1.095.095.095,0,0,1-.1.095Z" transform="translate(-208.343 -159.569)"/>
        <path id="Path_6072" data-name="Path 6072" class="cls-9" d="M290.885,187.219H221.7a.1.1,0,0,1-.095-.095.1.1,0,0,1,.095-.095h69.18a.095.095,0,0,1,0,.189Z" transform="translate(-207.865 -165.109)"/>
        <path id="Path_6073" data-name="Path 6073" class="cls-9" d="M290.043,197.309H220.885a.095.095,0,0,1,0-.189h69.158a.095.095,0,1,1,0,.189Z" transform="translate(-207.415 -170.649)"/>
        <path id="Path_6074" data-name="Path 6074" class="cls-9" d="M289.145,207.4h-69.18a.095.095,0,1,1,0-.189h69.18a.095.095,0,1,1,0,.189Z" transform="translate(-206.91 -176.189)"/>
        <path id="Path_6075" data-name="Path 6075" class="cls-9" d="M288.275,217.489h-69.18a.095.095,0,1,1,0-.189h69.18a.095.095,0,0,1,0,.189Z" transform="translate(-206.432 -181.729)"/>
        <path id="Path_6076" data-name="Path 6076" class="cls-9" d="M287.4,227.579H218.225a.095.095,0,1,1,0-.189H287.4a.095.095,0,0,1,0,.189Z" transform="translate(-205.954 -187.269)"/>
        <path id="Path_6077" data-name="Path 6077" class="cls-9" d="M286.525,237.669h-69.18a.095.095,0,0,1,0-.189h69.18a.095.095,0,1,1,0,.189Z" transform="translate(-205.471 -192.809)"/>
        <path id="Path_6078" data-name="Path 6078" class="cls-9" d="M285.655,247.769h-69.18a.095.095,0,1,1,0-.189h69.18a.095.095,0,1,1,0,.189Z" transform="translate(-204.993 -198.354)"/>
        <path id="Path_6079" data-name="Path 6079" class="cls-9" d="M284.785,257.849H215.6a.095.095,0,1,1,0-.189h69.18a.095.095,0,0,1,0,.189Z" transform="translate(-204.516 -203.889)"/>
        <path id="Path_6080" data-name="Path 6080" class="cls-9" d="M283.915,267.939h-69.18a.095.095,0,1,1,0-.189h69.18a.1.1,0,0,1,.095.095A.1.1,0,0,1,283.915,267.939Z" transform="translate(-204.038 -209.428)"/>
        <path id="Path_6081" data-name="Path 6081" class="cls-9" d="M283.021,278.021H213.854a.1.1,0,1,1,0-.194H283.03a.1.1,0,1,1,0,.194Z" transform="translate(-203.54 -214.96)"/>
        <path id="Path_6082" data-name="Path 6082" class="cls-9" d="M282.185,288.114H213a.1.1,0,0,1,0-.194h69.18a.1.1,0,0,1,0,.194Z" transform="translate(-203.097 -220.503)"/>
        <path id="Path_6083" data-name="Path 6083" class="cls-9" d="M281.295,298.2h-69.18a.1.1,0,0,1,0-.194h69.18a.1.1,0,0,1,0,.194Z" transform="translate(-202.599 -226.043)"/>
        <path id="Path_6084" data-name="Path 6084" class="cls-9" d="M280.425,308.294h-69.18a.1.1,0,0,1,0-.194h69.18a.1.1,0,0,1,0,.194Z" transform="translate(-202.122 -231.583)"/>
        <path id="Path_6085" data-name="Path 6085" class="cls-9" d="M279.555,318.384h-69.18a.1.1,0,0,1,0-.194h69.18a.1.1,0,0,1,0,.194Z" transform="translate(-201.644 -237.123)"/>
        <path id="Path_6086" data-name="Path 6086" class="cls-9" d="M278.641,328.471H209.474a.1.1,0,1,1,0-.194h69.167a.1.1,0,1,1,0,.194Z" transform="translate(-201.136 -242.66)"/>
        <path id="Path_6087" data-name="Path 6087" class="cls-9" d="M277.805,338.559h-69.18a.095.095,0,0,1,0-.189h69.18a.095.095,0,0,1,0,.189Z" transform="translate(-200.683 -248.202)"/>
        <path id="Path_6088" data-name="Path 6088" class="cls-9" d="M276.935,348.649h-69.18a.095.095,0,1,1,0-.189h69.18a.095.095,0,0,1,0,.189Z" transform="translate(-200.206 -253.742)"/>
        <path id="Path_6089" data-name="Path 6089" class="cls-9" d="M276.065,358.769h-69.18a.095.095,0,0,1,0-.189h69.18a.095.095,0,0,1,0,.189Z" transform="translate(-199.728 -259.299)"/>
        <path id="Path_6090" data-name="Path 6090" class="cls-9" d="M275.2,368.829h-69.18a.095.095,0,1,1,0-.189H275.2a.095.095,0,0,1,0,.189Z" transform="translate(-199.25 -264.822)"/>
        <path id="Path_6091" data-name="Path 6091" class="cls-9" d="M274.321,378.919H205.145a.095.095,0,1,1,0-.189h69.176a.095.095,0,1,1,0,.189Z" transform="translate(-198.773 -270.362)"/>
        <path id="Path_6092" data-name="Path 6092" class="cls-9" d="M273.445,389.009h-69.18a.095.095,0,1,1,0-.189h69.18a.095.095,0,0,1,0,.189Z" transform="translate(-198.29 -275.902)"/>
        <g id="Group_770" data-name="Group 770" class="cls-17" transform="translate(5.88 17.371)">
          <path id="Path_6093" data-name="Path 6093" class="cls-5" d="M291.755,177.129h-69.18a.1.1,0,0,1-.095-.095.1.1,0,0,1,.095-.095h69.18a.1.1,0,0,1,.1.095.095.095,0,0,1-.1.095Z" transform="translate(-214.223 -176.94)"/>
          <path id="Path_6094" data-name="Path 6094" class="cls-5" d="M290.885,187.219H221.7a.1.1,0,0,1-.095-.095.1.1,0,0,1,.095-.095h69.18a.095.095,0,0,1,0,.189Z" transform="translate(-213.745 -182.48)"/>
          <path id="Path_6095" data-name="Path 6095" class="cls-5" d="M290.043,197.309H220.885a.095.095,0,0,1,0-.189h69.158a.095.095,0,1,1,0,.189Z" transform="translate(-213.295 -188.02)"/>
          <path id="Path_6096" data-name="Path 6096" class="cls-5" d="M289.145,207.4h-69.18a.095.095,0,1,1,0-.189h69.18a.095.095,0,1,1,0,.189Z" transform="translate(-212.79 -193.56)"/>
          <path id="Path_6097" data-name="Path 6097" class="cls-5" d="M288.275,217.489h-69.18a.095.095,0,1,1,0-.189h69.18a.095.095,0,0,1,0,.189Z" transform="translate(-212.312 -199.1)"/>
          <path id="Path_6098" data-name="Path 6098" class="cls-5" d="M287.4,227.579H218.225a.095.095,0,1,1,0-.189H287.4a.095.095,0,0,1,0,.189Z" transform="translate(-211.835 -204.639)"/>
          <path id="Path_6099" data-name="Path 6099" class="cls-5" d="M286.525,237.669h-69.18a.095.095,0,0,1,0-.189h69.18a.095.095,0,1,1,0,.189Z" transform="translate(-211.352 -210.179)"/>
          <path id="Path_6100" data-name="Path 6100" class="cls-5" d="M285.655,247.769h-69.18a.095.095,0,1,1,0-.189h69.18a.095.095,0,1,1,0,.189Z" transform="translate(-210.874 -215.725)"/>
          <path id="Path_6101" data-name="Path 6101" class="cls-5" d="M284.785,257.849H215.6a.095.095,0,1,1,0-.189h69.18a.095.095,0,0,1,0,.189Z" transform="translate(-210.396 -221.259)"/>
          <path id="Path_6102" data-name="Path 6102" class="cls-5" d="M283.915,267.939h-69.18a.095.095,0,1,1,0-.189h69.18a.1.1,0,0,1,.095.095A.1.1,0,0,1,283.915,267.939Z" transform="translate(-209.919 -226.799)"/>
          <path id="Path_6103" data-name="Path 6103" class="cls-5" d="M283.021,278.021H213.854a.1.1,0,1,1,0-.194H283.03a.1.1,0,1,1,0,.194Z" transform="translate(-209.421 -232.331)"/>
          <path id="Path_6104" data-name="Path 6104" class="cls-5" d="M282.185,288.114H213a.1.1,0,0,1,0-.194h69.18a.1.1,0,0,1,0,.194Z" transform="translate(-208.978 -237.873)"/>
          <path id="Path_6105" data-name="Path 6105" class="cls-5" d="M281.295,298.2h-69.18a.1.1,0,0,1,0-.194h69.18a.1.1,0,0,1,0,.194Z" transform="translate(-208.48 -243.413)"/>
          <path id="Path_6106" data-name="Path 6106" class="cls-5" d="M280.425,308.294h-69.18a.1.1,0,0,1,0-.194h69.18a.1.1,0,0,1,0,.194Z" transform="translate(-208.002 -248.953)"/>
          <path id="Path_6107" data-name="Path 6107" class="cls-5" d="M279.555,318.384h-69.18a.1.1,0,0,1,0-.194h69.18a.1.1,0,0,1,0,.194Z" transform="translate(-207.525 -254.493)"/>
          <path id="Path_6108" data-name="Path 6108" class="cls-5" d="M278.641,328.471H209.474a.1.1,0,1,1,0-.194h69.167a.1.1,0,1,1,0,.194Z" transform="translate(-207.016 -260.03)"/>
          <path id="Path_6109" data-name="Path 6109" class="cls-5" d="M277.805,338.559h-69.18a.095.095,0,0,1,0-.189h69.18a.095.095,0,0,1,0,.189Z" transform="translate(-206.564 -265.573)"/>
          <path id="Path_6110" data-name="Path 6110" class="cls-5" d="M276.935,348.649h-69.18a.095.095,0,1,1,0-.189h69.18a.095.095,0,0,1,0,.189Z" transform="translate(-206.086 -271.113)"/>
          <path id="Path_6111" data-name="Path 6111" class="cls-5" d="M276.065,358.769h-69.18a.095.095,0,0,1,0-.189h69.18a.095.095,0,0,1,0,.189Z" transform="translate(-205.608 -276.669)"/>
          <path id="Path_6112" data-name="Path 6112" class="cls-5" d="M275.2,368.829h-69.18a.095.095,0,1,1,0-.189H275.2a.095.095,0,0,1,0,.189Z" transform="translate(-205.131 -282.193)"/>
          <path id="Path_6113" data-name="Path 6113" class="cls-5" d="M274.321,378.919H205.145a.095.095,0,1,1,0-.189h69.176a.095.095,0,1,1,0,.189Z" transform="translate(-204.653 -287.733)"/>
          <path id="Path_6114" data-name="Path 6114" class="cls-5" d="M273.445,389.009h-69.18a.095.095,0,1,1,0-.189h69.18a.095.095,0,0,1,0,.189Z" transform="translate(-204.17 -293.272)"/>
        </g>
        <path id="Path_6115" data-name="Path 6115" class="cls-9" d="M341.345,273.436h0a.054.054,0,0,1-.045-.054l8.861-102.5c0-.027.023-.041.05-.045a.054.054,0,0,1,.045.054l-8.866,102.5A.045.045,0,0,1,341.345,273.436Z" transform="translate(-273.581 -156.22)"/>
        <path id="Path_6116" data-name="Path 6116" class="cls-18" d="M341.345,273.436h0a.054.054,0,0,1-.045-.054l8.861-102.5c0-.027.023-.041.05-.045a.054.054,0,0,1,.045.054l-8.866,102.5A.045.045,0,0,1,341.345,273.436Z" transform="translate(-273.581 -156.22)"/>
        <path id="Path_6117" data-name="Path 6117" class="cls-9" d="M350.2,138.42h-5.15a51.863,51.863,0,0,1,.162,10.516l-.776,9h5.15l.776-9a51.863,51.863,0,0,0-.162-10.516Z" transform="translate(-275.305 -138.42)"/>
        <path id="Path_6118" data-name="Path 6118" class="cls-18" d="M350.2,138.42h-5.15a51.863,51.863,0,0,1,.162,10.516l-.776,9h5.15l.776-9a51.863,51.863,0,0,0-.162-10.516Z" transform="translate(-275.305 -138.42)"/>
        <path id="Path_6119" data-name="Path 6119" class="cls-8" d="M239.405,182.472h-.036a.1.1,0,0,1-.077-.1.9.9,0,0,0-.334-.627,1.754,1.754,0,0,0-1.3-.343,5.905,5.905,0,0,0-1.064.289,5.483,5.483,0,0,1-1.181.307,2.855,2.855,0,0,1-2.043-.6,1.971,1.971,0,0,1-1.98.866,1.948,1.948,0,0,1-1.276-.9.69.69,0,0,0-.9-.235,19.292,19.292,0,0,1-1.8.8.117.117,0,0,1-.095,0,.113.113,0,0,1-.054-.081,1.8,1.8,0,0,1,0-.451.352.352,0,0,0-.126-.32.3.3,0,0,0-.293-.05,2.326,2.326,0,0,0-.685.356l-.1.077c-.451.352-.839.613-1.1.577a.293.293,0,0,1-.189-.113.722.722,0,0,1-.1-.5,1.844,1.844,0,0,1,1.434-1.574.112.112,0,1,1,.041.221,1.605,1.605,0,0,0-1.249,1.375.514.514,0,0,0,.059.343.05.05,0,0,0,.041.023c.189.027.654-.32.933-.532l.1-.077a2.678,2.678,0,0,1,.749-.392.523.523,0,0,1,.505.09.568.568,0,0,1,.212.519,1.468,1.468,0,0,0,0,.244,17.582,17.582,0,0,0,1.628-.735.9.9,0,0,1,1.2.325,1.669,1.669,0,0,0,2.936-.059.1.1,0,0,1,.077-.059.117.117,0,0,1,.095.027,2.607,2.607,0,0,0,1.975.631,5.5,5.5,0,0,0,1.132-.293,6.155,6.155,0,0,1,1.1-.3,2.016,2.016,0,0,1,1.479.392,1.1,1.1,0,0,1,.37.541,3.611,3.611,0,0,1,2.647-1.574.492.492,0,0,1,.374.144.523.523,0,0,1,.072.415l-.126.951a4.789,4.789,0,0,0,1.43-1.227,2.8,2.8,0,0,1,.636-.622.658.658,0,0,1,.812-.027,1,1,0,0,1,.3.537.484.484,0,0,0,.059.171.546.546,0,0,0,.266.3.162.162,0,0,0,.144,0,.113.113,0,0,1,.149.054.117.117,0,0,1-.054.153.406.406,0,0,1-.325,0,.767.767,0,0,1-.388-.424c-.027-.059-.045-.122-.068-.185a.834.834,0,0,0-.225-.451.451.451,0,0,0-.537.023,2.535,2.535,0,0,0-.582.573,4.96,4.96,0,0,1-1.7,1.389.107.107,0,0,1-.162-.108l.153-1.168c0-.09.023-.189-.023-.239s-.1-.059-.2-.063h-.068a3.775,3.775,0,0,0-2.557,1.682A.122.122,0,0,1,239.405,182.472Z" transform="translate(-209.534 -161.165)"/>
        <path id="Path_6120" data-name="Path 6120" class="cls-8" d="M296.245,182.44a1.353,1.353,0,0,1-1.037-.713,4.788,4.788,0,0,1-.253-.505,4,4,0,0,0-.307-.586,4.852,4.852,0,0,1-1.727.97.1.1,0,0,1-.108,0,.108.108,0,0,1-.036-.108,3.388,3.388,0,0,0,.068-.523.87.87,0,0,0-.361-.753.834.834,0,0,0-.807-.1l-1.3.5c-.207.077-.834.32-1.172-.063a1.226,1.226,0,0,1-.108-.158.451.451,0,0,0-.149-.167c-.1-.05-.244.023-.37.1-.825.51-1.673,1-2.516,1.466a2.115,2.115,0,0,1-.983.343,1.114,1.114,0,0,1-.861-.419,1.136,1.136,0,0,1-.284-.654,2.954,2.954,0,0,1-1.781.807h0a.848.848,0,0,1-.5-.176.807.807,0,0,1-.221-.933,2.115,2.115,0,0,1,.555-.735.113.113,0,1,1,.158.158,1.98,1.98,0,0,0-.5.658.591.591,0,0,0,.14.667.627.627,0,0,0,.383.1h0a3.27,3.27,0,0,0,1.831-.9.117.117,0,0,1,.126,0,.108.108,0,0,1,.054.117.967.967,0,0,0,.9,1.069h0a1.975,1.975,0,0,0,.9-.311c.839-.451,1.682-.956,2.5-1.466a.627.627,0,0,1,.591-.113.582.582,0,0,1,.239.253.834.834,0,0,0,.086.122c.162.185.451.185.924,0l1.3-.5a1.082,1.082,0,0,1,1.024.135,1.1,1.1,0,0,1,.451.947,3.349,3.349,0,0,1-.041.365,4.681,4.681,0,0,0,1.56-.942.126.126,0,0,1,.086-.032.1.1,0,0,1,.077.045,3.206,3.206,0,0,1,.406.726c.077.167.153.334.243.487a1.015,1.015,0,0,0,.983.582c.3-.068.492-.338.7-.631a1.515,1.515,0,0,1,.834-.722,1.488,1.488,0,0,1,1.042.293c.117.063.234.131.352.185a3.436,3.436,0,0,0,2.223-.072,5.123,5.123,0,0,1,1.876-.216.108.108,0,0,1,.1.126.113.113,0,0,1-.126.095,5.028,5.028,0,0,0-1.8.216,2.828,2.828,0,0,1-2.737-.14,1.317,1.317,0,0,0-.9-.266c-.3.068-.5.343-.7.631a1.506,1.506,0,0,1-.83.722A.9.9,0,0,1,296.245,182.44Z" transform="translate(-240.674 -161.146)"/>
        <path id="Path_6121" data-name="Path 6121" class="cls-8" d="M227.178,192.962a.122.122,0,0,1-.063,0,.126.126,0,0,1-.05-.1,2.787,2.787,0,0,1,.158-.69,2.994,2.994,0,0,1-2.408.51.924.924,0,0,1-.451-.194.8.8,0,0,1,0-1.064,1.971,1.971,0,0,1,.9-.559.113.113,0,1,1,.081.212,1.8,1.8,0,0,0-.8.487.586.586,0,0,0,0,.758.794.794,0,0,0,.338.14,2.809,2.809,0,0,0,2.652-.857.12.12,0,0,1,.18.153,2.4,2.4,0,0,0-.374.924l2.94-1.551a.113.113,0,0,1,.144.032.117.117,0,0,1,0,.144.158.158,0,0,0-.027.162.325.325,0,0,0,.225.207.9.9,0,0,0,.609-.225l.032-.027a1.353,1.353,0,0,1,.7-.32,1.226,1.226,0,0,1,.478.1,10.918,10.918,0,0,0,4.6.519c.239-.027.483-.059.722-.095a5.975,5.975,0,0,1,2.8.059.108.108,0,0,1,.068.144.1.1,0,0,1-.14.068,5.89,5.89,0,0,0-2.706-.045c-.244.032-.487.068-.731.09a11.1,11.1,0,0,1-4.69-.568.812.812,0,0,0-.988.189l-.036.023a1.055,1.055,0,0,1-.78.266.541.541,0,0,1-.4-.361.3.3,0,0,1-.023-.086l-2.891,1.547A.122.122,0,0,1,227.178,192.962Z" transform="translate(-209.267 -167.208)"/>
        <path id="Path_6122" data-name="Path 6122" class="cls-8" d="M271.093,192.746a.113.113,0,0,1-.068,0,.117.117,0,0,1-.045-.09v-.672a.113.113,0,0,1,.113-.113h0a.113.113,0,0,1,.113.108v.523a5.587,5.587,0,0,0,2.417-1.493.1.1,0,0,1,.077-.036.163.163,0,0,1,.081.032.848.848,0,0,1,.2.478c.032.162.059.3.162.361a.451.451,0,0,0,.275,0,6.45,6.45,0,0,0,1.858-.528c.528-.239,1.245-.564,1.745-.149l.09.086a.515.515,0,0,0,.153.117.622.622,0,0,0,.216.036.729.729,0,0,1,.14,0,1.438,1.438,0,0,1,.451.167,1.8,1.8,0,0,0,.23.1c.185.072.424.05.5-.095a.108.108,0,0,1,.149-.054.113.113,0,0,1,.054.153.613.613,0,0,1-.776.207,2.613,2.613,0,0,1-.257-.113,1.227,1.227,0,0,0-.383-.149h-.122a.825.825,0,0,1-.3-.054.749.749,0,0,1-.216-.167l-.077-.072c-.392-.32-1.01-.041-1.506.185a6.764,6.764,0,0,1-1.921.546.7.7,0,0,1-.415-.045.658.658,0,0,1-.275-.519,1.384,1.384,0,0,0-.068-.262,5.863,5.863,0,0,1-2.561,1.5Z" transform="translate(-234.972 -167.272)"/>
        <path id="Path_6123" data-name="Path 6123" class="cls-8" d="M303.279,191.935a.533.533,0,0,1-.117,0,.492.492,0,0,1-.329-.262.338.338,0,0,1,0-.316.111.111,0,1,1,.2.1.14.14,0,0,0,0,.122.271.271,0,0,0,.171.135.767.767,0,0,0,.451-.126,5.312,5.312,0,0,0,1.479-1.172.117.117,0,0,1,.131-.027.622.622,0,0,1,.28.528,1.137,1.137,0,0,0,.077.3.365.365,0,0,0,.216.176,1.4,1.4,0,0,0,.9-.2l1.623-.879a.744.744,0,0,1,.483-.122.726.726,0,0,1,.343.239l.072.072c.528.505,1.393.216,2.156-.036l.144-.045a7.143,7.143,0,0,1,4.365,0,.108.108,0,0,1,.077.14.117.117,0,0,1-.144.072,6.931,6.931,0,0,0-4.225,0l-.144.05c-.785.257-1.754.582-2.386,0l-.077-.081a.559.559,0,0,0-.23-.171.55.55,0,0,0-.325.1l-1.623.879a1.664,1.664,0,0,1-1.087.216.577.577,0,0,1-.352-.289,1.186,1.186,0,0,1-.1-.37.776.776,0,0,0-.09-.307,5.506,5.506,0,0,1-1.475,1.141,1.037,1.037,0,0,1-.464.131Z" transform="translate(-252.439 -166.785)"/>
        <path id="Path_6124" data-name="Path 6124" class="cls-8" d="M236,203.692a.1.1,0,0,1-.05,0,.122.122,0,0,1-.063-.122,6.651,6.651,0,0,0,0-1.962,2.94,2.94,0,0,1-1.015.708,1.236,1.236,0,0,1-1.416-.338,1.05,1.05,0,0,1-.077-.117c-.126-.189-.221-.325-.334-.289a.338.338,0,0,0-.131.113l-1.321,1.52a.108.108,0,0,1-.14,0,.117.117,0,0,1-.054-.131l.253-.843a17.132,17.132,0,0,1-2.76-.158.113.113,0,0,1-.09-.077l-.135-.388a4.059,4.059,0,0,1-1.547.924,1.651,1.651,0,0,1-1.741-.514,1.425,1.425,0,0,1-1.353.284.117.117,0,0,1-.077-.122.9.9,0,0,1,.866-.767.1.1,0,0,1,.113.113.113.113,0,0,1-.113.113.7.7,0,0,0-.622.478,1.191,1.191,0,0,0,1.132-.352.108.108,0,0,1,.095-.036.117.117,0,0,1,.086.059,1.4,1.4,0,0,0,1.565.528,4.338,4.338,0,0,0,1.587-.983.108.108,0,0,1,.1,0,.113.113,0,0,1,.077.072l.162.478a17.723,17.723,0,0,0,2.809.144.093.093,0,0,1,.09.144l-.144.492.979-1.127a.581.581,0,0,1,.234-.18c.28-.09.451.185.591.383a.9.9,0,0,0,.072.108,1.01,1.01,0,0,0,1.154.257,3.215,3.215,0,0,0,1.087-.812.126.126,0,0,1,.113-.027.113.113,0,0,1,.077.09,6.841,6.841,0,0,1,.072,1.894l.983-1.082a1.509,1.509,0,0,1,2.074-.46,1.687,1.687,0,0,0,1.118.149.113.113,0,0,1,.144.068.117.117,0,0,1-.068.144,1.867,1.867,0,0,1-1.272-.149,1.3,1.3,0,0,0-1.831.4l-1.222,1.353a.122.122,0,0,1-.063.018Z" transform="translate(-209.149 -172.923)"/>
        <path id="Path_6125" data-name="Path 6125" class="cls-8" d="M274.821,202.623H274.7c-.311-.077-.41-.383-.5-.654a1.2,1.2,0,0,0-.216-.451,4.18,4.18,0,0,1-2.584.9.117.117,0,0,1-.113-.113.113.113,0,0,1,.113-.113h0a3.928,3.928,0,0,0,2.5-.9.113.113,0,0,1,.135,0,1.141,1.141,0,0,1,.37.64c.09.284.158.451.334.5a.537.537,0,0,0,.311-.045,4.135,4.135,0,0,0,1.168-.613.97.97,0,0,1,.338-.189.9.9,0,0,1,.622.126l.108.05a3.405,3.405,0,0,0,2.1-.027,4.235,4.235,0,0,1,2.025-.108.117.117,0,0,1,.081.14.113.113,0,0,1-.14.077,4.117,4.117,0,0,0-1.921.113,3.532,3.532,0,0,1-2.232,0l-.113-.05a.735.735,0,0,0-.451-.117.708.708,0,0,0-.244.14,4.608,4.608,0,0,1-1.245.663A1.123,1.123,0,0,1,274.821,202.623Z" transform="translate(-235.142 -172.928)"/>
        <path id="Path_6126" data-name="Path 6126" class="cls-8" d="M221.288,222.825a1.353,1.353,0,0,1-.51-.1.744.744,0,0,1-.374-.307c-.248-.451.2-.9.663-1.182a.114.114,0,0,1,.113.2c-.3.171-.758.546-.577.875a.532.532,0,0,0,.262.2,1.894,1.894,0,0,0,1.8-.487,10.124,10.124,0,0,0,1.407-1.227.122.122,0,0,1,.086-.036.108.108,0,0,1,.081.041.852.852,0,0,1,.122.627.627.627,0,0,0,.081.451.519.519,0,0,0,.487.068,6.277,6.277,0,0,0,1.908-.848c.253-.153.514-.307.78-.451a.541.541,0,0,1,.257-.081h0c.289,0,.374.28.451.5a.807.807,0,0,0,.189.383c.126.1.293.045.55-.054a1.488,1.488,0,0,1,.478-.135,1.285,1.285,0,0,1,.7.234l.144.081c.212.108.514.18.672,0a.113.113,0,0,1,.158,0,.117.117,0,0,1,0,.162.8.8,0,0,1-.938.023l-.153-.086a1.069,1.069,0,0,0-.577-.2,1.42,1.42,0,0,0-.406.117c-.253.1-.537.216-.78,0a.983.983,0,0,1-.262-.5c-.068-.234-.113-.334-.221-.338h0a.379.379,0,0,0-.158.059,7.907,7.907,0,0,0-.767.451,6.454,6.454,0,0,1-1.98.879.726.726,0,0,1-.694-.14.8.8,0,0,1-.14-.636,1.1,1.1,0,0,0,0-.347,10.7,10.7,0,0,1-1.353,1.141A2.706,2.706,0,0,1,221.288,222.825Z" transform="translate(-207.164 -183.524)"/>
        <path id="Path_6127" data-name="Path 6127" class="cls-8" d="M254.434,222.425a1.06,1.06,0,0,1-.5-.108.821.821,0,0,1-.424-.807.532.532,0,0,1,.383-.487.108.108,0,0,1,.135.077.113.113,0,0,1-.077.14.311.311,0,0,0-.216.293.609.609,0,0,0,.3.582,1.655,1.655,0,0,0,1.276-.126l2.377-.9a.523.523,0,0,1,.32-.036.451.451,0,0,1,.271.293.564.564,0,0,0,.113.171c.09.072.248.041.474-.09l1.917-1.145a.618.618,0,0,1,.4-.122c.3.045.365.352.419.6a1.62,1.62,0,0,0,.054.212.933.933,0,0,0,1.091.5,3.156,3.156,0,0,0,1.127-.613l.1-.077a1.312,1.312,0,0,1,.74-.311,1.353,1.353,0,0,1,.546.171h.036a6.827,6.827,0,0,0,2.706.663.848.848,0,0,1-.072-.451,1.1,1.1,0,0,1,.428-.771,1.881,1.881,0,0,1,1.452-.221,3.955,3.955,0,0,1,1.4.564l.144.1a2.2,2.2,0,0,0,.451.266,2.255,2.255,0,0,0,1.515-.207l.392-.144a8.866,8.866,0,0,1,3.905-.068l4.83.649a.108.108,0,0,1,.1.126.113.113,0,0,1-.126.095l-4.83-.645a8.612,8.612,0,0,0-3.806.059l-.388.135a1.8,1.8,0,0,1-2.183-.081l-.144-.095a3.671,3.671,0,0,0-1.321-.532,1.664,1.664,0,0,0-1.276.185.848.848,0,0,0-.334.6.573.573,0,0,0,.144.451.117.117,0,0,1-.081.194h0a7.116,7.116,0,0,1-3.017-.69h-.036a1.109,1.109,0,0,0-.451-.149h0a1.114,1.114,0,0,0-.6.271l-.1.072a3.242,3.242,0,0,1-1.213.654,1.163,1.163,0,0,1-1.353-.64c-.023-.072-.041-.153-.059-.23-.054-.253-.1-.406-.23-.424a.451.451,0,0,0-.253.09l-1.921,1.145c-.117.068-.474.28-.731.072a.743.743,0,0,1-.171-.248c-.045-.1-.081-.162-.131-.176a.3.3,0,0,0-.176.032l-2.377.9a2.886,2.886,0,0,1-.961.23Z" transform="translate(-225.38 -183.102)"/>
        <path id="Path_6128" data-name="Path 6128" class="cls-8" d="M328.946,222.578a.559.559,0,0,1-.3-.077.415.415,0,0,1-.194-.365.3.3,0,0,1,.158-.262.114.114,0,1,1,.1.2.063.063,0,0,0-.036.068.2.2,0,0,0,.081.162.64.64,0,0,0,.451,0,24.113,24.113,0,0,0,2.53-.631c.415-.126.9-.131,1.033.248a.767.767,0,0,1,.027.14.343.343,0,0,0,.041.135c.041.054.153.059.248.059a12.361,12.361,0,0,0,3.572-.627.114.114,0,0,1,.072.216,12.627,12.627,0,0,1-3.639.636.5.5,0,0,1-.451-.153.451.451,0,0,1-.081-.234.392.392,0,0,0-.023-.1c-.1-.3-.685-.126-.749-.1a24.824,24.824,0,0,1-2.552.636,1.577,1.577,0,0,1-.289.05Z" transform="translate(-266.525 -184.09)"/>
        <path id="Path_6129" data-name="Path 6129" class="cls-8" d="M212.524,353.785a1.064,1.064,0,0,1-.5-.113.821.821,0,0,1-.424-.807.523.523,0,0,1,.383-.487.113.113,0,1,1,.059.216.311.311,0,0,0-.216.293.618.618,0,0,0,.3.586,1.678,1.678,0,0,0,1.276-.131l2.377-.9a.523.523,0,0,1,.32-.036.451.451,0,0,1,.271.293.514.514,0,0,0,.113.171c.09.072.248.041.451-.09l1.917-1.145a.644.644,0,0,1,.4-.117c.3.041.365.347.419.6a1.62,1.62,0,0,0,.054.212.934.934,0,0,0,1.087.487,3.121,3.121,0,0,0,1.123-.613l.108-.077a1,1,0,0,1,1.285-.14h.032a6.868,6.868,0,0,0,2.706.663.9.9,0,0,1-.072-.451,1.1,1.1,0,0,1,.451-.771,1.9,1.9,0,0,1,1.452-.221,3.955,3.955,0,0,1,1.4.564l.14.1a1.637,1.637,0,0,0,1.984.059l.392-.144a8.932,8.932,0,0,1,3.905-.068l4.83.649a.108.108,0,0,1,.1.126.117.117,0,0,1-.126.095l-4.843-.6a8.679,8.679,0,0,0-3.806.059l-.388.135a2.363,2.363,0,0,1-1.669.212,2.413,2.413,0,0,1-.519-.293l-.14-.095a3.756,3.756,0,0,0-1.321-.532,1.682,1.682,0,0,0-1.276.185.857.857,0,0,0-.334.6.573.573,0,0,0,.144.451.117.117,0,0,1-.081.194h0a7.134,7.134,0,0,1-3.017-.69h-.036a1.182,1.182,0,0,0-.451-.149h0a1.114,1.114,0,0,0-.6.271l-.1.077a3.3,3.3,0,0,1-1.213.649,1.163,1.163,0,0,1-1.353-.64c-.023-.072-.041-.149-.059-.23-.054-.253-.1-.406-.23-.424a.451.451,0,0,0-.253.09L217.061,353c-.117.068-.451.284-.731.072a.7.7,0,0,1-.171-.248c-.045-.1-.077-.162-.131-.176a.338.338,0,0,0-.176.032l-2.381.9A2.845,2.845,0,0,1,212.524,353.785Z" transform="translate(-202.369 -255.216)"/>
        <path id="Path_6130" data-name="Path 6130" class="cls-8" d="M287.036,353.908a.56.56,0,0,1-.3-.077.415.415,0,0,1-.194-.365.3.3,0,0,1,.158-.262.114.114,0,1,1,.1.2.063.063,0,0,0-.036.068.194.194,0,0,0,.081.162.64.64,0,0,0,.451,0,23.3,23.3,0,0,0,2.53-.631c.415-.126.9-.131,1.033.248a.767.767,0,0,1,.027.14.342.342,0,0,0,.041.135c.041.054.153.059.248.059a12.361,12.361,0,0,0,3.553-.627.114.114,0,0,1,.072.216,12.627,12.627,0,0,1-3.639.636.5.5,0,0,1-.451-.149.451.451,0,0,1-.081-.239.394.394,0,0,0,0-.1c-.1-.3-.685-.126-.753-.1a24.742,24.742,0,0,1-2.548.636A1.488,1.488,0,0,1,287.036,353.908Z" transform="translate(-243.514 -256.196)"/>
        <path id="Path_6131" data-name="Path 6131" class="cls-8" d="M243.268,232.354a2.092,2.092,0,0,1-1.3-.4,1.385,1.385,0,0,1-.388-.478,1.263,1.263,0,0,1-.4.207,2.489,2.489,0,0,1-2.007-.428.482.482,0,0,0-.244-.1.474.474,0,0,0-.266.162l-.316.3a1.015,1.015,0,0,1-1.646-.37l-.144-.365a8.365,8.365,0,0,1-4.365.365,4.771,4.771,0,0,1-1.723.573.122.122,0,0,1-.095-.032.126.126,0,0,1-.036-.09,1.637,1.637,0,0,0-.167-.875,3.03,3.03,0,0,1-1.871.2l-.126-.027a1.519,1.519,0,0,0-.415-.063,1.461,1.461,0,0,0-.6.216l-.216.122a4.058,4.058,0,0,1-1.353.555,1.448,1.448,0,0,1-1.47-.577,1.389,1.389,0,0,1-.992.311.7.7,0,0,1-.532-.514.451.451,0,0,1,.149-.5.117.117,0,0,1,.158,0,.122.122,0,0,1-.023.162.248.248,0,0,0-.068.262.483.483,0,0,0,.352.347,1.38,1.38,0,0,0,.933-.347.117.117,0,0,1,.095,0,.131.131,0,0,1,.072.068,1.2,1.2,0,0,0,1.29.564,3.968,3.968,0,0,0,1.263-.532l.216-.122a1.6,1.6,0,0,1,.7-.244,1.8,1.8,0,0,1,.478.068l.117.027a2.805,2.805,0,0,0,1.826-.23.122.122,0,0,1,.149.045,1.948,1.948,0,0,1,.253.961,4.51,4.51,0,0,0,1.542-.546.113.113,0,0,1,.077,0,8.085,8.085,0,0,0,4.388-.388.117.117,0,0,1,.149.068l.185.451a.789.789,0,0,0,1.276.289l.32-.3a.654.654,0,0,1,.415-.221.69.69,0,0,1,.365.135,2.318,2.318,0,0,0,1.8.41,1.167,1.167,0,0,0,.379-.212,1.474,1.474,0,0,1-.077-.451,1.087,1.087,0,0,1,.4-.9.126.126,0,0,1,.09-.023.1.1,0,0,1,.072.05,1,1,0,0,1,.081.9,1.434,1.434,0,0,1-.3.478,1.267,1.267,0,0,0,.356.451,2.354,2.354,0,0,0,1.975.243,8.875,8.875,0,0,0,1.01-.343,7.383,7.383,0,0,1,2.706-.573,11.015,11.015,0,0,0,1.33-.153l.519-.117a3.12,3.12,0,0,1,2.214,0,.112.112,0,1,1-.1.2,2.962,2.962,0,0,0-2.056.023l-.528.117a12.719,12.719,0,0,1-1.353.158,9.676,9.676,0,0,0-1.605.216,9.859,9.859,0,0,0-1.01.343,9.66,9.66,0,0,1-1.037.352,3.716,3.716,0,0,1-.866.131Zm-1.416-2.174a.9.9,0,0,0-.212.613,1.11,1.11,0,0,0,.032.271,1.209,1.209,0,0,0,.171-.307.848.848,0,0,0,.009-.577Z" transform="translate(-208.392 -188.635)"/>
        <path id="Path_6132" data-name="Path 6132" class="cls-8" d="M300.069,232.477a2.936,2.936,0,0,1-.4-.027.122.122,0,0,1-.077-.045.1.1,0,0,1,0-.086,1.326,1.326,0,0,0-.036-.609,6.4,6.4,0,0,1-3.774.361A.1.1,0,0,1,295.7,232a.108.108,0,0,1,0-.1l.343-.5a.108.108,0,0,1,.153-.032.113.113,0,0,1,.032.158l-.248.361a6.174,6.174,0,0,0,3.581-.428.1.1,0,0,1,.09,0,.113.113,0,0,1,.063.059,1.537,1.537,0,0,1,.1.726,5.375,5.375,0,0,0,2.877-.9c.266-.144.537-.293.807-.424a.685.685,0,0,1,.482-.09.708.708,0,0,1,.379.37.934.934,0,0,0,.068.113c.356.537,1.177.523,1.8.419a1.8,1.8,0,0,1,.6-.027,1.546,1.546,0,0,1,.415.171l.135.068a3.439,3.439,0,0,0,2.981-.37c.6-.293,1.29-.573,1.826-.2a.113.113,0,1,1-.126.185c-.451-.3-1.06-.045-1.605.221a3.6,3.6,0,0,1-3.157.37l-.14-.072a1.551,1.551,0,0,0-.352-.149,1.353,1.353,0,0,0-.5.027c-1.015.167-1.714,0-2.052-.514l-.077-.122c-.072-.122-.14-.239-.243-.271a.487.487,0,0,0-.32.077c-.266.131-.537.275-.8.419A6.375,6.375,0,0,1,300.069,232.477Z" transform="translate(-248.539 -189.149)"/>
        <path id="Path_6133" data-name="Path 6133" class="cls-8" d="M220.81,252.935H220.7a.681.681,0,0,1-.492-.649,1.768,1.768,0,0,1,.194-.749.113.113,0,0,1,.149-.059.117.117,0,0,1,.059.149,1.569,1.569,0,0,0-.176.649.451.451,0,0,0,.311.451.613.613,0,0,0,.347-.068,3.292,3.292,0,0,0,1.222-.866.113.113,0,0,1,.122-.036c.189.063.216.253.244.406a.5.5,0,0,0,.072.239c.063.068.194.072.4,0a16.552,16.552,0,0,0,2.043-.8.956.956,0,0,1,.663-.086.361.361,0,0,1,.207.2.632.632,0,0,1,.036.234.3.3,0,0,0,.032.167c.041.045.135.05.293,0l1.8-.492a2.02,2.02,0,0,1,1.141-.09.9.9,0,0,1,.541.483.636.636,0,0,1,.041.406,2,2,0,0,0,1.8-.194.113.113,0,0,1,.158.032.117.117,0,0,1-.032.158,2.223,2.223,0,0,1-2.1.167.09.09,0,0,1-.059-.063.1.1,0,0,1,0-.086.392.392,0,0,0,0-.329.681.681,0,0,0-.4-.356,1.894,1.894,0,0,0-1.015.09l-1.8.5c-.09,0-.374.1-.528-.086a.451.451,0,0,1-.081-.3.452.452,0,0,0,0-.149.158.158,0,0,0-.081-.081.717.717,0,0,0-.487.086,17.438,17.438,0,0,1-2.07.812c-.108.032-.451.14-.631-.077a.65.65,0,0,1-.131-.352.721.721,0,0,0-.041-.18,3.49,3.49,0,0,1-1.236.852,1.01,1.01,0,0,1-.41.077Z" transform="translate(-207.096 -200.489)"/>
        <path id="Path_6134" data-name="Path 6134" class="cls-8" d="M254.165,253.63a.492.492,0,0,1-.537-.338,1.312,1.312,0,0,1,.221-1.006,2.9,2.9,0,0,1-1.051.2,1.15,1.15,0,0,1-1.046-.492.672.672,0,0,1,.072-.717.451.451,0,0,1,.5-.194.117.117,0,0,1,.081.14.113.113,0,0,1-.14.081.248.248,0,0,0-.257.113.451.451,0,0,0-.059.451,1.01,1.01,0,0,0,.857.379h.027a2.557,2.557,0,0,0,1.33-.379,1.8,1.8,0,0,1,.451-.338.113.113,0,0,1,.144.036.117.117,0,0,1,0,.149,2.772,2.772,0,0,1-.451.329,1.443,1.443,0,0,0-.451,1.163c.05.153.2.212.451.171A7.273,7.273,0,0,0,256.56,252l.5-.392a.122.122,0,0,1,.135,0,.1.1,0,0,1,.041.126l-.239.735a5.745,5.745,0,0,0,3.03-1.15h0a.113.113,0,1,1,.135.18h0a1.772,1.772,0,0,0-.622.956l2.832-.658a.505.505,0,0,1,.419.041.5.5,0,0,1,.158.316.522.522,0,0,0,0,.081c.135.5.9.519,1.24.5a4.113,4.113,0,0,0,1.682-.334,10.449,10.449,0,0,1,1.132-.383.284.284,0,0,1,.262.09c.095.122.036.307-.027.5s-.1.329-.05.379.113.081.568-.068l2.431-1.43a1.583,1.583,0,0,1,.861-.3,1.515,1.515,0,0,1,.992.649l.045.059a1.726,1.726,0,0,0,.74.631.591.591,0,0,0,.528-.113.316.316,0,0,0,.126-.28.108.108,0,0,1,.072-.122.122.122,0,0,1,.135.05,1.772,1.772,0,0,0,.8.685c.23-.041.338-.289.451-.577a1.159,1.159,0,0,1,.6-.731,1.051,1.051,0,0,1,.645.045c2.931.771,6.119.451,8.929.122a.113.113,0,0,1,.126.1.117.117,0,0,1-.1.126c-2.832.307-6.043.654-9.019-.126a.9.9,0,0,0-.514-.045c-.23.077-.343.334-.451.609s-.3.676-.672.717a.072.072,0,0,1-.054,0,2.011,2.011,0,0,1-.785-.573.558.558,0,0,1-.153.189.8.8,0,0,1-.74.158,1.939,1.939,0,0,1-.848-.708l-.045-.054a1.28,1.28,0,0,0-.825-.568,1.353,1.353,0,0,0-.74.266l-2.449,1.443c-.451.144-.694.149-.825.023s-.068-.392,0-.609c.027-.09.081-.257.059-.3h-.05a9.973,9.973,0,0,0-1.082.374,4.4,4.4,0,0,1-1.75.347c-.807.041-1.353-.2-1.47-.667a.72.72,0,0,1-.023-.095.333.333,0,0,0-.072-.18c-.05-.036-.144,0-.23,0l-3.008.694a.108.108,0,0,1-.1-.027.1.1,0,0,1-.032-.1,1.88,1.88,0,0,1,.239-.667,5.975,5.975,0,0,1-2.665.771.113.113,0,0,1-.095-.045.108.108,0,0,1,0-.1l.176-.537-.2.162a7.459,7.459,0,0,1-2.318,1.416A1.076,1.076,0,0,1,254.165,253.63Z" transform="translate(-224.376 -200.268)"/>
      </g>
    </g>
  </g>
</svg>
