<svg xmlns="http://www.w3.org/2000/svg" width="366.353" height="342" viewBox="0 0 366.353 342">
  <defs>
    <style>
      .cls-1 {
        fill: rgba(62,170,109,0.15);
      }

      .cls-2 {
        fill: #ebebeb;
      }

      .cls-3 {
        fill: #fff;
      }

      .cls-4 {
        fill: #dbdbdb;
      }

      .cls-5 {
        fill: #263238;
      }

      .cls-6 {
        fill: #3eaa6d;
      }

      .cls-7 {
        opacity: 0.1;
      }

      .cls-8 {
        fill: #c7c7c7;
      }

      .cls-9 {
        fill: #eb9481;
      }

      .cls-10 {
        fill: #dd6a57;
      }

      .cls-11 {
        fill: #37474f;
      }

      .cls-12 {
        fill: #455a64;
      }
    </style>
  </defs>
  <g id="Group_766" data-name="Group 766" transform="translate(-659 -308)">
    <circle id="Ellipse_1640" data-name="Ellipse 1640" class="cls-1" cx="171" cy="171" r="171" transform="translate(659 308)"/>
    <g id="Invoice-cuate" transform="translate(691.29 309.34)">
      <g id="freepik--background-complete--inject-58" transform="translate(48.846 44.66)">
        <rect id="Rectangle_1302" data-name="Rectangle 1302" class="cls-2" width="120.09" height="142.173" transform="translate(0 0.007)"/>
        <rect id="Rectangle_1303" data-name="Rectangle 1303" class="cls-3" width="50.711" height="63.238" transform="translate(6.545 5.702)"/>
        <rect id="Rectangle_1304" data-name="Rectangle 1304" class="cls-3" width="50.711" height="63.238" transform="translate(62.833 5.702)"/>
        <rect id="Rectangle_1305" data-name="Rectangle 1305" class="cls-3" width="50.711" height="63.238" transform="translate(6.545 73.247)"/>
        <rect id="Rectangle_1306" data-name="Rectangle 1306" class="cls-3" width="50.711" height="63.238" transform="translate(62.833 73.247)"/>
        <rect id="Rectangle_1307" data-name="Rectangle 1307" class="cls-4" width="28.447" height="203.403" transform="translate(0 0.007)"/>
        <path id="Path_5773" data-name="Path 5773" class="cls-2" d="M86.993,58.54l.216,21.992.084,21.992.146,43.985-.146,43.985-.077,21.992-.223,21.992-.223-21.992-.077-21.992-.153-43.985.153-43.985.077-21.992Z" transform="translate(-63.941 -48.865)"/>
        <path id="Path_5774" data-name="Path 5774" class="cls-2" d="M68.253,65.86,68.476,85.5l.125,19.636.1,39.273-.1,39.279-.125,19.636-.223,19.636-.223-19.636L67.9,183.685l-.1-39.279.1-39.273L68.037,85.5Z" transform="translate(-58.264 -51.082)"/>
        <path id="Path_5775" data-name="Path 5775" class="cls-2" d="M77.623,72.51l.223,23,.077,22.989.153,45.992-.153,45.985-.077,23-.223,22.989L77.4,233.469l-.077-23-.153-45.985.153-45.992L77.4,95.506Z" transform="translate(-61.103 -53.097)"/>
        <path id="Path_5776" data-name="Path 5776" class="cls-2" d="M61.286,60.2l.223,24.07.077,24.063.153,48.132L61.586,204.6l-.077,24.07-.223,24.063-.216-24.063-.084-24.07-.146-48.132.146-48.132L61.07,84.27Z" transform="translate(-56.156 -49.368)"/>
        <rect id="Rectangle_1308" data-name="Rectangle 1308" class="cls-4" width="28.447" height="203.403" transform="translate(120.09 203.403) rotate(180)"/>
        <path id="Path_5777" data-name="Path 5777" class="cls-2" d="M193.136,58.54l.223,21.992.077,21.992.153,43.985-.153,43.985-.077,21.992-.223,21.992-.216-21.992-.084-21.992-.146-43.985.146-43.985.084-21.992Z" transform="translate(-96.098 -48.865)"/>
        <path id="Path_5778" data-name="Path 5778" class="cls-2" d="M211.873,65.86,212.1,85.5l.125,19.636.1,39.273-.1,39.279-.125,19.636-.223,19.636-.223-19.636-.125-19.636-.1-39.279.1-39.273.132-19.636Z" transform="translate(-101.772 -51.082)"/>
        <path id="Path_5779" data-name="Path 5779" class="cls-2" d="M202.506,72.51l.223,23,.077,22.989.153,45.992-.153,45.985-.077,23-.223,22.989-.223-22.989-.077-23-.146-45.985.146-45.992.084-22.989Z" transform="translate(-98.937 -53.097)"/>
        <path id="Path_5780" data-name="Path 5780" class="cls-2" d="M218.843,60.2l.216,24.07.084,24.063.153,48.132-.153,48.132-.077,24.07-.223,24.063-.223-24.063-.077-24.07-.153-48.132.153-48.132.077-24.063Z" transform="translate(-103.883 -49.368)"/>
        <path id="Path_5782" data-name="Path 5782" class="cls-2" d="M253.265,48.72a1.736,1.736,0,0,1,1.75,1.75v.9a14.889,14.889,0,0,1,6.308,2.238,2.189,2.189,0,0,1,1.22,1.959,2.238,2.238,0,0,1-2.279,2.238,2.356,2.356,0,0,1-1.22-.369,15.009,15.009,0,0,0-4.182-1.791v7.821c6.19,1.547,8.839,4.029,8.839,8.365,0,4.482-3.485,7.452-8.671,7.94v2.468a1.736,1.736,0,0,1-1.75,1.75,1.771,1.771,0,0,1-1.791-1.75V79.7a17.545,17.545,0,0,1-8.365-3.172,2.246,2.246,0,1,1,2.461-3.75,14.492,14.492,0,0,0,6.03,2.732V67.492c-5.946-1.547-8.713-3.785-8.713-8.365,0-4.357,3.485-7.368,8.553-7.779v-.878a1.771,1.771,0,0,1,1.812-1.75Zm-1.631,13.885V55.4c-2.607.244-3.911,1.631-3.911,3.423S248.5,61.588,251.633,62.605Zm3.213,5.66v7.41c2.607-.286,4.036-1.589,4.036-3.541C258.883,70.343,257.984,69.241,254.847,68.265Z" transform="translate(-111.036 -45.89)"/>
      </g>
      <g id="freepik--Plant--inject-58" transform="translate(273.585 212.931)">
        <path id="Path_5783" data-name="Path 5783" class="cls-5" d="M393.443,321.652c11.153,10.916,13.021,27.806,10.672,42.6-.063.335-.586.244-.586-.077,0-3.367.1-6.7.091-10.031l-.167-.446a22.207,22.207,0,0,1-7.242-7.779c-1.868-3.667-2.6-7.793-4.022-11.62-.132-.362.258-.258.516-.07,6.782,5,8.943,10.386,10.888,17.58a59.875,59.875,0,0,0-1.178-11.2c-1.464-6.824-4.364-13.593-9.271-18.66C392.983,321.757,393.269,321.457,393.443,321.652Z" transform="translate(-381.264 -296.823)"/>
        <path id="Path_5784" data-name="Path 5784" class="cls-6" d="M386.616,319.125c-1.917.063-3.123,3.13-4.615,4.022a1.443,1.443,0,0,1-2.091-.335c-1.478-2.091.551-4.615,2.461-6.044-1.394.565-2.5,1.547-3.973,1.833a1.394,1.394,0,0,1-1.791-1.08c-.648-2.788,2.886-4.071,5.312-4.127-1.178-.823-4.545-3.039-2.753-4.134s5.765,2.091,7.054,3.123c1.9,1.54,4.182,3.841,4.245,6.274C390.561,321.44,388.108,319.711,386.616,319.125Z" transform="translate(-376.528 -293.02)"/>
        <path id="Path_5785" data-name="Path 5785" class="cls-7" d="M386.616,319.125c-1.917.063-3.123,3.13-4.615,4.022a1.443,1.443,0,0,1-2.091-.335c-1.478-2.091.551-4.615,2.461-6.044-1.394.565-2.5,1.547-3.973,1.833a1.394,1.394,0,0,1-1.791-1.08c-.648-2.788,2.886-4.071,5.312-4.127-1.178-.823-4.545-3.039-2.753-4.134s5.765,2.091,7.054,3.123c1.9,1.54,4.182,3.841,4.245,6.274C390.561,321.44,388.108,319.711,386.616,319.125Z" transform="translate(-376.528 -293.02)"/>
        <path id="Path_5786" data-name="Path 5786" class="cls-6" d="M388.372,320.714c-2.454-1.115-7.166.495-7.57-.432-.809-1.9,2.956-3.186,4.991-3.436-1.875-.509-5.458-1.317-5.353-3.123.139-2.2,5.5-.307,8.218,1.771,3.423,2.628,3.4,5.158,2.837,5.667C390.714,321.85,388.776,320.9,388.372,320.714Z" transform="translate(-377.712 -294.142)"/>
        <path id="Path_5787" data-name="Path 5787" class="cls-5" d="M424.886,320.1c-11.557,10.456-14.067,27.29-12.282,42.158.049.335.572.265.586-.049.125-3.367.153-6.706.286-10.031.07-.146.125-.286.188-.439a22.288,22.288,0,0,0,7.535-7.5c2-3.59,2.893-7.668,4.461-11.453.146-.362-.251-.272-.516-.091-6.971,4.74-9.327,10.038-11.55,17.148A59.872,59.872,0,0,1,415.2,338.7c1.722-6.768,4.879-13.418,9.968-18.291A.207.207,0,0,0,424.886,320.1Z" transform="translate(-387.299 -296.355)"/>
        <path id="Path_5788" data-name="Path 5788" class="cls-6" d="M431.733,317.792c1.91.139,3,3.248,4.454,4.182a1.443,1.443,0,0,0,2.133-.251c1.555-2.008-.376-4.635-2.231-6.134,1.345.613,2.44,1.645,3.9,1.98a1.394,1.394,0,0,0,1.84-1c.753-2.788-2.732-4.182-5.151-4.336,1.206-.767,4.656-2.865,2.907-4.022s-5.841,1.861-7.173,2.858c-1.952,1.464-4.3,3.674-4.475,6.078C427.718,319.959,430.235,318.321,431.733,317.792Z" transform="translate(-392.097 -292.69)"/>
        <path id="Path_5789" data-name="Path 5789" class="cls-7" d="M431.733,317.792c1.91.139,3,3.248,4.454,4.182a1.443,1.443,0,0,0,2.133-.251c1.555-2.008-.376-4.635-2.231-6.134,1.345.613,2.44,1.645,3.9,1.98a1.394,1.394,0,0,0,1.84-1c.753-2.788-2.732-4.182-5.151-4.336,1.206-.767,4.656-2.865,2.907-4.022s-5.841,1.861-7.173,2.858c-1.952,1.464-4.3,3.674-4.475,6.078C427.718,319.959,430.235,318.321,431.733,317.792Z" transform="translate(-392.097 -292.69)"/>
        <path id="Path_5790" data-name="Path 5790" class="cls-6" d="M431.1,319.359c2.489-1.025,7.138.76,7.57-.153.885-1.854-2.823-3.3-4.845-3.625,1.889-.432,5.5-1.1,5.458-2.914-.049-2.21-5.486-.516-8.274,1.464-3.52,2.489-3.6,5.019-3.046,5.577C428.706,320.4,430.7,319.554,431.1,319.359Z" transform="translate(-392.032 -293.804)"/>
        <path id="Path_5791" data-name="Path 5791" class="cls-5" d="M409.554,342.8a112.924,112.924,0,0,1-3.59,16.576.412.412,0,0,1-.809-.16c.76-5.109,2.147-10.121,2.907-15.231a77.249,77.249,0,0,0,.885-15.635c-.488-8.609-2.823-17.768-8.441-24.5-.125-.16.139-.383.265-.237,11.244,13.112,9.459,29.186,9.445,30.629,1.6-5.43,3.234-11.648,9.257-17.176.258-.244.46-.125.418.279-1.073,10.066-3.876,15.335-9.71,20.7C410.014,339.641,409.8,341.23,409.554,342.8Z" transform="translate(-383.782 -291.362)"/>
        <path id="Path_5792" data-name="Path 5792" class="cls-6" d="M396.16,300.05c-2.021-.9-4.81,1.68-6.81,1.854a1.655,1.655,0,0,1-2.028-1.394c-.495-2.893,2.893-4.517,5.576-5.033-1.7-.1-3.374.349-5.047-.1a1.589,1.589,0,0,1-1.318-2.015c.746-3.255,5.04-2.788,7.591-1.617-.809-1.436-3.186-5.444-.781-5.674s4.935,5.061,5.751,6.8c1.192,2.551,2.384,6.078,1.262,8.616C399.073,304.434,397.4,301.409,396.16,300.05Z" transform="translate(-379.54 -286.06)"/>
        <path id="Path_5793" data-name="Path 5793" class="cls-7" d="M396.16,300.05c-2.021-.9-4.81,1.68-6.81,1.854a1.655,1.655,0,0,1-2.028-1.394c-.495-2.893,2.893-4.517,5.576-5.033-1.7-.1-3.374.349-5.047-.1a1.589,1.589,0,0,1-1.318-2.015c.746-3.255,5.04-2.788,7.591-1.617-.809-1.436-3.186-5.444-.781-5.674s4.935,5.061,5.751,6.8c1.192,2.551,2.384,6.078,1.262,8.616C399.073,304.434,397.4,301.409,396.16,300.05Z" transform="translate(-379.54 -286.06)"/>
        <path id="Path_5794" data-name="Path 5794" class="cls-6" d="M397.546,302.1c-1.987-2.391-7.668-3.1-7.626-4.266.1-2.37,4.663-1.819,6.9-1.053-1.687-1.471-5-4.113-3.98-5.932,1.248-2.217,5.862,2.447,7.633,5.981,2.231,4.44.934,7.054.091,7.3C399.407,304.457,397.873,302.491,397.546,302.1Z" transform="translate(-380.585 -287.337)"/>
        <path id="Path_5795" data-name="Path 5795" class="cls-6" d="M413.15,364.179l4.963,37.892H387.93c.62-3.36,6.239-37.941,6.239-37.941Z" transform="translate(-379.982 -309.71)"/>
      </g>
      <g id="freepik--Desk--inject-58" transform="translate(36.71 304.894)">
        <path id="Path_5796" data-name="Path 5796" class="cls-5" d="M36.71,418.332l37.167-.167,37.167-.063,74.342-.112,74.335.112,37.174.063,37.167.167-37.167.174-37.174.063-74.335.112-74.342-.112-37.167-.063Z" transform="translate(-36.71 -417.99)"/>
      </g>
      <g id="freepik--Invoice--inject-58" transform="translate(219.501 44.667)">
        <rect id="Rectangle_1309" data-name="Rectangle 1309" class="cls-2" width="109.704" height="140.423"/>
        <rect id="Rectangle_1310" data-name="Rectangle 1310" class="cls-5" width="109.704" height="8.19" transform="translate(0 7.863)"/>
        <path id="Path_5797" data-name="Path 5797" class="cls-5" d="M298.94,67.7h59.878l-5.026,8.8H298.94Z" transform="translate(-298.94 -51.647)"/>
        <path id="Path_5798" data-name="Path 5798" class="cls-6" d="M298.94,53.62h59.878l-2.468,3.241H298.94Z" transform="translate(-298.94 -47.381)"/>
        <path id="Path_5799" data-name="Path 5799" class="cls-6" d="M298.94,60.49h32l-2.468,3.248H298.94Z" transform="translate(-298.94 -49.462)"/>
        <rect id="Rectangle_1311" data-name="Rectangle 1311" class="cls-3" width="89.628" height="6.894" transform="translate(10.038 57.368)"/>
        <rect id="Rectangle_1312" data-name="Rectangle 1312" class="cls-6" width="89.628" height="6.894" transform="translate(10.038 50.474)"/>
        <rect id="Rectangle_1313" data-name="Rectangle 1313" class="cls-4" width="89.628" height="6.894" transform="translate(10.038 64.255)"/>
        <rect id="Rectangle_1314" data-name="Rectangle 1314" class="cls-3" width="89.628" height="6.894" transform="translate(10.038 71.149)"/>
        <rect id="Rectangle_1315" data-name="Rectangle 1315" class="cls-4" width="89.628" height="6.894" transform="translate(10.038 78.043)"/>
        <rect id="Rectangle_1316" data-name="Rectangle 1316" class="cls-3" width="89.628" height="6.894" transform="translate(10.038 84.93)"/>
        <rect id="Rectangle_1317" data-name="Rectangle 1317" class="cls-4" width="89.628" height="6.894" transform="translate(10.038 91.824)"/>
        <rect id="Rectangle_1318" data-name="Rectangle 1318" class="cls-6" width="62.757" height="6.894" transform="translate(36.909 98.718)"/>
        <rect id="Rectangle_1319" data-name="Rectangle 1319" class="cls-8" width="26.872" height="48.244" transform="translate(10.038 50.474)"/>
        <path id="Path_5807" data-name="Path 5807" class="cls-5" d="M313.34,136.814l44.814-.084,44.814.084-44.814.091Z" transform="translate(-303.302 -72.558)"/>
        <path id="Path_5808" data-name="Path 5808" class="cls-5" d="M313.34,146.7l44.814-.084,44.814.084-44.814.091Z" transform="translate(-303.302 -75.554)"/>
        <path id="Path_5809" data-name="Path 5809" class="cls-5" d="M313.34,156.591l44.814-.091,44.814.091-44.814.084Z" transform="translate(-303.302 -78.547)"/>
        <path id="Path_5810" data-name="Path 5810" class="cls-5" d="M313.34,166.474l44.814-.084,44.814.084-44.814.091Z" transform="translate(-303.302 -81.544)"/>
        <path id="Path_5811" data-name="Path 5811" class="cls-5" d="M313.34,176.364l44.814-.084,44.814.084-44.814.091Z" transform="translate(-303.302 -84.54)"/>
        <path id="Path_5812" data-name="Path 5812" class="cls-5" d="M313.34,186.251l44.814-.091,44.814.091-44.814.084Z" transform="translate(-303.302 -87.533)"/>
        <path id="Path_5813" data-name="Path 5813" class="cls-5" d="M320.23,121.921c2.858-.139,5.723-.153,8.581-.174s5.723,0,8.588.174c-2.865.146-5.723.153-8.588.174S323.088,122.082,320.23,121.921Z" transform="translate(-305.39 -68.018)"/>
        <path id="Path_5814" data-name="Path 5814" class="cls-5" d="M320.23,131.831c2.161-.146,4.329-.153,6.49-.174s4.329,0,6.5.174c-2.168.146-4.329.153-6.5.174S322.391,131.978,320.23,131.831Z" transform="translate(-305.39 -71.02)"/>
        <path id="Path_5815" data-name="Path 5815" class="cls-5" d="M320.23,141.721c2.858-.146,5.723-.153,8.581-.174s5.723,0,8.588.174c-2.865.146-5.723.153-8.588.174S323.088,141.861,320.23,141.721Z" transform="translate(-305.39 -74.016)"/>
        <path id="Path_5816" data-name="Path 5816" class="cls-5" d="M320.23,151.6c2.349-.139,4.705-.153,7.061-.174s4.712,0,7.068.174c-2.356.146-4.712.153-7.068.174S322.579,151.748,320.23,151.6Z" transform="translate(-305.39 -77.009)"/>
        <path id="Path_5817" data-name="Path 5817" class="cls-5" d="M320.23,161.491c2.858-.146,5.723-.153,8.581-.174s5.723,0,8.588.174c-2.865.146-5.723.153-8.588.174S323.088,161.638,320.23,161.491Z" transform="translate(-305.39 -80.005)"/>
        <path id="Path_5818" data-name="Path 5818" class="cls-5" d="M320.23,171.381c2.858-.146,5.723-.153,8.581-.174s5.723,0,8.588.174c-2.865.146-5.723.153-8.588.174S323.088,171.521,320.23,171.381Z" transform="translate(-305.39 -83.001)"/>
        <path id="Path_5819" data-name="Path 5819" class="cls-5" d="M320.23,181.264c1.736-.132,3.485-.167,5.207-.174s3.485.042,5.214.174c-1.736.139-3.485.167-5.214.174S321.966,181.4,320.23,181.264Z" transform="translate(-305.39 -85.996)"/>
        <path id="Path_5820" data-name="Path 5820" class="cls-5" d="M360.9,121.921c2.147-.139,4.3-.153,6.448-.174s4.308,0,6.455.174c-2.147.146-4.3.153-6.455.174S363.061,122.082,360.9,121.921Z" transform="translate(-317.71 -68.018)"/>
        <path id="Path_5821" data-name="Path 5821" class="cls-5" d="M360.9,131.831c2.147-.146,4.3-.153,6.448-.174s4.308,0,6.455.174c-2.147.146-4.3.153-6.455.174S363.061,131.978,360.9,131.831Z" transform="translate(-317.71 -71.02)"/>
        <path id="Path_5822" data-name="Path 5822" class="cls-5" d="M360.9,141.721c2.147-.146,4.3-.153,6.448-.174s4.308,0,6.455.174c-2.147.146-4.3.153-6.455.174S363.061,141.861,360.9,141.721Z" transform="translate(-317.71 -74.016)"/>
        <path id="Path_5823" data-name="Path 5823" class="cls-5" d="M360.9,151.6c2.147-.139,4.3-.153,6.448-.174s4.308,0,6.455.174c-2.147.146-4.3.153-6.455.174S363.061,151.748,360.9,151.6Z" transform="translate(-317.71 -77.009)"/>
        <path id="Path_5824" data-name="Path 5824" class="cls-5" d="M360.9,161.491c2.147-.146,4.3-.153,6.448-.174s4.308,0,6.455.174c-2.147.146-4.3.153-6.455.174S363.061,161.638,360.9,161.491Z" transform="translate(-317.71 -80.005)"/>
        <path id="Path_5825" data-name="Path 5825" class="cls-5" d="M360.9,171.381c2.147-.146,4.3-.153,6.448-.174s4.308,0,6.455.174c-2.147.146-4.3.153-6.455.174S363.061,171.521,360.9,171.381Z" transform="translate(-317.71 -83.001)"/>
        <path id="Path_5826" data-name="Path 5826" class="cls-5" d="M360.9,181.261c2.147-.139,4.3-.153,6.448-.174s4.308,0,6.455.174c-2.147.146-4.3.153-6.455.174S363.061,181.408,360.9,181.261Z" transform="translate(-317.71 -85.994)"/>
        <path id="Path_5827" data-name="Path 5827" class="cls-5" d="M387.65,121.921c2.154-.139,4.3-.153,6.455-.174s4.3,0,6.448.174c-2.147.146-4.3.153-6.448.174S389.8,122.082,387.65,121.921Z" transform="translate(-325.814 -68.018)"/>
        <path id="Path_5828" data-name="Path 5828" class="cls-5" d="M394,181.264a12.261,12.261,0,0,1,4.12,0,12.262,12.262,0,0,1-4.12,0Z" transform="translate(-327.737 -85.997)"/>
        <path id="Path_5829" data-name="Path 5829" class="cls-5" d="M394,171.384a12.261,12.261,0,0,1,4.12,0,12.261,12.261,0,0,1-4.12,0Z" transform="translate(-327.737 -83.004)"/>
        <path id="Path_5830" data-name="Path 5830" class="cls-5" d="M394,161.494a11.454,11.454,0,0,1,2.091-.174,10.783,10.783,0,0,1,2.056.174,12.262,12.262,0,0,1-4.12,0Z" transform="translate(-327.737 -80.007)"/>
        <path id="Path_5831" data-name="Path 5831" class="cls-5" d="M394,151.6a12.261,12.261,0,0,1,4.12,0,12.262,12.262,0,0,1-4.12,0Z" transform="translate(-327.737 -77.012)"/>
        <path id="Path_5832" data-name="Path 5832" class="cls-5" d="M394,141.724a12.262,12.262,0,0,1,4.12,0,12.262,12.262,0,0,1-4.12,0Z" transform="translate(-327.737 -74.019)"/>
        <path id="Path_5833" data-name="Path 5833" class="cls-5" d="M394,131.834a11.454,11.454,0,0,1,2.091-.174,10.784,10.784,0,0,1,2.056.174,10.784,10.784,0,0,1-2.056.174A11.453,11.453,0,0,1,394,131.834Z" transform="translate(-327.737 -71.022)"/>
        <path id="Path_5834" data-name="Path 5834" class="cls-5" d="M395.71,191.154a35.319,35.319,0,0,1,3.639-.174,33.5,33.5,0,0,1,3.646.174A38.152,38.152,0,0,1,395.71,191.154Z" transform="translate(-328.255 -88.992)"/>
        <path id="Path_5835" data-name="Path 5835" class="cls-5" d="M414.4,121.921c2.154-.139,4.3-.153,6.455-.174s4.3,0,6.448.174c-2.147.146-4.3.153-6.448.174S416.554,122.082,414.4,121.921Z" transform="translate(-333.917 -68.018)"/>
        <path id="Path_5836" data-name="Path 5836" class="cls-5" d="M414.4,131.831c2.154-.146,4.3-.153,6.455-.174s4.3,0,6.448.174c-2.147.146-4.3.153-6.448.174S416.554,131.978,414.4,131.831Z" transform="translate(-333.917 -71.02)"/>
        <path id="Path_5837" data-name="Path 5837" class="cls-5" d="M414.4,141.721c2.154-.146,4.3-.153,6.455-.174s4.3,0,6.448.174c-2.147.146-4.3.153-6.448.174S416.554,141.861,414.4,141.721Z" transform="translate(-333.917 -74.016)"/>
        <path id="Path_5838" data-name="Path 5838" class="cls-5" d="M414.4,151.6c2.154-.139,4.3-.153,6.455-.174s4.3,0,6.448.174c-2.147.146-4.3.153-6.448.174S416.554,151.748,414.4,151.6Z" transform="translate(-333.917 -77.009)"/>
        <path id="Path_5839" data-name="Path 5839" class="cls-5" d="M414.4,161.491c2.154-.146,4.3-.153,6.455-.174s4.3,0,6.448.174c-2.147.146-4.3.153-6.448.174S416.554,161.638,414.4,161.491Z" transform="translate(-333.917 -80.005)"/>
        <path id="Path_5840" data-name="Path 5840" class="cls-5" d="M414.4,171.381c2.154-.146,4.3-.153,6.455-.174s4.3,0,6.448.174c-2.147.146-4.3.153-6.448.174S416.554,171.521,414.4,171.381Z" transform="translate(-333.917 -83.001)"/>
        <path id="Path_5841" data-name="Path 5841" class="cls-5" d="M414.4,181.261c2.154-.139,4.3-.153,6.455-.174s4.3,0,6.448.174c-2.147.146-4.3.153-6.448.174S416.554,181.408,414.4,181.261Z" transform="translate(-333.917 -85.994)"/>
        <path id="Path_5842" data-name="Path 5842" class="cls-5" d="M414.4,191.151c2.154-.146,4.3-.153,6.455-.174s4.3,0,6.448.174c-2.147.146-4.3.153-6.448.174S416.554,191.3,414.4,191.151Z" transform="translate(-333.917 -88.99)"/>
        <path id="Path_5843" data-name="Path 5843" class="cls-3" d="M313.34,74.844c2.656-.139,5.319-.209,7.981-.265s5.319-.056,7.974-.084,5.319,0,7.981.084l3.987.1c1.331.056,2.663.091,3.994.167-1.331.084-2.663.112-3.994.174l-3.987.1c-2.663.056-5.319.049-7.981.077s-5.319,0-7.974-.077S316,75,313.34,74.844Z" transform="translate(-303.302 -53.702)"/>
        <path id="Path_5844" data-name="Path 5844" class="cls-3" d="M313.34,69.984c3.018-.146,6.037-.216,9.062-.272s6.037-.049,9.062-.077,6.037,0,9.062.077l4.531.1c1.513.056,3.025.091,4.531.174-1.506.077-3.018.112-4.531.167l-4.531.1c-3.018.056-6.037.056-9.062.077s-6.044,0-9.062-.077S316.358,70.123,313.34,69.984Z" transform="translate(-303.302 -52.23)"/>
        <path id="Path_5845" data-name="Path 5845" class="cls-5" d="M313.34,99.518c2.475-.112,4.942-.16,7.417-.2s4.949,0,7.424-.056,4.942,0,7.417.056,4.942.091,7.417.2c-2.475.112-4.942.16-7.417.2s-4.949,0-7.417.056-4.949,0-7.424-.056S315.815,99.622,313.34,99.518Z" transform="translate(-303.302 -61.2)"/>
        <path id="Path_5846" data-name="Path 5846" class="cls-5" d="M313.34,103.728c1.547-.1,3.1-.16,4.649-.2s3.1,0,4.656-.056,3.1,0,4.649.056,3.1.1,4.656.2c-1.554.112-3.1.16-4.656.2s-3.1.042-4.649.063-3.1,0-4.656-.063S314.887,103.832,313.34,103.728Z" transform="translate(-303.302 -62.476)"/>
        <path id="Path_5847" data-name="Path 5847" class="cls-5" d="M313.34,107.945c2.161-.1,4.315-.153,6.476-.2s4.315-.042,6.476-.063,4.322,0,6.476.063,4.322.091,6.476.2c-2.154.112-4.315.16-6.476.2s-4.315.042-6.476.063-4.315,0-6.476-.063S315.5,108.056,313.34,107.945Z" transform="translate(-303.302 -63.758)"/>
        <path id="Path_5848" data-name="Path 5848" class="cls-5" d="M313.34,203.691c1.589-.112,3.172-.16,4.761-.2s3.179-.042,4.761-.063,3.179,0,4.768.063,3.172.091,4.761.2c-1.589.1-3.179.16-4.761.2s-3.179.035-4.768.056-3.172,0-4.761-.063S314.929,203.824,313.34,203.691Z" transform="translate(-303.302 -92.761)"/>
        <path id="Path_5849" data-name="Path 5849" class="cls-5" d="M313.34,207.874c1.833-.112,3.674-.16,5.507-.2s3.667,0,5.507-.063,3.667,0,5.507.063,3.667.091,5.507.2c-1.84.112-3.673.16-5.507.2s-3.674.035-5.507.056-3.673,0-5.507-.056S315.194,207.992,313.34,207.874Z" transform="translate(-303.302 -94.022)"/>
        <path id="Path_5850" data-name="Path 5850" class="cls-5" d="M313.34,224.7c2.886-.1,5.772-.153,8.658-.2l8.651-.063,8.658.056c2.886.042,5.772.1,8.658.2-2.886.112-5.772.16-8.658.2l-8.658.063L322,224.9C319.112,224.83,316.226,224.83,313.34,224.7Z" transform="translate(-303.302 -99.129)"/>
        <path id="Path_5851" data-name="Path 5851" class="cls-5" d="M313.34,212.117c1.122-.1,2.238-.16,3.36-.2s2.238-.049,3.36-.056,2.238,0,3.36.056,2.238.1,3.36.2c-1.122.112-2.245.16-3.36.2s-2.245.056-3.36.063-2.245,0-3.36-.063S314.5,212.228,313.34,212.117Z" transform="translate(-303.302 -95.317)"/>
        <path id="Path_5852" data-name="Path 5852" class="cls-5" d="M394,216.275c2.788-.112,5.577-.16,8.365-.2l8.365-.063,8.365.063c2.788.042,5.577.091,8.365.2-2.788.1-5.577.16-8.365.2l-8.365.056-8.365-.056C399.577,216.435,396.788,216.379,394,216.275Z" transform="translate(-327.737 -96.575)"/>
        <path id="Path_5853" data-name="Path 5853" class="cls-5" d="M394,212.114c2.265-.1,4.524-.16,6.789-.2s4.524-.035,6.789-.056,4.531,0,6.789.056,4.531.1,6.789.2c-2.258.112-4.524.16-6.789.2s-4.524.042-6.789.063-4.524,0-6.789-.063S396.231,212.226,394,212.114Z" transform="translate(-327.737 -95.315)"/>
        <path id="Path_5854" data-name="Path 5854" class="cls-5" d="M394,220.484c2.126-.1,4.252-.16,6.385-.2s4.252-.035,6.378-.056,4.259,0,6.385.056,4.252.091,6.378.2c-2.126.112-4.252.16-6.378.2s-4.259.042-6.385.063-4.252,0-6.378-.063S396.091,220.6,394,220.484Z" transform="translate(-327.737 -97.85)"/>
        <path id="Path_5855" data-name="Path 5855" class="cls-5" d="M394,224.694c1.527-.1,3.053-.153,4.573-.2s3.053-.042,4.58-.063,3.046,0,4.573.056,3.046.1,4.573.2c-1.527.112-3.046.16-4.573.2s-3.053.042-4.573.063-3.053,0-4.58-.063S395.492,224.827,394,224.694Z" transform="translate(-327.737 -99.126)"/>
        <path id="Path_5856" data-name="Path 5856" class="cls-5" d="M314.647,219.146c.83-.572,1.687-1.115,2.565-1.617A12.234,12.234,0,0,1,320,216.281a2.462,2.462,0,0,1,.383-.07.4.4,0,0,1,.425.139,1.464,1.464,0,0,1,.174.781,9.21,9.21,0,0,1-.16,1.527c-.174,1-.425,1.98-.7,2.956a45.3,45.3,0,0,1-2.008,5.723,9.834,9.834,0,0,1-.7,1.394,2.728,2.728,0,0,1-.272.314.411.411,0,0,1-.265.118.251.251,0,0,1-.181-.07l-.091-.091a1.485,1.485,0,0,1-.216-.809,10.205,10.205,0,0,1,.53-3.018,17.34,17.34,0,0,1,1.143-2.823,8.364,8.364,0,0,1,1.778-2.475,2.788,2.788,0,0,1,1.394-.7,1.6,1.6,0,0,1,.788.07,1.213,1.213,0,0,1,.558.565,3.316,3.316,0,0,0,.418.606.634.634,0,0,0,.613.209,4,4,0,0,0,1.269-.746c.2-.153.4-.307.613-.453a1.971,1.971,0,0,1,.328-.2c.112-.049.272-.139.418,0,.2.244.146.509.251.732a.446.446,0,0,0,.516.335,4.523,4.523,0,0,0,1.108-.969c.342-.369.7-.753,1-1.129.662-.767,1.31-1.541,1.987-2.293.335-.376.7-.746,1.046-1.1.188-.174.376-.342.586-.5a1.638,1.638,0,0,1,.342-.2.529.529,0,0,1,.223-.049.307.307,0,0,1,.23.125,1.394,1.394,0,0,1,.1.8,6.883,6.883,0,0,1-.119.76c-.112.5-.251.99-.4,1.471A15.062,15.062,0,0,1,331.906,220a2.893,2.893,0,0,1-.474.634.551.551,0,0,1-.446.174,1.339,1.339,0,0,1-.4-.112,1.889,1.889,0,0,1-1.052-1.241.7.7,0,0,1,.056-.474.5.5,0,0,1,.2-.188.481.481,0,0,1,.265-.056,2.913,2.913,0,0,1,.781.181c.488.174.948.376,1.394.579s.92.411,1.394.593a6.016,6.016,0,0,0,.7.251,2.358,2.358,0,0,0,.342.077.488.488,0,0,0,.272-.063c.383-.188.634-.655,1.018-1.032a1.206,1.206,0,0,1,.767-.4.411.411,0,0,1,.314.1.4.4,0,0,1,.1.307,2.089,2.089,0,0,1-.077.411c-.07.23-.1.516-.035.523s.369,0,.579,0a3.869,3.869,0,0,0,1.276-.7,7.341,7.341,0,0,1,.641-.432,1.283,1.283,0,0,1,.843-.2,3.157,3.157,0,0,1,1.3.941,3.255,3.255,0,0,0,.537.467c.091.056.174.077.2.056a2.375,2.375,0,0,0,.286-.181,13.384,13.384,0,0,0,1.143-.955,13.592,13.592,0,0,0,1.952-2.252,2.53,2.53,0,0,0,.488-1.3c0-.453-.467-.7-.948-.739a8.3,8.3,0,0,0-2.963.042,7.285,7.285,0,0,0-1.429.411,2.92,2.92,0,0,0-.634.342c-.188.139-.356.335-.3.516a.937.937,0,0,0,.481.439,7.256,7.256,0,0,0,.7.279,14.289,14.289,0,0,0,1.443.418,33.1,33.1,0,0,0,6,.579h0a31.959,31.959,0,0,1-6.044-.446,13.388,13.388,0,0,1-1.464-.4,6.315,6.315,0,0,1-.7-.279,1.094,1.094,0,0,1-.6-.565.746.746,0,0,1,.369-.746,3.164,3.164,0,0,1,.7-.383,7.284,7.284,0,0,1,1.471-.439,8.517,8.517,0,0,1,3.06-.084,2.251,2.251,0,0,1,.774.258.948.948,0,0,1,.439.746,2.858,2.858,0,0,1-.523,1.506,12.227,12.227,0,0,1-1.994,2.321,12.422,12.422,0,0,1-1.171,1,2.4,2.4,0,0,1-.356.216.592.592,0,0,1-.523-.077,4.066,4.066,0,0,1-.606-.516,2.977,2.977,0,0,0-1.108-.843c-.369-.056-.8.293-1.2.579a4.182,4.182,0,0,1-1.394.7,1.129,1.129,0,0,1-.9-.035.565.565,0,0,1-.174-.509,2.221,2.221,0,0,1,.084-.4,1.77,1.77,0,0,0,.063-.328v-.049c0,.014,0,0-.049,0a.892.892,0,0,0-.537.286c-.342.321-.579.809-1.108,1.094a.857.857,0,0,1-.46.091,2.217,2.217,0,0,1-.4-.091,7.539,7.539,0,0,1-.732-.265c-.467-.2-.927-.4-1.394-.606s-.92-.4-1.394-.579a2.636,2.636,0,0,0-.7-.167c-.16,0-.251.132-.209.349a1.6,1.6,0,0,0,.836,1.032,1.053,1.053,0,0,0,.321.091.244.244,0,0,0,.223-.1,2.788,2.788,0,0,0,.439-.565,14.757,14.757,0,0,0,1.213-2.732,13.107,13.107,0,0,0,.418-1.443,5.366,5.366,0,0,0,.125-.7,1.185,1.185,0,0,0-.056-.7c-.07-.132-.355,0-.537.167a5.155,5.155,0,0,0-.565.481c-.362.342-.7.7-1.053,1.08-.7.746-1.331,1.513-2,2.272-.335.376-.7.753-1.018,1.122a4.622,4.622,0,0,1-1.171.99.572.572,0,0,1-.648-.4c-.1-.237-.091-.537-.223-.7s-.181,0-.286.042a2.932,2.932,0,0,0-.314.2c-.2.146-.4.307-.6.46a4.12,4.12,0,0,1-1.317.788.781.781,0,0,1-.76-.244,3.817,3.817,0,0,1-.446-.627c-.139-.2-.272-.425-.474-.495a1.5,1.5,0,0,0-.7-.049,2.677,2.677,0,0,0-1.29.634,8.421,8.421,0,0,0-1.708,2.433,17.738,17.738,0,0,0-1.094,2.788,10.141,10.141,0,0,0-.488,2.928,1.31,1.31,0,0,0,.16.634l.042.042h0a.175.175,0,0,0,.07-.049,1.4,1.4,0,0,0,.216-.258,10.192,10.192,0,0,0,.7-1.31,43.613,43.613,0,0,0,2.056-5.667,28.038,28.038,0,0,0,.7-2.928,8.209,8.209,0,0,0,.167-1.478,1.227,1.227,0,0,0-.132-.7c-.063-.077-.118-.1-.251-.07a2.2,2.2,0,0,0-.362.063,12.959,12.959,0,0,0-2.788,1.178c-.885.474-1.75.99-2.593,1.541Z" transform="translate(-303.696 -95.981)"/>
      </g>
      <g id="freepik--Character--inject-58" transform="translate(44.243 131.066)">
        <path id="Path_5857" data-name="Path 5857" class="cls-5" d="M134.436,289.734a70.464,70.464,0,0,0,12.6,8.4c-6.211-11.334-2.886-35.494-2.321-31.96,2.684,16.89,12.791,35.989,17.19,37.258a.245.245,0,0,1,.077,0,57.776,57.776,0,0,0,32.63-3.283.1.1,0,0,0,0-.056c-8.17-12.924-5.521-37.544-5.033-35.989,5.312,16.681,18.535,27.255,21,27.436h0c9.759-6.873,15.238-14.088,14.018-14.966-8.86-6.42-15.5-21.609-21.3-37.544h0c-5.73-15.719-7.877-38.61-16.646-52.942-8.03-13.126-26.119-17.008-37.07-11.564C120.858,188.771,129.02,285.231,134.436,289.734Z" transform="translate(-72.221 -169.684)"/>
        <path id="Path_5858" data-name="Path 5858" class="cls-5" d="M150.008,174.34a18.361,18.361,0,0,0-6.434,3.862,39.036,39.036,0,0,0-4.956,5.36,62.38,62.38,0,0,0-6.971,12.408c-3.8,8.651-5.869,26.063-6.929,35.278a144.292,144.292,0,0,0,0,27.813c.181,2.314.523,4.615.781,6.922l1.018,6.9,1.324,6.859,1.541,6.817-1.08-6.873-.913-6.894-.774-6.894c-.174-2.307-.432-4.6-.537-6.908a157,157,0,0,1,.383-27.576c.892-9.145,2.99-26.4,6.42-35.034a62.813,62.813,0,0,1,6.455-12.422,38.031,38.031,0,0,1,4.594-5.486,24.742,24.742,0,0,1,2.788-2.335,13.063,13.063,0,0,1,3.29-1.8Z" transform="translate(-70.7 -170.351)"/>
        <path id="Path_5859" data-name="Path 5859" class="cls-5" d="M248.152,277.089a119.98,119.98,0,0,1-7.1-10.317c-2.224-3.485-4.3-7.082-6.176-10.735a119.928,119.928,0,0,1-5.116-11.153c-1.485-3.806-2.837-7.633-4.266-11.453-2.942-7.619-5.751-23.456-9.194-30.936-1.743-3.736-3.562-7.445-5.66-11.041a56.008,56.008,0,0,0-3.485-5.235,15.816,15.816,0,0,0-4.67-4.419,16.471,16.471,0,0,1,4.28,4.635,55.476,55.476,0,0,1,3.116,5.339c1.924,3.639,3.59,7.375,5.172,11.153,3.172,7.528,5.981,23.338,8.8,30.984,1.478,3.813,2.865,7.626,4.426,11.439a98.512,98.512,0,0,0,5.4,11.153,116.087,116.087,0,0,0,14.478,20.584Z" transform="translate(-94.461 -172.611)"/>
        <path id="Path_5860" data-name="Path 5860" class="cls-9" d="M166.192,298.1c7.5,16.848,36.847,71.1,54.956,74.363C233,374.6,280.5,368.282,288.3,356.7c3.4-5.04-3.876-39.036-10.177-37.481s-44.326,8.009-49.066,6.817-41.357-40.43-54.852-49.993C150.913,259.533,162.156,289.033,166.192,298.1Z" transform="translate(-81.566 -199.668)"/>
        <path id="Path_5861" data-name="Path 5861" class="cls-6" d="M261.8,315.993l2.858,51.415s-37.509,8.246-53.883,2.593c-19.873-6.866-48.962-68.431-52.977-78.552-6.538-16.611-4.726-26.663,4.538-24.209,3.6.927,8.365,3.764,14.136,8.874,6.071,5.326,40.945,39.879,51.952,46.4C234.606,326.17,261.8,315.993,261.8,315.993Z" transform="translate(-79.744 -198.383)"/>
        <path id="Path_5862" data-name="Path 5862" class="cls-3" d="M241.937,363.347a11.369,11.369,0,0,0-2.83,1.492,11.343,11.343,0,0,0,3.116-.7,11.155,11.155,0,0,0,2.83-1.485,11.036,11.036,0,0,0-3.116.69Zm-28.259-40.388a11.077,11.077,0,0,0-2.823,1.485,12.24,12.24,0,0,0,5.939-2.2A11.1,11.1,0,0,0,213.678,322.959Zm-28.51-24.4a11.368,11.368,0,0,0-2.83,1.492,12.3,12.3,0,0,0,5.946-2.2,11.279,11.279,0,0,0-3.116.7Zm20.724,55.277a11.223,11.223,0,0,0-2.83,1.485,12.241,12.241,0,0,0,5.939-2.2,11,11,0,0,0-3.109.711Zm33.166-19.817a11.249,11.249,0,0,0-2.83,1.492,11.343,11.343,0,0,0,3.116-.7,11.152,11.152,0,0,0,2.83-1.485,11.036,11.036,0,0,0-3.116.683Zm-49.805-8.992a11.329,11.329,0,0,0-2.788,1.492,11.341,11.341,0,0,0,3.116-.7,11.1,11.1,0,0,0,2.788-1.492,11.341,11.341,0,0,0-3.116.69Zm74.586,28.391c-.119-.474-.272-.941-.432-1.394a11.369,11.369,0,0,0-1.492-2.83,11.1,11.1,0,0,0,.7,3.116,11.671,11.671,0,0,0,1.283,2.551Zm-39.4,2.865a11.341,11.341,0,0,0-1.485-2.83,11.334,11.334,0,0,0,.7,3.116,11.154,11.154,0,0,0,1.492,2.83,11.043,11.043,0,0,0-.676-3.123Zm-24.906-44.033a11.327,11.327,0,0,0-1.492-2.823,11.342,11.342,0,0,0,.7,3.116,11.076,11.076,0,0,0,1.492,2.823A11.083,11.083,0,0,0,199.527,312.252ZM172.07,285.22a11.222,11.222,0,0,0-1.485-2.83,12.241,12.241,0,0,0,2.2,5.939,10.993,10.993,0,0,0-.753-3.109Zm38.854,84.031a11.041,11.041,0,0,0-3.032-.976,11.153,11.153,0,0,0,2.7,1.694,11.277,11.277,0,0,0,3.053.948A11.266,11.266,0,0,0,210.924,369.251Zm34.2-21.156a11.153,11.153,0,0,0-3.053-.941,12.456,12.456,0,0,0,5.765,2.642,11.558,11.558,0,0,0-2.712-1.729Zm-11.265,28.238a11.04,11.04,0,0,0-3.053-.948,9.138,9.138,0,0,0,1.687,1.171l1.645-.091Zm-27.659-40.116a11.04,11.04,0,0,0-3.053-.948,12.393,12.393,0,0,0,5.758,2.642,11.153,11.153,0,0,0-2.7-1.722Zm-41.824-36.3a11.041,11.041,0,0,0-3.053-.948,11.152,11.152,0,0,0,2.7,1.694,11.279,11.279,0,0,0,3.053.948,11.264,11.264,0,0,0-2.691-1.722ZM190.312,344.7a10.887,10.887,0,0,0-.941,3.053,11.3,11.3,0,0,0,1.694-2.712,11.53,11.53,0,0,0,.948-3.053,11.332,11.332,0,0,0-1.687,2.684Zm-13.941-28.747a10.888,10.888,0,0,0-.941,3.053,11.3,11.3,0,0,0,1.694-2.712,11.531,11.531,0,0,0,.948-3.053,11.557,11.557,0,0,0-1.68,2.684Zm44.368,23.087a11.279,11.279,0,0,0-.927,3.025,10.951,10.951,0,0,0,1.7-2.7,11.53,11.53,0,0,0,.948-3.053,11.076,11.076,0,0,0-1.7,2.7ZM154.72,285.1c.07.383.146.767.237,1.164a10.122,10.122,0,0,0,.7-2.44,8.484,8.484,0,0,0-.913,1.248Z" transform="translate(-79.992 -203.084)"/>
        <path id="Path_5863" data-name="Path 5863" class="cls-5" d="M298.433,390.061c-.655-7.584-2.182-38.722-2.056-45.476,0-.467.307-.572.362-.084,2.5,22.682,1.729,38.053,1.987,45.525C298.733,390.194,298.447,390.235,298.433,390.061Z" transform="translate(-122.903 -221.803)"/>
        <path id="Path_5864" data-name="Path 5864" class="cls-7" d="M157.839,291.434c3.973,10.121,33.076,71.693,52.977,78.552,4.879,1.694,11.711,2.14,18.821,1.952L161.15,266.954a5.868,5.868,0,0,0-4.705.955C152.75,270.829,153.106,279.431,157.839,291.434Z" transform="translate(-79.758 -198.375)"/>
        <path id="Path_5865" data-name="Path 5865" class="cls-6" d="M61.67,372.249l102.984-.272-5.695-35.411s8.142-9.884,6.6-20.605c-1.687-11.746-22.871-41.524-24.648-43.218-7.173-6.734-14.764-7.94-22.055-5.514h0C85.168,288.448,61.67,372.249,61.67,372.249Z" transform="translate(-51.804 -198.142)"/>
        <path id="Path_5866" data-name="Path 5866" class="cls-3" d="M72.365,353a13.872,13.872,0,0,0-1.736.795l-.209.592a13.35,13.35,0,0,0,2.231-.613,11.027,11.027,0,0,0,2.83-1.492A11.1,11.1,0,0,0,72.365,353Zm37.209-67.615a11.325,11.325,0,0,0-2.788,1.492,11.292,11.292,0,0,0,3.109-.7,11.029,11.029,0,0,0,2.83-1.492,11.34,11.34,0,0,0-3.151.683Zm48.592,10.01a9.435,9.435,0,0,0-1.394.85,8.566,8.566,0,0,0,1.708-.279C158.4,295.775,158.278,295.586,158.166,295.391ZM131.636,310.8a11.342,11.342,0,0,0-2.83,1.485,12.3,12.3,0,0,0,5.946-2.2A11.1,11.1,0,0,0,131.636,310.8Zm-13.244,40.325a11.223,11.223,0,0,0-2.83,1.485,11.335,11.335,0,0,0,3.116-.7,11.1,11.1,0,0,0,2.788-1.492,10.993,10.993,0,0,0-3.053.7ZM163.7,321.217a11.327,11.327,0,0,0-2.788,1.492,11.341,11.341,0,0,0,3.116-.7,11.1,11.1,0,0,0,2.788-1.492,11.34,11.34,0,0,0-3.1.7Zm-67.573,1.8a11.3,11.3,0,0,0-2.788,1.485,12.241,12.241,0,0,0,5.939-2.2,11.1,11.1,0,0,0-3.137.718Zm50.795,27.011a11.222,11.222,0,0,0-2.83,1.485,11.335,11.335,0,0,0,3.116-.7,11.209,11.209,0,0,0,2.823-1.492,10.993,10.993,0,0,0-3.095.7Zm-27.3-79.681-.209-.516c-.23.16-.453.328-.7.495.042.1.077.2.112.307a11.154,11.154,0,0,0,1.492,2.8,11.341,11.341,0,0,0-.7-3.088ZM93.911,352.139a11.342,11.342,0,0,0-1.485-2.83,12.3,12.3,0,0,0,2.2,5.946A11.041,11.041,0,0,0,93.911,352.139Zm37.028-16.123a11.3,11.3,0,0,0-1.485-2.788,12.241,12.241,0,0,0,2.2,5.939A11.1,11.1,0,0,0,130.939,336.016Zm-13.1-34.756a11.327,11.327,0,0,0-1.492-2.823,12.5,12.5,0,0,0,2.2,5.939,11.334,11.334,0,0,0-.711-3.116Zm45.5,59.118a11,11,0,0,0-1.485-2.83,11.334,11.334,0,0,0,.7,3.116,11.209,11.209,0,0,0,1.492,2.823,10.992,10.992,0,0,0-.7-3.109ZM146.5,281.415a11.223,11.223,0,0,0-1.485-2.83,12.241,12.241,0,0,0,2.2,5.939A10.993,10.993,0,0,0,146.5,281.415Zm-39.489,57.34a11.155,11.155,0,0,0-3.053-.941,12.456,12.456,0,0,0,5.765,2.642,11.557,11.557,0,0,0-2.712-1.7Zm36.575,33.605a8.653,8.653,0,0,0,1.136.836h1.659a10.455,10.455,0,0,0-2.8-.836Zm-60.421-5.967a11.28,11.28,0,0,0-3.053-.948,10.986,10.986,0,0,0,2.712,1.7,11.4,11.4,0,0,0,3.046.948,10.952,10.952,0,0,0-2.7-1.7Zm62.38-36.171a11.153,11.153,0,0,0-3.046-.948,10.951,10.951,0,0,0,2.7,1.7,11.271,11.271,0,0,0,3.053.941,11.3,11.3,0,0,0-2.712-1.694Zm-6.685-34.156a11.041,11.041,0,0,0-3.053-.948,11.153,11.153,0,0,0,2.7,1.694,11.278,11.278,0,0,0,3.053.948,11.264,11.264,0,0,0-2.7-1.673ZM98.749,305.52a11.041,11.041,0,0,0-.948,3.053,11.153,11.153,0,0,0,1.694-2.712,10.923,10.923,0,0,0,.948-3.046,11.153,11.153,0,0,0-1.694,2.726Zm32.316,56.037a11.271,11.271,0,0,0-.941,3.053,11.154,11.154,0,0,0,1.694-2.649,11.279,11.279,0,0,0,.948-3.053,11.516,11.516,0,0,0-1.7,2.67Zm19.79-49.457a10.887,10.887,0,0,0-.941,3.053,11.3,11.3,0,0,0,1.694-2.712,11.529,11.529,0,0,0,.948-3.053,11.557,11.557,0,0,0-1.7,2.733Zm-44.229,52.335a11.28,11.28,0,0,0-.948,3.1,10.952,10.952,0,0,0,1.7-2.7,11.271,11.271,0,0,0,.941-3.053,11.264,11.264,0,0,0-1.694,2.677Zm-22.362-25.61a11.209,11.209,0,0,0-.948,3.053,12.275,12.275,0,0,0,2.642-5.765A11.3,11.3,0,0,0,84.264,338.825Zm31.493-16.6a10.923,10.923,0,0,0-.948,3.046,11.153,11.153,0,0,0,1.694-2.7,11.279,11.279,0,0,0,.948-3.053,11.3,11.3,0,0,0-1.694,2.712Zm12.68-39.544a10.923,10.923,0,0,0-.948,3.046,11.153,11.153,0,0,0,1.694-2.7,11.278,11.278,0,0,0,.948-3.053,11.3,11.3,0,0,0-1.694,2.732Z" transform="translate(-54.455 -199.279)"/>
        <path id="Path_5867" data-name="Path 5867" class="cls-5" d="M191.27,296.191c1.994,3.318,4.182,6.518,6.274,9.759-.843-2.314-1.666-4.629-2.586-6.908a.042.042,0,0,1,.07-.042,48.055,48.055,0,0,1,3.562,8.616,65.4,65.4,0,0,1,4.182,7.668,30.67,30.67,0,0,1,2.788,10.079,25.875,25.875,0,0,1-1.464,10.372,67.106,67.106,0,0,1-5.214,10.986c-.265.467-.913.035-.7-.432,2.921-6.232,6.148-12.784,5.855-19.845s-3.541-13.418-6.727-19.476a96.811,96.811,0,0,0-6.274-10.686C190.942,296.184,191.179,296.038,191.27,296.191Z" transform="translate(-90.988 -207.244)"/>
        <path id="Path_5868" data-name="Path 5868" class="cls-4" d="M237.151,407.5l-2.091,11.7h64.91a7.953,7.953,0,0,0,7.542-6.378l.934-5.326Z" transform="translate(-104.33 -240.984)"/>
        <path id="Path_5869" data-name="Path 5869" class="cls-2" d="M227.52,412.826l.941-5.326h12.749l-.941,5.326a7.94,7.94,0,0,1-7.5,6.378,5.3,5.3,0,0,1-4.182-1.868A5.479,5.479,0,0,1,227.52,412.826Z" transform="translate(-102.012 -240.984)"/>
        <path id="Path_5870" data-name="Path 5870" class="cls-4" d="M261.028,284.988l-16.778,95.17H302.8a7.953,7.953,0,0,0,7.493-6.378l16.778-95.17H268.522a7.57,7.57,0,0,0-4.838,1.868,7.814,7.814,0,0,0-2.656,4.51Z" transform="translate(-107.114 -201.939)"/>
        <path id="Path_5871" data-name="Path 5871" class="cls-2" d="M277.608,278.61l-3.388,19.225H345.5l2.265-12.847a5.207,5.207,0,0,0-5.249-6.378Z" transform="translate(-116.193 -201.939)"/>
        <path id="Path_5872" data-name="Path 5872" class="cls-4" d="M267.335,284.988l-2.265,12.847h12.749l2.265-12.847a5.2,5.2,0,0,0-5.249-6.378A7.57,7.57,0,0,0,270,280.478,7.814,7.814,0,0,0,267.335,284.988Z" transform="translate(-113.421 -201.939)"/>
        <path id="Path_5873" data-name="Path 5873" class="cls-9" d="M334.421,331.41c2.384,6.8,9.257,15.642,9.334,21a6.148,6.148,0,0,1-4.078,6.085s4.991,3.186,4.259,8.051c-.376,2.5-4.712,4.1-4.712,4.1s3.89,2.726,2.969,7.012c-.732,3.416-4.963,4.5-4.963,4.5s2.509,4.357.648,7.6c-3.778,6.566-33.591,3.4-37.028-8.072-1.6-5.346,5.639-4.182,5.639-4.182s-10.01-4.182-9.508-10.358,9.808-4.078,9.808-4.078-9.661-4.148-8.5-10.491c1.213-6.594,10.17-2.914,10.17-2.914s-6.155-5.193-4.182-9.842c3.3-7.668,14.792,3.639,21.511,2.788l4.761-10.456Z" transform="translate(-123.083 -217.934)"/>
        <path id="Path_5874" data-name="Path 5874" class="cls-9" d="M353.553,335.326c-1.694-6.629,7.04-13.662,6.329-20.215-.955-8.888-11.641-1.394-15.154,10.979l-1.039,10.073Z" transform="translate(-137.238 -211.818)"/>
        <path id="Path_5875" data-name="Path 5875" class="cls-5" d="M340.475,402.189a.077.077,0,0,1,0,.153c-10.066,1.352-21.525-.251-30.517-5.1-.3-.153-.167-.7.2-.593C320.393,399.875,329.713,401.91,340.475,402.189Z" transform="translate(-126.97 -237.694)"/>
        <path id="Path_5876" data-name="Path 5876" class="cls-5" d="M343.352,384.318c.119,0,.112.2,0,.209-10.379,1.338-23.24-.823-32.95-7.626-.328-.23-.4-.774,0-.537C317.2,380.4,333.663,384.116,343.352,384.318Z" transform="translate(-127.071 -231.534)"/>
        <path id="Path_5877" data-name="Path 5877" class="cls-5" d="M312.546,356.557c9.557,6.162,20.131,8.637,31.368,9.612.146,0,.112.223,0,.244-5.618,1.018-12.707-.355-18.124-1.889a29.868,29.868,0,0,1-13.418-7.633C312.176,356.746,312.337,356.432,312.546,356.557Z" transform="translate(-127.724 -225.543)"/>
        <path id="Path_5878" data-name="Path 5878" class="cls-9" d="M151.119,254.239c.139,1.812,6.734,14.436,14.778,15.294,2.621.272,4.754-13.941,4.754-13.941l.4-1.011,5.576-14.213-15.579-13.76-2.272-1.847s-1.262,3.987-2.788,8.964c-.07.23-.146.467-.216.7s-.188.544-.265.809c-.237.739-.474,1.5-.7,2.258-.174.579-.342,1.136-.5,1.75s-.328,1.213-.5,1.819A97.482,97.482,0,0,0,151.119,254.239Z" transform="translate(-78.901 -185.625)"/>
        <path id="Path_5879" data-name="Path 5879" class="cls-5" d="M158.08,233.694a30.622,30.622,0,0,0,15.084,20.856l5.576-14.213-15.579-13.76-2.272-1.847S159.607,228.717,158.08,233.694Z" transform="translate(-81.01 -185.616)"/>
        <path id="Path_5880" data-name="Path 5880" class="cls-9" d="M202.591,206.986c-3.527,26.544-19.824,27.429-25.547,26.663-5.193-.7-22.8-3.729-22.034-30.5s14.227-33.522,26.2-32.56S206.125,180.435,202.591,206.986Z" transform="translate(-80.073 -169.189)"/>
        <path id="Path_5881" data-name="Path 5881" class="cls-5" d="M216.341,217.307a17.43,17.43,0,0,1-1.7-.739,2.941,2.941,0,0,1-1.582-1.08.941.941,0,0,1,.237-1.136,2.363,2.363,0,0,1,2.391-.077,3.485,3.485,0,0,1,1.889,1.638,1.018,1.018,0,0,1-1.234,1.394Z" transform="translate(-97.635 -182.362)"/>
        <path id="Path_5882" data-name="Path 5882" class="cls-5" d="M191.665,211.109a18.122,18.122,0,0,0,1.847,0,3,3,0,0,0,1.889-.376.955.955,0,0,0,.23-1.136,2.37,2.37,0,0,0-2.175-1.011,3.485,3.485,0,0,0-2.377.767,1.018,1.018,0,0,0,.586,1.757Z" transform="translate(-90.909 -180.722)"/>
        <path id="Path_5883" data-name="Path 5883" class="cls-5" d="M194.9,220.58c0-.077-.153.056-.167.132-.265,1.805-.871,3.827-2.607,4.127-.049,0-.063.1,0,.1C194.15,225.048,194.931,222.33,194.9,220.58Z" transform="translate(-91.31 -184.352)"/>
        <path id="Path_5884" data-name="Path 5884" class="cls-5" d="M193.04,217.452c-2.844-.739-4.12,5.012-1.478,5.695S195.424,218.072,193.04,217.452Z" transform="translate(-90.716 -183.392)"/>
        <path id="Path_5885" data-name="Path 5885" class="cls-5" d="M191.083,217.162c-.572.216-1.192.7-1.805.606-.7-.084-1.115-.809-1.443-1.485-.035-.07-.1-.035-.112.042-.265,1.1-.091,2.321,1.06,2.746,1.039.39,2.028-.411,2.551-1.457C191.431,217.42,191.32,217.078,191.083,217.162Z" transform="translate(-89.957 -183.046)"/>
        <path id="Path_5886" data-name="Path 5886" class="cls-5" d="M211.12,222.994c0-.063.118.118.1.2-.467,1.764-.7,3.862.774,4.817.049.035,0,.118-.035.1C210.053,227.358,210.395,224.577,211.12,222.994Z" transform="translate(-96.903 -185.087)"/>
        <path id="Path_5887" data-name="Path 5887" class="cls-5" d="M213.195,220.823c2.914.439,1.819,6.225-.871,5.82S210.762,220.46,213.195,220.823Z" transform="translate(-96.971 -184.428)"/>
        <path id="Path_5888" data-name="Path 5888" class="cls-5" d="M215.722,221.689c.4.39.746,1.032,1.29,1.171s1.206-.376,1.722-.9c.056-.056.091,0,.084.077-.181,1.115-.767,2.2-1.868,2.21s-1.534-1.073-1.589-2.224C215.346,221.808,215.562,221.529,215.722,221.689Z" transform="translate(-98.362 -184.681)"/>
        <path id="Path_5889" data-name="Path 5889" class="cls-5" d="M191.961,242.585c.314.523.579,1.206,1.206,1.394a4.879,4.879,0,0,0,2.008.07.063.063,0,0,1,.056.112,2.468,2.468,0,0,1-2.5.349,1.917,1.917,0,0,1-.962-1.924C191.773,242.508,191.926,242.508,191.961,242.585Z" transform="translate(-91.212 -191.008)"/>
        <path id="Path_5890" data-name="Path 5890" class="cls-5" d="M201.81,227.959s-.188,2.739-.453,4c0,.118-.342.1-.774.042a.042.042,0,0,1-.049,0,6.12,6.12,0,0,1-5.34-3.443.132.132,0,0,1,.223-.139,9.159,9.159,0,0,0,5.137,2.7c.16-.328.16-4.705.362-4.677a11.006,11.006,0,0,1,2.726,1.241c.558-5.7.2-11.446.836-17.113a.174.174,0,1,1,.349,0c.8,5.995.3,12.547-.125,18.472C204.661,229.764,202.27,228.28,201.81,227.959Z" transform="translate(-92.25 -181.275)"/>
        <path id="Path_5891" data-name="Path 5891" class="cls-5" d="M156.058,202.922c6.134,1.255,7.974-8.441,7.974-8.441s7.089.7,9.794-10.421c0,0,2.028,7.445,11.2,10.665,1.945.7-3.75-5.807-3.75-5.807s6.615,8.832,22.062,8.978c1.087,0,3.158-16.235-7.486-23.874a27.2,27.2,0,0,0-31.709-.6s-8.365,2.942-10.9,10.867S153.674,202.434,156.058,202.922Z" transform="translate(-79.253 -168.618)"/>
        <path id="Path_5892" data-name="Path 5892" class="cls-2" d="M184.177,227.617a8.888,8.888,0,1,1,11.278-8.365h0a8.9,8.9,0,0,1-9.062,8.671,8.69,8.69,0,0,1-2.217-.307Zm4.468-15.977a5.869,5.869,0,1,0,.021,0Z" transform="translate(-86.948 -181.206)"/>
        <path id="Path_5893" data-name="Path 5893" class="cls-2" d="M213.944,231.978c-3.269-.913-5.3-5.1-4.587-9.675a10.6,10.6,0,0,1,2.788-5.848,5.535,5.535,0,0,1,9.355,1.471,10.588,10.588,0,0,1,.892,6.427c-.76,4.838-4.308,8.316-7.912,7.751a3.981,3.981,0,0,1-.537-.125Zm3.583-16.158a3.078,3.078,0,0,0-.439-.1,4.761,4.761,0,0,0-4.071,1.568,9.48,9.48,0,0,0-2.488,5.193c-.655,4.182,1.206,7.981,4.182,8.448s5.9-2.572,6.559-6.762a9.48,9.48,0,0,0-.774-5.709,4.879,4.879,0,0,0-3-2.642Z" transform="translate(-96.5 -182.513)"/>
        <path id="Path_5894" data-name="Path 5894" class="cls-2" d="M202.293,223.741l-.613-1.018c1.506-.913,4.817-1.931,6.6.7l-.983.7C205.7,221.733,202.433,223.657,202.293,223.741Z" transform="translate(-94.218 -184.711)"/>
        <path id="Path_5895" data-name="Path 5895" class="cls-2" d="M145.525,216.795l-.955-.7c.328-.446,3.276-4.364,5.967-4.378,2.509,0,18.005,3.938,18.667,4.106l-.3,1.15c-4.44-1.136-16.423-4.078-18.361-4.071C148.766,212.94,146.32,215.742,145.525,216.795Z" transform="translate(-76.917 -181.675)"/>
        <path id="Path_5896" data-name="Path 5896" class="cls-9" d="M156.14,217.452s-3.9-9.431-8.051-8.218-2.5,14,1.492,16.583a4.531,4.531,0,0,0,6.455-1.06Z" transform="translate(-77.251 -180.889)"/>
        <path id="Path_5897" data-name="Path 5897" class="cls-5" d="M149.968,214.52a.063.063,0,0,0-.049.112c2.788,1.917,3.75,5.1,4.217,8.274-.655-1.324-1.75-2.217-3.485-1.478a.1.1,0,0,0,.042.181,2.788,2.788,0,0,1,2.788,1.617,12.866,12.866,0,0,1,.9,2.739c.084.3.606.265.572-.07v-.077C155.837,221.95,154.025,215.837,149.968,214.52Z" transform="translate(-78.531 -182.523)"/>
        <path id="Path_5898" data-name="Path 5898" class="cls-2" d="M168.647,268.988l-3.75,12.24-15.97-13.718-3.757,5.151s16.4,22.564,16.4,21.477l4.008-10.609,7.668,6.5-2.091-17.761Z" transform="translate(-77.099 -198.576)"/>
        <path id="Path_5899" data-name="Path 5899" class="cls-5" d="M172.542,283.278c-.439-2.921-.8-5.876-1.394-8.776,0-.1-.188-.132-.2,0-.349,2.886,1.394,14.046,1.617,16.729h0c-.321-.286-7.054-5.688-7.11-5.577-.92,1.708-3.869,9.438-4.057,10.135-2.593-3.583-13.509-17.657-16.506-21a.1.1,0,0,0-.167.112c2.349,3.82,16.493,22.411,16.66,22.348a115.016,115.016,0,0,0,4.182-11.216c1.164,1.2,8.023,7.368,8.009,6.929A91.368,91.368,0,0,0,172.542,283.278Z" transform="translate(-76.959 -200.668)"/>
        <path id="Path_5900" data-name="Path 5900" class="cls-9" d="M115.555,295.53c-6.2,26.725-23.777,56.622-34.9,65.412-6.775,5.346-28.461,5.4-29.43-8.637S92.831,294.3,99.1,285.743,121.159,271.418,115.555,295.53Z" transform="translate(-48.634 -201.857)"/>
        <path id="Path_5901" data-name="Path 5901" class="cls-6" d="M115.555,295.53c-6.2,26.725-23.777,56.622-34.9,65.412-6.775,5.346-28.461,5.4-29.43-8.637S92.831,294.3,99.1,285.743,121.159,271.418,115.555,295.53Z" transform="translate(-48.634 -201.857)"/>
        <path id="Path_5902" data-name="Path 5902" class="cls-3" d="M66.546,359.452a11.328,11.328,0,0,0-2.788,1.492,11.292,11.292,0,0,0,3.109-.7,11.028,11.028,0,0,0,2.83-1.492,11.1,11.1,0,0,0-3.151.7Zm37.209-67.615a11.326,11.326,0,0,0-2.788,1.492,11.292,11.292,0,0,0,3.109-.7,11.027,11.027,0,0,0,2.83-1.492,11.341,11.341,0,0,0-3.151.683ZM90.323,329.478a11.3,11.3,0,0,0-2.788,1.485,12.241,12.241,0,0,0,5.939-2.2,11.1,11.1,0,0,0-3.151.711ZM79.707,317.531a11.251,11.251,0,0,0-1.457-2.858,11.341,11.341,0,0,0,.7,3.116,11.153,11.153,0,0,0,1.492,2.83,11.285,11.285,0,0,0-.732-3.088ZM62.378,344.124a11.368,11.368,0,0,0-1.492-2.83,12.3,12.3,0,0,0,2.2,5.946,11.334,11.334,0,0,0-.711-3.116Zm24.237,11.641a9.758,9.758,0,0,0,.5,2.482l.551-.7a9.446,9.446,0,0,0-1.053-1.784Zm25.415-48.049a11.328,11.328,0,0,0-1.492-2.823,11.048,11.048,0,0,0,.7,3.109,12,12,0,0,0,1.192,2.419c.056-.181.118-.355.174-.537h0a13.376,13.376,0,0,0-.579-2.168ZM72.45,330.078a11.271,11.271,0,0,0-3.053-.941,11.153,11.153,0,0,0,2.7,1.694,11.277,11.277,0,0,0,3.053.948,11.516,11.516,0,0,0-2.7-1.7Zm20.48-18.124a11.041,11.041,0,0,0-.948,3.053,11.153,11.153,0,0,0,1.694-2.712,10.923,10.923,0,0,0,.948-3.046A11.153,11.153,0,0,0,92.93,312ZM78.445,345.281a11.209,11.209,0,0,0-.948,3.053,12.275,12.275,0,0,0,2.642-5.765A11.3,11.3,0,0,0,78.445,345.281ZM51.72,354.635c-.181.411-.356.83-.5,1.262a1.841,1.841,0,0,0,0,.279,6.646,6.646,0,0,0,.084.843,12.936,12.936,0,0,0,1.157-2.042,11.453,11.453,0,0,0,.948-3.053,11.154,11.154,0,0,0-1.687,2.712Z" transform="translate(-48.636 -205.734)"/>
        <path id="Path_5903" data-name="Path 5903" class="cls-5" d="M66.489,368.558a28.579,28.579,0,0,0,8.825.049,23.846,23.846,0,0,0,8.135-2.907c5.312-3.053,8.867-8.225,12.024-13.314q5.193-8.365,9.759-17.134c3.032-5.834,5.814-11.8,8.5-17.8,1.359-3.025,2.593-6.092,3.883-9.145s2.509-6.071,3.632-9.159c.286-.781.551-1.561.823-2.342a.058.058,0,0,1,.112.035c-1,3.193-1.959,6.42-3.039,9.585-.139.411-.293.823-.439,1.234,1.122-2.391,2.272-4.768,3.485-7.117.07-.139.265,0,.209.125-1.073,2.44-2.189,4.879-3.332,7.256q-.85,1.777-1.708,3.541c-.544,1.464-1.108,2.935-1.687,4.391q-3.743,9.369-8.323,18.34t-9.87,17.573c-3.227,5.277-6.692,10.7-11.913,14.22a22.724,22.724,0,0,1-17.043,3.436,15.753,15.753,0,0,1-2.091-.6.139.139,0,0,1,.063-.265Z" transform="translate(-53.221 -207.437)"/>
        <path id="Path_5904" data-name="Path 5904" class="cls-9" d="M81.43,229.331c4.426-10.77,11.606-25.54,16.43-27.8,5.075-2.349,23.247-9.877,28.036-10.261s21.769,4.58,24.836,7.591c2.447,2.412-1.8,8.156-11.474,7.333-9.062-.774-11.153-1.394-13.781-1s-10.4,6.671-9.717,10.5c.4,2.251,5.667,6.134,9.759,5.43s6.552-4.705,11.606-7.04,12.3,0,12.213,2.091-2.788,2.4-8.267,8.184c-3.541,3.715-6.092,11.1-13.516,17.155-3.729,3.039-11.111,11.794-11.111,11.794Z" transform="translate(-57.79 -175.474)"/>
        <path id="Path_5905" data-name="Path 5905" class="cls-9" d="M105,200.117c4.991-4.663,16.667-12.38,26.558-13.509,6.685-.774,25,14.82,23.352,18.66s-5.214,2.942-10.351.948c-1.868-.7-11.153-7.019-13.418-5.326-3.29,2.433-9.173,12.129-9.173,12.129Z" transform="translate(-64.93 -174.059)"/>
        <path id="Path_5906" data-name="Path 5906" class="cls-5" d="M171.282,205.8c-1.485-4.949-6.58-8.7-11.773-11.962-.084-.056-.167.07-.084.118,1.317.836,9.445,7.452,11.773,11.892C171.226,205.893,171.3,205.844,171.282,205.8Z" transform="translate(-81.407 -176.252)"/>
        <path id="Path_5907" data-name="Path 5907" class="cls-9" d="M105,200.118c4.991-4.663,16.667-12.38,26.558-13.509,6.685-.774,19.887,16.541,18.249,20.389s-6.866,2.837-12.031-.6c-1.673-1.115-6.713-7.026-9-5.339-3.3,2.433-11.355,8.5-11.355,8.5Z" transform="translate(-64.93 -174.06)"/>
        <path id="Path_5908" data-name="Path 5908" class="cls-5" d="M129.552,205.608c.795-.7,1.073-.99,1.882-1.708s1.624-1.394,2.482-2.091a8.113,8.113,0,0,1,2.384-1.492,4.141,4.141,0,0,1,2.642.146c1.924.7,3.381,2.4,4.8,3.792,1.589,1.547,5.012,4.28,8.058,4.726a6.023,6.023,0,0,0,2.5,0,3.8,3.8,0,0,0,1.694-.76c1.84-1.847.878-4.747-.307-6.971-2.217-4.071-5.716-7.507-9.2-10.456-.857-.732-1.736-1.443-2.607-2.154a9.062,9.062,0,0,0-3.332-1.959c-2.056-.544-5.967.7-7.173,1.046-.091,0-.118-.118,0-.146,1.464-.467,5.263-2.224,8.539-1.2a10.836,10.836,0,0,1,3.158,2.049c.983.76,2.035,1.631,3.018,2.489a48.245,48.245,0,0,1,5.367,5.374,20.124,20.124,0,0,1,3.917,6.225,5.9,5.9,0,0,1-1.164,6.016c-1.3,1.276-3.325,1.143-4.245,1.032a10.086,10.086,0,0,1-2.614-.7,42.132,42.132,0,0,1-5.263-3.13c-1.617-1.178-2.928-2.788-4.635-3.848a3.583,3.583,0,0,0-2.732-.516,9.34,9.34,0,0,0-2.482,1.317,28.775,28.775,0,0,0-4.378,3.109C129.461,206.11,129.217,205.914,129.552,205.608Z" transform="translate(-72.32 -173.904)"/>
        <path id="Path_5909" data-name="Path 5909" class="cls-9" d="M99.44,200.719c1.987-2.314,6.971-12.687,9.968-15.5s15.6-11.92,19.971-10.261c5.493,2.091-3.025,10.763-7.068,14.192s-5.374,10.7-5.374,10.7Z" transform="translate(-63.246 -170.479)"/>
        <path id="Path_5910" data-name="Path 5910" class="cls-5" d="M135.872,186.989c-1.394,1.06-2.7,2.293-3.987,3.485a34.239,34.239,0,0,0-3.6,3.485,15,15,0,0,0-2.3,4.371,22.994,22.994,0,0,0-.7,2.335c-.2.788-.376,1.75-.62,2.6,0,.091.112.146.139.049a38.406,38.406,0,0,1,1.819-4.531,20.912,20.912,0,0,1,2.621-4.3c2.091-2.621,4.7-4.761,6.8-7.368C136.13,187.031,135.976,186.913,135.872,186.989Z" transform="translate(-70.889 -174.176)"/>
        <path id="Path_5911" data-name="Path 5911" class="cls-5" d="M141.692,230.478a7.256,7.256,0,0,0,5.144-1.736c1.338-1,2.614-2.091,3.959-3.088a17.274,17.274,0,0,1,4.287-2.53,19.938,19.938,0,0,1,5.507-.92,10.762,10.762,0,0,1,5.3.774c1.352.641,2.788,2.042,2.042,3.687a6.421,6.421,0,0,1-1.52,1.938,15.987,15.987,0,0,1-1.882,1.534c-1.331.955-2.746,1.812-3.987,2.9a25.4,25.4,0,0,0-4,5.242c-.453.7-3.346,5.256-4.447,6.81a27.683,27.683,0,0,1-3.1,3.708,38.471,38.471,0,0,1-3.562,2.9,22.467,22.467,0,0,0-3.715,3.325c-.049.063-.132,0-.1-.084,1.394-2.565,3.945-4.287,6.274-5.988,2.976-2.2,9.585-13.579,10.784-15.126,1.994-2.572,5.019-3.806,7.291-6.044.523-.516,1.324-1.248,1.31-2.056a2.279,2.279,0,0,0-1.394-1.736,9.22,9.22,0,0,0-5.186-.606,23.7,23.7,0,0,0-5.284.871,17.426,17.426,0,0,0-4.224,2.21c-1.492,1.032-2.921,2.091-4.489,3.025a7.312,7.312,0,0,1-5.047,1.129C141.567,230.6,141.608,230.471,141.692,230.478Z" transform="translate(-76.019 -184.833)"/>
        <path id="Path_5912" data-name="Path 5912" class="cls-5" d="M175.23,199.4c-1.192-.586-2.377-1.22-3.59-1.771v-.056c1.436.572,2.914,1.046,4.357,1.6a4.445,4.445,0,0,1,2.788,2.279,3.36,3.36,0,0,1-.7,3.29,8.985,8.985,0,0,1-3.151,2.133c-.063.035-.112-.063-.049-.1,1.736-1,4.426-3.025,3.011-5.333A6.12,6.12,0,0,0,175.23,199.4Z" transform="translate(-85.118 -177.388)"/>
        <path id="Path_5913" data-name="Path 5913" class="cls-5" d="M168.434,215.054a7.681,7.681,0,0,0,4.071-.7,2.907,2.907,0,0,0,1.485-2.2,1.45,1.45,0,0,0-.132-.983c-.056-.07.077-.132.1-.049a4.431,4.431,0,0,0,.216.53,2.315,2.315,0,0,1,.1.474,2.586,2.586,0,0,1-.077.955,3.1,3.1,0,0,1-1.206,1.666,5.171,5.171,0,0,1-4.58.432A.065.065,0,0,1,168.434,215.054Z" transform="translate(-84.128 -181.482)"/>
        <path id="Path_5914" data-name="Path 5914" class="cls-9" d="M106.37,269.486C103.4,280.2,80.83,337.338,74.557,345.4s-21.532,9.8-25.791-4.775,17.915-84.24,22.6-95.142C73.978,239.421,107.437,265.6,106.37,269.486Z" transform="translate(-47.731 -191.629)"/>
        <path id="Path_5915" data-name="Path 5915" class="cls-6" d="M111.091,279.507,66.8,253.82s-18.946,64.987-19.281,85.028c-.244,14.38,16.994,25.129,30.615,5.688S111.091,279.507,111.091,279.507Z" transform="translate(-47.516 -194.429)"/>
        <path id="Path_5916" data-name="Path 5916" class="cls-3" d="M69.08,255a11.648,11.648,0,0,0-1.638,2.628,11.272,11.272,0,0,0-.941,3.053,11.153,11.153,0,0,0,1.694-2.7A11.376,11.376,0,0,0,69.129,255h0ZM54.8,316.969a11.271,11.271,0,0,0-.941,3.053,11.153,11.153,0,0,0,1.694-2.7,11.279,11.279,0,0,0,.948-3.067A11.655,11.655,0,0,0,54.8,316.969Zm-3.276,26.718a11.208,11.208,0,0,0-.948,3.053,11.153,11.153,0,0,0,1.687-2.712,11.453,11.453,0,0,0,.948-3.053,11.154,11.154,0,0,0-1.687,2.712Zm26.725-9.355a11.209,11.209,0,0,0-.948,3.053,12.275,12.275,0,0,0,2.642-5.765,11.3,11.3,0,0,0-1.694,2.712Zm14.889-65.391v.2l.118-.146Zm-.4,32.128a11.041,11.041,0,0,0-.948,3.053,11.154,11.154,0,0,0,1.694-2.712,10.923,10.923,0,0,0,.948-3.046,11.153,11.153,0,0,0-1.694,2.684Zm-20.424-7.277a10.972,10.972,0,0,0-.948,3.032,12.457,12.457,0,0,0,2.642-5.765,11.3,11.3,0,0,0-1.694,2.712Zm15.168-7.7a11.278,11.278,0,0,0-3.053-.948,10.951,10.951,0,0,0,2.7,1.7,11.272,11.272,0,0,0,3.053.92,11.263,11.263,0,0,0-2.7-1.694ZM72.259,319.13a11.271,11.271,0,0,0-3.053-.941,11.153,11.153,0,0,0,2.7,1.694,11.277,11.277,0,0,0,3.053.948,11.516,11.516,0,0,0-2.7-1.7ZM65.637,278.3a11.153,11.153,0,0,0-3.053-.948,12.276,12.276,0,0,0,5.765,2.642,11.3,11.3,0,0,0-2.712-1.666Zm-3.485,54.852a11.369,11.369,0,0,0-1.492-2.83,12.3,12.3,0,0,0,2.2,5.946,11.335,11.335,0,0,0-.676-3.088Zm17.364-26.565a11.251,11.251,0,0,0-1.457-2.858,11.341,11.341,0,0,0,.7,3.116,11.153,11.153,0,0,0,1.492,2.83,11.285,11.285,0,0,0-.732-3.088Zm10.616,11.969a11.3,11.3,0,0,0-2.788,1.485,12.241,12.241,0,0,0,5.939-2.2,11.1,11.1,0,0,0-3.151.69ZM60.548,303.007A11.1,11.1,0,0,0,57.76,304.5a11.6,11.6,0,0,0,3.116-.7,11.1,11.1,0,0,0,2.788-1.492,11.1,11.1,0,0,0-3.116.7Zm17.336-32.5a11.369,11.369,0,0,0-2.83,1.492,11.342,11.342,0,0,0,3.116-.7A11.155,11.155,0,0,0,81,269.806a11.285,11.285,0,0,0-3.116.7Zm25.68,10.372a11.327,11.327,0,0,0-2.788,1.492,11.292,11.292,0,0,0,3.109-.7,11.029,11.029,0,0,0,2.83-1.492,11.34,11.34,0,0,0-3.151.7ZM66.355,348.49a11.326,11.326,0,0,0-2.788,1.492,11.293,11.293,0,0,0,3.109-.7,11.028,11.028,0,0,0,2.83-1.492,11.1,11.1,0,0,0-3.151.711Z" transform="translate(-48.444 -194.786)"/>
        <path id="Path_5917" data-name="Path 5917" class="cls-5" d="M112.85,291.764c-6.706-3.6-33.626-19.33-39.21-23.122-.39-.265-.314-.579.125-.356,20.382,10.289,32.811,19.295,39.238,23.191A.163.163,0,0,1,112.85,291.764Z" transform="translate(-55.354 -198.788)"/>
        <path id="Path_5918" data-name="Path 5918" class="cls-5" d="M108.458,331.474c4.677-8.783,9.173-17.657,13.244-26.753q1.694-3.82,3.318-7.668c1.039-2.468,2.091-4.942,3.025-7.452-.927-.648-5-3.311-5.437-3.722a.177.177,0,0,1,.181-.293c.544.2,5.27,2.942,6.274,3.687.146.1-1.868,5-2.788,7.34s-1.854,4.67-2.83,6.971q-2.9,6.88-6.134,13.6c-2.321,4.838-4.747,9.606-7.319,14.3C107.747,335.524,102.415,342.787,108.458,331.474Z" transform="translate(-65.133 -204.049)"/>
      </g>
      <g id="freepik--Pencil--inject-58" transform="translate(195.48 317.114)">
        <path id="Path_5919" data-name="Path 5919" class="cls-10" d="M366.37,450.8s8.685,1.178,9.006-4.81-8.441-5.751-8.441-5.751Z" transform="translate(-295.346 -436.949)"/>
        <rect id="Rectangle_1320" data-name="Rectangle 1320" class="cls-6" width="10.574" height="61.641" transform="matrix(0.054, -0.999, 0.999, 0.054, 9.84, 10.577)"/>
        <rect id="Rectangle_1321" data-name="Rectangle 1321" class="cls-11" width="12.345" height="2.447" transform="matrix(0.054, -0.999, 0.999, 0.054, 69.23, 14.665)"/>
        <rect id="Rectangle_1322" data-name="Rectangle 1322" class="cls-11" width="12.345" height="2.454" transform="matrix(0.054, -0.999, 0.999, 0.054, 66.52, 14.514)"/>
        <path id="Path_5920" data-name="Path 5920" class="cls-2" d="M274.866,435.52l-7.807,3.562-2.579,1.164,2.44,1.464,7.382,4.378,1.589-.983-1.478-1.129,1.589-.99-1.478-1.122,1.589-.969s-1.45-1.122-1.471-1.15l1.589-.962-1.478-1.15,1.589-.962Z" transform="translate(-264.48 -435.52)"/>
        <path id="Path_5921" data-name="Path 5921" class="cls-11" d="M267.059,440.63l-2.579,1.164,2.44,1.464Z" transform="translate(-264.48 -437.068)"/>
      </g>
      <g id="freepik--Calculator--inject-58" transform="translate(81.217 311.496)">
        <path id="Path_5922" data-name="Path 5922" class="cls-6" d="M173.933,427.46l9.027,23.31h-82.4l9.85-23.282Z" transform="translate(-100.56 -427.46)"/>
        <path id="Path_5923" data-name="Path 5923" class="cls-6" d="M174.588,429.89l8.372,21.616v3.952h-82.4v-3.952l9.138-21.595Z" transform="translate(-100.56 -428.196)"/>
        <path id="Path_5924" data-name="Path 5924" class="cls-7" d="M173.933,427.46l9.027,23.31h-82.4l9.85-23.282Z" transform="translate(-100.56 -427.46)"/>
        <path id="Path_5925" data-name="Path 5925" class="cls-3" d="M141.806,451.9l-.516,4.482H131.28l.962-4.482Z" transform="translate(-109.866 -434.864)"/>
        <path id="Path_5926" data-name="Path 5926" class="cls-3" d="M142.874,444.62l-.523,4.482h-9.5l.969-4.482Z" transform="translate(-110.342 -432.658)"/>
        <path id="Path_5927" data-name="Path 5927" class="cls-6" d="M143.935,437.34l-.516,4.482h-9l.969-4.482Z" transform="translate(-110.817 -430.453)"/>
        <path id="Path_5928" data-name="Path 5928" class="cls-6" d="M145.006,430.06l-.523,4.475-8.483.007.969-4.482Z" transform="translate(-111.296 -428.248)"/>
        <path id="Path_5929" data-name="Path 5929" class="cls-11" d="M157.767,451.9l-.007,4.482H147.75l.453-4.482Z" transform="translate(-114.856 -434.864)"/>
        <path id="Path_5930" data-name="Path 5930" class="cls-11" d="M157.991,444.62V449.1h-9.5l.453-4.482Z" transform="translate(-115.08 -432.658)"/>
        <path id="Path_5931" data-name="Path 5931" class="cls-11" d="M158.219,437.34v4.475h-9l.453-4.475Z" transform="translate(-115.301 -430.453)"/>
        <path id="Path_5932" data-name="Path 5932" class="cls-3" d="M158.533,430.05v4.482H150.05l.446-4.475Z" transform="translate(-115.552 -428.245)"/>
        <path id="Path_5933" data-name="Path 5933" class="cls-11" d="M173.694,451.9l.509,4.482h-10.01l-.063-4.482Z" transform="translate(-119.818 -434.864)"/>
        <path id="Path_5934" data-name="Path 5934" class="cls-11" d="M173.085,444.62l.509,4.475-9.5.007-.063-4.482Z" transform="translate(-119.787 -432.658)"/>
        <path id="Path_5935" data-name="Path 5935" class="cls-11" d="M172.476,437.33l.509,4.482h-8.992l-.063-4.475Z" transform="translate(-119.757 -430.45)"/>
        <path id="Path_5936" data-name="Path 5936" class="cls-3" d="M171.867,430.05l.509,4.482h-8.483l-.063-4.482Z" transform="translate(-119.727 -428.245)"/>
        <path id="Path_5937" data-name="Path 5937" class="cls-11" d="M189.434,451.9l1.025,4.482H180.442l-.572-4.482Z" transform="translate(-124.586 -434.864)"/>
        <path id="Path_5938" data-name="Path 5938" class="cls-11" d="M187.985,444.61l1.025,4.482h-9.5l-.579-4.475Z" transform="translate(-124.301 -432.655)"/>
        <path id="Path_5939" data-name="Path 5939" class="cls-11" d="M186.536,437.33l1.025,4.482h-8.992l-.579-4.482Z" transform="translate(-124.016 -430.45)"/>
        <path id="Path_5940" data-name="Path 5940" class="cls-3" d="M185.1,430.04l1.025,4.482-8.49.007-.572-4.482Z" transform="translate(-123.735 -428.242)"/>
        <path id="Path_5941" data-name="Path 5941" class="cls-11" d="M205.164,451.9l1.541,4.475-10.01.007L195.6,451.9Z" transform="translate(-129.351 -434.864)"/>
        <path id="Path_5942" data-name="Path 5942" class="cls-11" d="M202.885,444.61l1.54,4.482h-9.508l-1.087-4.482Z" transform="translate(-128.815 -432.655)"/>
        <path id="Path_5943" data-name="Path 5943" class="cls-3" d="M200.6,437.32l1.541,4.482-8.992.007-1.094-4.482Z" transform="translate(-128.276 -430.447)"/>
        <path id="Path_5944" data-name="Path 5944" class="cls-3" d="M198.317,430.04l1.541,4.482h-8.483l-1.094-4.482Z" transform="translate(-127.74 -428.242)"/>
        <path id="Path_5945" data-name="Path 5945" class="cls-11" d="M137.157,455.461h0c-.4,0-.7-.125-.7-.307s.39-.307.781-.307h0c.4,0,.7.118.7.307S137.533,455.461,137.157,455.461Zm.077-.446h0c-.23,0-.425.056-.446.139s.167.139.39.139h0c.23,0,.425-.056.439-.139S137.457,455.015,137.234,455.015Zm1.868.23-2.4-.85a.059.059,0,0,1-.063-.07c.007-.028.084-.07.167-.07h.1l2.412.857a.067.067,0,0,1,.063.063c0,.021-.084.077-.174.077a.231.231,0,0,1-.1-.007Zm-.349-.572h0c-.4,0-.7-.125-.7-.307s.383-.307.767-.307h0c.39,0,.7.125.7.307S139.144,454.673,138.753,454.673Zm.07-.453h0c-.23,0-.425.063-.439.146s.167.139.383.139h0c.23,0,.425-.056.439-.139S139.039,454.22,138.823,454.22Z" transform="translate(-111.435 -435.518)"/>
        <path id="Path_5946" data-name="Path 5946" class="cls-11" d="M140.256,441.676c-.732,0-1.269-.307-1.2-.7a.7.7,0,0,1,.362-.432.384.384,0,0,1,.293,0c.084.035.091.1,0,.146a.46.46,0,0,0-.251.3.321.321,0,0,0,.2.335,1.318,1.318,0,0,0,.62.139,1.576,1.576,0,0,0,.662-.139.516.516,0,0,0,.321-.335.314.314,0,0,0-.153-.3c-.056-.042-.035-.112.063-.146a.363.363,0,0,1,.286,0,.467.467,0,0,1,.223.432C141.636,441.37,141,441.676,140.256,441.676Z" transform="translate(-112.22 -431.416)"/>
        <path id="Path_5947" data-name="Path 5947" class="cls-11" d="M141.728,439.649h-2.147c-.112,0-.188-.049-.181-.1h0l.112-.6c0-.056.1-.1.216-.1s.2.049.188.1l-.091.5h.7l.07-.432c0-.056.112-.1.216-.1s.2.049.188.1l-.07.432h.7l.084-.5c0-.056.1-.1.216-.1s.188.049.181.1l-.091.6h0A.331.331,0,0,1,141.728,439.649Z" transform="translate(-112.326 -430.907)"/>
        <path id="Path_5948" data-name="Path 5948" class="cls-11" d="M141.66,433.605c-.7,0-1.185-.314-1.122-.7a.7.7,0,0,1,.349-.432.342.342,0,0,1,.272,0c.084.042.084.112,0,.153a.439.439,0,0,0-.244.3.356.356,0,0,0,.188.335,1.164,1.164,0,0,0,.579.132,1.394,1.394,0,0,0,.62-.132.537.537,0,0,0,.307-.335.314.314,0,0,0-.146-.3c-.049-.042,0-.112.063-.153a.3.3,0,0,1,.272,0,.46.46,0,0,1,.2.432C142.949,433.291,142.35,433.605,141.66,433.605Z" transform="translate(-112.669 -428.97)"/>
        <path id="Path_5949" data-name="Path 5949" class="cls-3" d="M153.374,454.53l2.377.467c.084,0,.132.049.132.091a.1.1,0,0,1,0,.042.4.4,0,0,1-.3.056l-2.091-.4v.481c0,.056-.112.1-.237.1s-.223-.049-.216-.1l.042-.641h0l.042-.042h.272Z" transform="translate(-116.458 -435.66)"/>
        <path id="Path_5950" data-name="Path 5950" class="cls-3" d="M155.315,447.25c.509,0,.913.2.9.446s-.432.446-.941.446a1.283,1.283,0,0,1-.76-.2,1.081,1.081,0,0,1-.383.063c-.349,0-.627-.139-.62-.307s.307-.307.655-.307a1.038,1.038,0,0,1,.376.063,1.394,1.394,0,0,1,.774-.2Zm0,.2c-.272,0-.509.112-.516.244s.216.237.495.244.5-.112.509-.244-.223-.244-.495-.244Zm-1.171.349c.125,0,.223-.049.23-.1s-.1-.1-.216-.1-.216.049-.216.1.084.077.2.077Z" transform="translate(-116.6 -433.455)"/>
        <path id="Path_5951" data-name="Path 5951" class="cls-3" d="M154.854,440.839c-.495,0-.878-.2-.864-.453s.376-.425.823-.446h.216a4.4,4.4,0,0,1,.739.063,1.492,1.492,0,0,1,.613.244.39.39,0,0,1,.16.279c0,.056-.084.1-.2.1s-.2-.042-.2-.1a.237.237,0,0,0-.1-.174.767.767,0,0,0-.251-.119H155.7a.265.265,0,0,1,.063.174C155.746,440.637,155.342,440.839,154.854,440.839Zm0-.2c.265,0,.488-.112.495-.251s-.2-.244-.467-.244-.481.112-.488.244.2.251.467.251Z" transform="translate(-116.746 -431.241)"/>
        <path id="Path_5952" data-name="Path 5952" class="cls-11" d="M156.182,433.492c-.112,0-.2-.049-.2-.1V432.8c0-.056.1-.112.216-.112s.2.056.2.112v.586C156.391,433.443,156.294,433.492,156.182,433.492Z" transform="translate(-117.349 -429.044)"/>
        <path id="Path_5953" data-name="Path 5953" class="cls-3" d="M171.112,454.4c.125,0,.23.042.23.1h.307c.125,0,.223.049.23.1s-.091.1-.216.1h-.307l.042.579h0a.073.073,0,0,1-.049.063.4.4,0,0,1-.314,0l-1.917-.7h1.771C170.889,454.442,170.987,454.4,171.112,454.4Zm-1.206.328,1.032.369v-.369Z" transform="translate(-121.314 -435.621)"/>
        <path id="Path_5954" data-name="Path 5954" class="cls-3" d="M169.78,447.41a1.5,1.5,0,0,1,.7-.139,1.7,1.7,0,0,1,.7.139c.2.091.293.209.3.328h0c0,.119-.077.237-.258.328a.4.4,0,0,1-.314,0c-.091-.042-.091-.112,0-.153s.153-.112.146-.174a.258.258,0,0,0-.167-.181.921.921,0,0,0-.369-.07.851.851,0,0,0-.369.07.209.209,0,0,0-.139.181c0,.063.056.125.16.174s.1.112,0,.153h-.181l-1.011-.056a.308.308,0,0,1-.153-.049h0a.091.091,0,0,1,0-.049v-.551c0-.063.091-.112.216-.112s.216.049.216.112v.453h.383a.223.223,0,0,1-.042-.125C169.509,447.619,169.592,447.5,169.78,447.41Z" transform="translate(-121.237 -433.455)"/>
        <path id="Path_5955" data-name="Path 5955" class="cls-3" d="M169.975,439.93c.488,0,.9.2.913.453s-.314.425-.76.453h-.216a3.931,3.931,0,0,1-.753-.07,1.52,1.52,0,0,1-.641-.237.446.446,0,0,1-.188-.279c0-.063.077-.1.188-.112s.2.042.216.1a.258.258,0,0,0,.112.181.948.948,0,0,0,.265.112h.1a.293.293,0,0,1-.084-.181C169.111,440.132,169.494,439.93,169.975,439.93Zm0,.209c-.258,0-.474.112-.467.244s.237.244.5.244.474-.1.46-.244-.216-.244-.481-.244Z" transform="translate(-121.09 -431.238)"/>
        <path id="Path_5956" data-name="Path 5956" class="cls-11" d="M169.5,433.41c0,.056-.077.1-.174.1s-.181-.042-.188-.1l-.042-.753c0-.049.077-.1.174-.1s.174.042.181.1Zm-.934-.5h0c.125,0,.237.056.237.125s-.1.132-.223.132h0c-.125,0-.23-.056-.237-.132s.091-.125.216-.125Zm1.394,0h0c.125,0,.23.056.23.125s-.091.132-.216.132h0c-.132,0-.237-.063-.244-.132s.132-.125.258-.125Z" transform="translate(-121.093 -429.005)"/>
        <path id="Path_5957" data-name="Path 5957" class="cls-3" d="M185.335,454.83h2.4c.125,0,.23.049.244.1s-.077.1-.2.1h-2.035l.1.07s.042.042.042.056,0,.07-.1.084a.4.4,0,0,1-.314,0l-.335-.23h.174Z" transform="translate(-126.182 -435.751)"/>
        <path id="Path_5958" data-name="Path 5958" class="cls-3" d="M186.362,447.23c.125,0,.223.049.237.1l.125.662h0a.07.07,0,0,1-.056.077.425.425,0,0,1-.307,0l-1.136-.558a.941.941,0,0,0-.383-.077.751.751,0,0,0-.321.063c-.1.049-.146.112-.132.181s.063.112.153.16l.118.056c.091.042.091.1,0,.146a.4.4,0,0,1-.3,0l-.119-.056a.467.467,0,0,1-.293-.3.366.366,0,0,1,.251-.335,1.457,1.457,0,0,1,.6-.119,1.667,1.667,0,0,1,.7.153l.7.349-.077-.4A.283.283,0,0,1,186.362,447.23Z" transform="translate(-125.822 -433.449)"/>
        <path id="Path_5959" data-name="Path 5959" class="cls-3" d="M183.71,440.115a1.282,1.282,0,0,1,.6-.118,1.6,1.6,0,0,1,.662.132c.2.091.307.209.328.328a.32.32,0,0,1-.2.328.355.355,0,0,1-.293,0c-.091-.042-.1-.1,0-.146a.188.188,0,0,0,.112-.181.293.293,0,0,0-.181-.174.767.767,0,0,0-.362-.077.6.6,0,0,0-.328.077c-.091.049-.125.112-.118.174s0,.056-.049.077h0a.383.383,0,0,1-.293,0l-.411-.188.049.3c0,.056-.07.1-.188.1s-.216-.049-.223-.1l-.091-.551c0-.063.077-.1.188-.1h.153l.516.237A.489.489,0,0,1,183.71,440.115Z" transform="translate(-125.449 -431.256)"/>
        <path id="Path_5960" data-name="Path 5960" class="cls-11" d="M182.81,432.8l.6.223.523-.223a.314.314,0,0,1,.251,0s.049.042.049.063a.082.082,0,0,1-.056.084l-.439.188.509.181a.106.106,0,0,1,.091.077.188.188,0,0,1,0,.063.286.286,0,0,1-.244,0l-.613-.223-.523.223a.314.314,0,0,1-.251,0c-.063-.049-.056-.1,0-.139l.432-.181-.495-.188c-.084-.035-.112-.1-.063-.146a.293.293,0,0,1,.23,0Z" transform="translate(-125.399 -429.069)"/>
        <path id="Path_5961" data-name="Path 5961" class="cls-3" d="M204.47,454.939c0-.077.1-.139.265-.139s.321.063.349.139-.1.139-.265.139S204.5,455.016,204.47,454.939Z" transform="translate(-132.038 -435.742)"/>
        <path id="Path_5962" data-name="Path 5962" class="cls-3" d="M200.739,448.191a3.366,3.366,0,0,1-.969-.125c-.265-.077-.481-.2-.523-.349s.1-.265.328-.342a2.621,2.621,0,0,1,.885-.125,3.3,3.3,0,0,1,.955.125c.272.077.495.2.537.342s-.1.272-.328.349a2.649,2.649,0,0,1-.885.125Zm-.216-.732a2.286,2.286,0,0,0-.7.084c-.146.056-.209.119-.188.174s.112.125.286.181a2.865,2.865,0,0,0,.7.091,2.287,2.287,0,0,0,.662-.091c.146-.056.2-.118.181-.181s-.1-.118-.293-.174a2.788,2.788,0,0,0-.648-.084Z" transform="translate(-130.454 -433.455)"/>
        <path id="Path_5963" data-name="Path 5963" class="cls-11" d="M198.624,440.765c-.112,0-.223-.049-.244-.112l-.16-.572c0-.063.063-.112.174-.112s.223.049.244.112l.167.572C198.826,440.688,198.764,440.765,198.624,440.765Zm.7,0c-.125,0-.237-.049-.251-.112l-.174-.572c0-.063.07-.112.188-.112s.23.049.244.112l.174.572c.007.035-.042.112-.2.112Z" transform="translate(-130.145 -431.25)"/>
        <path id="Path_5964" data-name="Path 5964" class="cls-11" d="M196.732,433.136l.084.265c0,.056-.056.1-.16.1s-.209-.042-.223-.1l-.077-.265H195.9c-.1,0-.209-.049-.223-.1s.056-.112.167-.112h.474l-.077-.265c0-.056.056-.1.16-.1s.2.049.216.1l.077.265h.481a.251.251,0,0,1,.23.1c0,.063-.056.112-.167.112Z" transform="translate(-129.375 -429.002)"/>
        <path id="Path_5965" data-name="Path 5965" class="cls-11" d="M138.389,446.92c.091,0,.16.035.153.077l-.042.237c.544.1,1.966.342,2.377.4a.376.376,0,0,1,.125.042.056.056,0,0,1,.035.056s0,.049-.077.07-.544.251-.739.328a.725.725,0,0,1-.4.049c-.021-.014,0,0,0-.042s0-.049.063-.07l.188-.084.153-.07.146-.063.153-.07-2.245-.39h-.056s-.049-.042-.042-.063l.056-.307C138.222,446.976,138.305,446.92,138.389,446.92Z" transform="translate(-111.956 -433.355)"/>
        <path id="Path_5966" data-name="Path 5966" class="cls-12" d="M123.749,430.06l-5.409,19.706H107.8l7.486-19.7Z" transform="translate(-102.753 -428.248)"/>
        <path id="Path_5967" data-name="Path 5967" class="cls-3" d="M117.56,442.83h3.674c.2,0,.321.077.293.174s-.2.167-.4.167h-3.06l.1.125a.091.091,0,0,1,0,.091.335.335,0,0,1-.223.146.5.5,0,0,1-.453-.063l-.321-.376h.223Z" transform="translate(-105.592 -432.116)"/>
        <path id="Path_5968" data-name="Path 5968" class="cls-3" d="M121.952,440.24c.188,0,.307.077.279.174l-.335,1.1h0a.272.272,0,0,1-.146.125.627.627,0,0,1-.481,0l-1.352-.927a.969.969,0,0,0-.544-.125,1.685,1.685,0,0,0-.565.1.606.606,0,0,0-.362.3.223.223,0,0,0,.112.272l.139.1c.1.07.056.174-.1.244a.593.593,0,0,1-.481,0l-.139-.1a.411.411,0,0,1-.2-.5,1.1,1.1,0,0,1,.7-.551,2.789,2.789,0,0,1,1.046-.2,1.833,1.833,0,0,1,1,.244l.864.592.2-.662C121.59,440.317,121.764,440.24,121.952,440.24Z" transform="translate(-105.767 -431.332)"/>
        <path id="Path_5969" data-name="Path 5969" class="cls-3" d="M120.472,437.827a2.789,2.789,0,0,1,1.115-.223,1.889,1.889,0,0,1,.976.223.474.474,0,0,1,.272.551,1.032,1.032,0,0,1-.606.544.578.578,0,0,1-.481,0c-.112-.07-.077-.181.077-.251a.551.551,0,0,0,.328-.293.258.258,0,0,0-.139-.3,1.053,1.053,0,0,0-.537-.125,1.478,1.478,0,0,0-.606.125.641.641,0,0,0-.342.293c0,.056-.063.1-.146.132h0a.607.607,0,0,1-.481,0l-.516-.314-.174.5c0,.1-.216.174-.4.174s-.314-.077-.279-.174l.321-.92c0-.1.216-.174.4-.174a.482.482,0,0,1,.153,0h.077l.641.4A1.4,1.4,0,0,1,120.472,437.827Z" transform="translate(-106.001 -430.529)"/>
        <path id="Path_5970" data-name="Path 5970" class="cls-3" d="M123.132,434.51c.181,0,.293.077.265.174v.035h.446c.181,0,.293.07.265.167s-.188.174-.369.174h-.446l-.307.976h0a.2.2,0,0,1-.1.112.565.565,0,0,1-.46,0L120.1,435h0v-.035h2.523v-.035C122.819,434.594,122.958,434.51,123.132,434.51Zm-1.938.551,1.241.62.2-.62Z" transform="translate(-106.479 -429.596)"/>
        <path id="Path_5971" data-name="Path 5971" class="cls-3" d="M122.4,432.19a2.558,2.558,0,0,1,1.073-.23,1.742,1.742,0,0,1,.92.23.46.46,0,0,1,.251.544h0a.983.983,0,0,1-.586.544.53.53,0,0,1-.46,0c-.1-.07-.07-.181.077-.251a.544.544,0,0,0,.321-.3.244.244,0,0,0-.132-.293.927.927,0,0,0-.5-.125,1.4,1.4,0,0,0-.586.125.536.536,0,0,0-.321.293.244.244,0,0,0,.125.3c.1.07.063.181-.084.251l-.084.035h-.2l-1.464-.091a.32.32,0,0,1-.2-.084h0a.063.063,0,0,1,0-.077l.321-.92c0-.1.2-.174.383-.174s.293.077.258.174l-.265.767.558.035a.537.537,0,0,1,0-.209A1.039,1.039,0,0,1,122.4,432.19Z" transform="translate(-106.61 -428.823)"/>
      </g>
      <g id="freepik--speech-bubble--inject-58" transform="translate(166.768 95.859)">
        <path id="Path_5972" data-name="Path 5972" class="cls-3" d="M272.564,141.558a23.268,23.268,0,0,1-37.14,18.688L224,163.153l4.747-10.616a23.275,23.275,0,1,1,43.79-10.979Z" transform="translate(-223.505 -118.157)"/>
        <path id="Path_5973" data-name="Path 5973" class="cls-5" d="M272.349,141.51a23.394,23.394,0,0,1-3.45,12.22,26.223,26.223,0,0,1-1.847,2.628,25.942,25.942,0,0,1-2.224,2.321c-.411.349-.774.753-1.213,1.06l-1.29.969c-.425.321-.906.579-1.352.864l-.7.425c-.23.132-.481.244-.7.362l-1.45.7-1.513.565a10.616,10.616,0,0,1-1.541.467c-.523.125-1.039.307-1.568.383a22.624,22.624,0,0,1-3.206.39,19.955,19.955,0,0,1-3.227,0,23.324,23.324,0,0,1-12-4.468l.209.042L223.9,163.405l-.613.16.258-.586,4.719-10.623v.293a23.052,23.052,0,0,1-2.788-10.254,23.443,23.443,0,1,1,46.871-.885Zm0,0a23.331,23.331,0,0,0-9-18.291,23.644,23.644,0,0,0-9.48-4.357,23.184,23.184,0,0,0-10.4.286,22.884,22.884,0,0,0-9.229,4.768,23.986,23.986,0,0,0-6.176,8.3,23,23,0,0,0,.767,20.117l.077.146-.063.146-4.775,10.6-.355-.418,11.418-2.858h.112l.1.07a23,23,0,0,0,11.725,4.538,20.255,20.255,0,0,0,3.186.049,23.091,23.091,0,0,0,3.172-.342c.53-.077,1.039-.244,1.561-.362a10.713,10.713,0,0,0,1.534-.446l1.506-.537,1.443-.7c.244-.118.488-.223.7-.349l.7-.411c.453-.286.934-.53,1.359-.843l1.29-.955a14.5,14.5,0,0,0,1.213-1.046,26.735,26.735,0,0,0,2.231-2.3,25.322,25.322,0,0,0,1.854-2.614,23.338,23.338,0,0,0,3.541-12.2Z" transform="translate(-223.29 -118.11)"/>
        <path id="Path_5974" data-name="Path 5974" class="cls-6" d="M252.9,159.309l-8.664-8.762,2.914-2.872,5.054,5.116,10.512-16.472,3.443,2.2Z" transform="translate(-229.637 -123.626)"/>
      </g>
    </g>
  </g>
</svg>
